<?xml version="1.0" encoding="UTF-8" standalone="no"?>
<svg
   xmlns:dc="http://purl.org/dc/elements/1.1/"
   xmlns:cc="http://creativecommons.org/ns#"
   xmlns:rdf="http://www.w3.org/1999/02/22-rdf-syntax-ns#"
   xmlns:svg="http://www.w3.org/2000/svg"
   xmlns="http://www.w3.org/2000/svg"
   xmlns:sodipodi="http://sodipodi.sourceforge.net/DTD/sodipodi-0.dtd"
   xmlns:inkscape="http://www.inkscape.org/namespaces/inkscape"
   id="svg3257"
   version="1.1"
   inkscape:version="0.48.2 r9819"
   width="100%"
   height="100%"
   sodipodi:docname="IshiharaPlate.svg">
  <metadata
     id="metadata3489">
    <rdf:RDF>
      <cc:Work
         rdf:about="">
        <dc:format>image/svg+xml</dc:format>
        <dc:type
           rdf:resource="http://purl.org/dc/dcmitype/StillImage" />
        <dc:title></dc:title>
      </cc:Work>
    </rdf:RDF>
  </metadata>
  <defs
     id="defs3487" />
  <sodipodi:namedview
     pagecolor="#ffffff"
     bordercolor="#666666"
     borderopacity="1"
     objecttolerance="10"
     gridtolerance="10"
     guidetolerance="10"
     inkscape:pageopacity="0"
     inkscape:pageshadow="2"
     inkscape:window-width="1081"
     inkscape:window-height="756"
     id="namedview3485"
     showgrid="false"
     inkscape:zoom="0.73105265"
     inkscape:cx="174.36839"
     inkscape:cy="872.87858"
     inkscape:window-x="45"
     inkscape:window-y="0"
     inkscape:window-maximized="0"
     inkscape:current-layer="svg3257" />
  <circle
     cx="263.9716330577087"
     cy="225.52973457377888"
     r="5.093435470014811"
     style="stroke:#FF3371; fill:#FFFFFF"
     id="circle3259" />
  <circle
     cx="191.15228812700911"
     cy="377.4913286706493"
     r="4.7543246783316135"
     style="stroke:#FF3371; fill:#FFFFFF"
     id="circle3261" />
  <circle
     cx="88.30765481124504"
     cy="41.06466943724615"
     r="5.743418966419995"
     style="stroke:#FF3371; fill:#FFFFFF"
     id="circle3263" />
  <circle
     cx="244.96105156074657"
     cy="11.091709121504117"
     r="5.814937443472445"
     style="stroke:#FF3371; fill:#FFFFFF"
     id="circle3265" />
  <circle
     cx="166.3041081277384"
     cy="41.796776494000135"
     r="4.854191101156175"
     style="stroke:#FF3371; fill:#FFFFFF"
     id="circle3267" />
  <circle
     cx="46.757469187253676"
     cy="79.19834463033615"
     r="4.868472076021135"
     style="stroke:#FF3371; fill:#FFFFFF"
     id="circle3269" />
  <circle
     cx="313.113628765429"
     cy="49.95998647384238"
     r="4.957366643473506"
     style="stroke:#FF3371; fill:#FFFFFF"
     id="circle3271" />
  <circle
     cx="279.0228547052752"
     cy="21.964231439989874"
     r="5.214614376425743"
     style="stroke:#FF3371; fill:#FFFFFF"
     id="circle3273" />
  <circle
     cx="174.360204092807"
     cy="7.225565450812808"
     r="5.527940953150392"
     style="stroke:#FF3371; fill:#FFFFFF"
     id="circle3275" />
  <circle
     cx="245.65399215871972"
     cy="391.62681694215104"
     r="3.0098378816619515"
     style="stroke:#FF3371; fill:#FFFFFF"
     id="circle3277" />
  <circle
     cx="282.4107574214861"
     cy="180.99961903029575"
     r="5.909693950787187"
     style="stroke:#FF3371; fill:#FFFFFF"
     id="circle3279" />
  <circle
     cx="234.97517143882882"
     cy="361.36134647018804"
     r="4.885425676591694"
     style="stroke:#FF3371; fill:#FFFFFF"
     id="circle3281" />
  <circle
     cx="239.47365716185053"
     cy="392.6950346499298"
     r="3.3034164290875196"
     style="stroke:#FF3371; fill:#FFFFFF"
     id="circle3283" />
  <circle
     cx="299.3691651291993"
     cy="142.02036721295374"
     r="22.784245588816702"
     style="stroke:#FF3371; fill:#FFFFFF"
     id="circle3285" />
  <circle
     cx="194.09109354217003"
     cy="390.5019244661168"
     r="8.508163645863533"
     style="stroke:#FF3371; fill:#FFFFFF"
     id="circle3287" />
  <circle
     cx="284.5045380226479"
     cy="248.10116315159064"
     r="26.620261894539"
     style="stroke:#FF3371; fill:#FFFFFF"
     id="circle3289" />
  <circle
     cx="102.85767710676781"
     cy="354.89058157337234"
     r="17.16749972384423"
     style="stroke:#FF3371; fill:#FFFFFF"
     id="circle3291" />
  <circle
     cx="223.0220223093033"
     cy="384.54382174282654"
     r="14.025712382979691"
     style="stroke:#FF3371; fill:#FFFFFF"
     id="circle3293" />
  <circle
     cx="337.2358861953059"
     cy="235.28119712815607"
     r="17.167560311034322"
     style="stroke:#FF3371; fill:#FFFFFF"
     id="circle3295" />
  <circle
     cx="334.3573033551399"
     cy="275.57634314145275"
     r="23.636554565280676"
     style="stroke:#FF3371; fill:#FFFFFF"
     id="circle3297" />
  <circle
     cx="243.64937866508262"
     cy="345.9110007879873"
     r="13.12354857288301"
     style="stroke:#FF3371; fill:#FFFFFF"
     id="circle3299" />
  <circle
     cx="374.2117526806261"
     cy="254.07931669515057"
     r="17.587535331957042"
     style="stroke:#FF3371; fill:#FFFFFF"
     id="circle3301" />
  <circle
     cx="240.4429363462956"
     cy="301.49881534761676"
     r="32.33127491734922"
     style="stroke:#FF3371; fill:#FFFFFF"
     id="circle3303" />
  <circle
     cx="125.82495356892723"
     cy="372.42425175041024"
     r="12.2979485867545"
     style="stroke:#FF3371; fill:#FFFFFF"
     id="circle3305" />
  <circle
     cx="249.86989858001365"
     cy="374.69686368737445"
     r="15.351276353001595"
     style="stroke:#FF3371; fill:#FFFFFF"
     id="circle3307" />
  <circle
     cx="115.60125051087697"
     cy="323.72812431655115"
     r="17.300412931479514"
     style="stroke:#FF3371; fill:#FFFFFF"
     id="circle3309" />
  <circle
     cx="108.73363012739908"
     cy="283.0339425017442"
     r="24.446425993926823"
     style="stroke:#FF3371; fill:#FFFFFF"
     id="circle3311" />
  <circle
     cx="206.1092246858568"
     cy="351.19696910860665"
     r="25.240030425600708"
     style="stroke:#FF3371; fill:#FFFFFF"
     id="circle3313" />
  <circle
     cx="161.7222555310881"
     cy="371.0358054313926"
     r="24.733253407292068"
     style="stroke:#FF3371; fill:#FFFFFF"
     id="circle3315" />
  <circle
     cx="188.51410898903617"
     cy="275.5047098614782"
     r="25.917379871942103"
     style="stroke:#FF3371; fill:#FFFFFF"
     id="circle3317" />
  <circle
     cx="332.06808388126257"
     cy="319.6938236329877"
     r="21.762545473873615"
     style="stroke:#FF3371; fill:#FFFFFF"
     id="circle3319" />
  <circle
     cx="318.75292888498416"
     cy="193.46937766225966"
     r="29.43898795824498"
     style="stroke:#FF3371; fill:#FFFFFF"
     id="circle3321" />
  <circle
     cx="117.59725723531004"
     cy="193.7043486045034"
     r="32.19770071282983"
     style="stroke:#FF3371; fill:#FFFFFF"
     id="circle3323" />
  <circle
     cx="205.325079517141"
     cy="318.8620939106471"
     r="7.480488519184291"
     style="stroke:#FF3371; fill:#FFFFFF"
     id="circle3325" />
  <circle
     cx="182.5589281199129"
     cy="395.25713885091994"
     r="3.9654590114951134"
     style="stroke:#FF3371; fill:#FFFFFF"
     id="circle3327" />
  <circle
     cx="353.29347229195105"
     cy="82.41101278613885"
     r="6.800469562411308"
     style="stroke:#FF3371; fill:#FFFFFF"
     id="circle3329" />
  <circle
     cx="285.78788340351264"
     cy="344.7862837952499"
     r="31.706717560999095"
     style="stroke:#FF3371; fill:#FFFFFF"
     id="circle3331" />
  <circle
     cx="367.6405167020065"
     cy="283.2718367323124"
     r="12.816823317669332"
     style="stroke:#FF3371; fill:#FFFFFF"
     id="circle3333" />
  <circle
     cx="179.4713742083327"
     cy="317.76500692244673"
     r="18.615368611179292"
     style="stroke:#FF3371; fill:#FFFFFF"
     id="circle3335" />
  <circle
     cx="56.62856942289509"
     cy="190.35885230044735"
     r="29.763411881402135"
     style="stroke:#FF3371; fill:#FFFFFF"
     id="circle3337" />
  <circle
     cx="202.8574114503256"
     cy="305.94123415761214"
     r="4.462797028943896"
     style="stroke:#FF3371; fill:#FFFFFF"
     id="circle3339" />
  <circle
     cx="317.6614216077681"
     cy="249.62530773746104"
     r="7.532317640259862"
     style="stroke:#FF3371; fill:#FFFFFF"
     id="circle3341" />
  <circle
     cx="247.82723124970522"
     cy="232.69965060331103"
     r="13.376275484450161"
     style="stroke:#FF3371; fill:#FFFFFF"
     id="circle3343" />
  <circle
     cx="361.12222475185405"
     cy="270.6419808792072"
     r="3.7476837281137705"
     style="stroke:#FF3371; fill:#FFFFFF"
     id="circle3345" />
  <circle
     cx="322.83909118439766"
     cy="49.59472525345487"
     r="5.806310621090233"
     style="stroke:#FF3371; fill:#FFFFFF"
     id="circle3347" />
  <circle
     cx="359.50153702430447"
     cy="304.0783986688076"
     r="9.545140827074647"
     style="stroke:#FF3371; fill:#FFFFFF"
     id="circle3349" />
  <circle
     cx="46.084431666782486"
     cy="311.79625890502285"
     r="9.767495730891824"
     style="stroke:#FF3371; fill:#FFFFFF"
     id="circle3351" />
  <circle
     cx="145.7459813689646"
     cy="271.13980948628637"
     r="5.528285700827837"
     style="stroke:#FF3371; fill:#FFFFFF"
     id="circle3353" />
  <circle
     cx="336.3041167889242"
     cy="152.06294465363825"
     r="15.780808894895017"
     style="stroke:#FF3371; fill:#FFFFFF"
     id="circle3355" />
  <circle
     cx="162.00726633594294"
     cy="25.692080295280174"
     r="11.135001375339925"
     style="stroke:#FF3371; fill:#FFFFFF"
     id="circle3357" />
  <circle
     cx="129.59032813487298"
     cy="351.4919139235363"
     r="10.41068484261632"
     style="stroke:#FF3371; fill:#FFFFFF"
     id="circle3359" />
  <circle
     cx="75.63418218988583"
     cy="327.10538005782405"
     r="22.17245916556567"
     style="stroke:#FF3371; fill:#FFFFFF"
     id="circle3361" />
  <circle
     cx="317.42119614103876"
     cy="41.9789525323187"
     r="3.128496866673231"
     style="stroke:#FF3371; fill:#FFFFFF"
     id="circle3363" />
  <circle
     cx="23.283808723201034"
     cy="226.97767288600107"
     r="21.236449202522635"
     style="stroke:#FF3371; fill:#FFFFFF"
     id="circle3365" />
  <circle
     cx="14.15930532109078"
     cy="195.02561745929373"
     r="14.092742797918618"
     style="stroke:#FF3371; fill:#FFFFFF"
     id="circle3367" />
  <circle
     cx="89.98225854355074"
     cy="239.89429182746898"
     r="21.535212012939155"
     style="stroke:#FF3371; fill:#FFFFFF"
     id="circle3369" />
  <circle
     cx="79.26569971009812"
     cy="62.87818052380351"
     r="17.30034306831658"
     style="stroke:#FF3371; fill:#FFFFFF"
     id="circle3371" />
  <circle
     cx="158.3747044259945"
     cy="256.98923520401536"
     r="10.000329452566803"
     style="stroke:#FF3371; fill:#FFFFFF"
     id="circle3373" />
  <circle
     cx="294.1962293768473"
     cy="296.2320768557999"
     r="22.05845723580569"
     style="stroke:#FF3371; fill:#FFFFFF"
     id="circle3375" />
  <circle
     cx="391.45988474084334"
     cy="181.87432497085888"
     r="7.68404236715287"
     style="stroke:#FF3371; fill:#FFFFFF"
     id="circle3377" />
  <circle
     cx="373.04926941524667"
     cy="160.0621989911493"
     r="22.401921196840703"
     style="stroke:#FF3371; fill:#FFFFFF"
     id="circle3379" />
  <circle
     cx="50.45187533545242"
     cy="226.38025701458494"
     r="6.989944942295551"
     style="stroke:#FF3371; fill:#FFFFFF"
     id="circle3381" />
  <circle
     cx="242.58054843347173"
     cy="40.46551402151495"
     r="23.482124160043895"
     style="stroke:#FF3371; fill:#FFFFFF"
     id="circle3383" />
  <circle
     cx="148.25359301211492"
     cy="14.06593874104534"
     r="6.999570538289845"
     style="stroke:#FF3371; fill:#FFFFFF"
     id="circle3385" />
  <circle
     cx="319.91621275846495"
     cy="79.07511344243723"
     r="25.534160879440606"
     style="stroke:#FF3371; fill:#FFFFFF"
     id="circle3387" />
  <circle
     cx="148.28363810191593"
     cy="332.5230016330306"
     r="16.607807443477213"
     style="stroke:#FF3371; fill:#FFFFFF"
     id="circle3389" />
  <circle
     cx="148.945235968873"
     cy="296.4786645354277"
     r="19.122843381017447"
     style="stroke:#FF3371; fill:#FFFFFF"
     id="circle3391" />
  <circle
     cx="27.195223218010053"
     cy="136.74551145743115"
     r="15.982008489780128"
     style="stroke:#FF3371; fill:#FFFFFF"
     id="circle3393" />
  <circle
     cx="246.38476504495287"
     cy="258.1925791716185"
     r="12.26200760062784"
     style="stroke:#FF3371; fill:#FFFFFF"
     id="circle3395" />
  <circle
     cx="19.113119598637216"
     cy="166.4901186033719"
     r="16.035395652987063"
     style="stroke:#FF3371; fill:#FFFFFF"
     id="circle3397" />
  <circle
     cx="66.1696160930972"
     cy="287.04849253543284"
     r="19.737482585012913"
     style="stroke:#FF3371; fill:#FFFFFF"
     id="circle3399" />
  <circle
     cx="197.26611168656916"
     cy="25.88746348873277"
     r="24.61153965163976"
     style="stroke:#FF3371; fill:#FFFFFF"
     id="circle3401" />
  <circle
     cx="157.2790984223926"
     cy="272.42726794080676"
     r="6.144734096713364"
     style="stroke:#FF3371; fill:#FFFFFF"
     id="circle3403" />
  <circle
     cx="173.2393483877105"
     cy="222.00105271155041"
     r="30.697788323275745"
     style="stroke:#FF3371; fill:#FFFFFF"
     id="circle3405" />
  <circle
     cx="218.06085256461543"
     cy="242.81321491299158"
     r="18.771508351899683"
     style="stroke:#FF3371; fill:#FFFFFF"
     id="circle3407" />
  <circle
     cx="81.0413549563247"
     cy="354.08342437682614"
     r="5.33911307528615"
     style="stroke:#FF3371; fill:#FFFFFF"
     id="circle3409" />
  <circle
     cx="287.00280788222835"
     cy="45.65073494705514"
     r="21.702916279435158"
     style="stroke:#FF3371; fill:#FFFFFF"
     id="circle3411" />
  <circle
     cx="19.89447531983312"
     cy="258.2585368822602"
     r="10.706426046788692"
     style="stroke:#FF3371; fill:#FFFFFF"
     id="circle3413" />
  <circle
     cx="291.1089045804655"
     cy="80.11466577863105"
     r="3.8421086193993688"
     style="stroke:#FF3371; fill:#FFFFFF"
     id="circle3415" />
  <circle
     cx="52.185266698569905"
     cy="252.1472441721996"
     r="18.828895387239754"
     style="stroke:#FF3371; fill:#FFFFFF"
     id="circle3417" />
  <circle
     cx="272.0719197204621"
     cy="204.08671365078737"
     r="19.030971240252256"
     style="stroke:#FF3371; fill:#FFFFFF"
     id="circle3419" />
  <circle
     cx="352.6068625887769"
     cy="116.9996698287745"
     r="26.282098453491926"
     style="stroke:#FF3371; fill:#FFFFFF"
     id="circle3421" />
  <circle
     cx="372.1856771272366"
     cy="209.74738722489278"
     r="27.538645008578897"
     style="stroke:#FF3371; fill:#FFFFFF"
     id="circle3423" />
  <circle
     cx="35.315564161055164"
     cy="280.4529005270821"
     r="16.71434150263667"
     style="stroke:#FF3371; fill:#FFFFFF"
     id="circle3425" />
  <circle
     cx="163.15195102841324"
     cy="9.509162156894652"
     r="5.977996054105461"
     style="stroke:#FF3371; fill:#FFFFFF"
     id="circle3427" />
  <circle
     cx="230.69172982673857"
     cy="201.58291633997675"
     r="23.181073006242514"
     style="stroke:#FF3371; fill:#FFFFFF"
     id="circle3429" />
  <circle
     cx="228.18493317965428"
     cy="12.155558768098809"
     r="10.052837451919913"
     style="stroke:#FF3371; fill:#FFFFFF"
     id="circle3431" />
  <circle
     cx="319.4321121917931"
     cy="118.29149107466873"
     r="6.818208281882107"
     style="stroke:#FF3371; fill:#FFFFFF"
     id="circle3433" />
  <circle
     cx="54.465785679118625"
     cy="106.71482937212846"
     r="26.15532128792256"
     style="stroke:#FF3371; fill:#FFFFFF"
     id="circle3435" />
  <circle
     cx="271.7461746298513"
     cy="131.13188415815426"
     r="7.933676440268755"
     style="stroke:#FF3371; fill:#FFFFFF"
     id="circle3437" />
  <circle
     cx="126.12382295331047"
     cy="49.04530756671548"
     r="31.93748573027551"
     style="stroke:#FF3371; fill:#FFFFFF"
     id="circle3439" />
  <circle
     cx="130.41423038096863"
     cy="245.88295939896113"
     r="20.58756254799664"
     style="stroke:#FF3371; fill:#FFFFFF"
     id="circle3441" />
  <circle
     cx="192.91708507963767"
     cy="168.31822220386178"
     r="23.79655195120722"
     style="stroke:#FF3371; fill:#FFFFFF"
     id="circle3443" />
  <circle
     cx="140.85965998137488"
     cy="90.5084771734701"
     r="13.902927126735449"
     style="stroke:#FF3371; fill:#FFFFFF"
     id="circle3445" />
  <circle
     cx="159.17071340376054"
     cy="178.98030971198125"
     r="11.86661199387163"
     style="stroke:#FF3371; fill:#FFFFFF"
     id="circle3447" />
  <circle
     cx="265.37284301138664"
     cy="20.28237597308053"
     r="8.761842224746943"
     style="stroke:#FF3371; fill:#FFFFFF"
     id="circle3449" />
  <circle
     cx="64.84787355765447"
     cy="226.61815326350128"
     r="7.437059266492724"
     style="stroke:#FF3371; fill:#FFFFFF"
     id="circle3451" />
  <circle
     cx="176.0501432080385"
     cy="72.87763093196968"
     r="26.603188013657928"
     style="stroke:#FF3371; fill:#FFFFFF"
     id="circle3453" />
  <circle
     cx="327.61004990415194"
     cy="131.1830400878211"
     r="7.033472458831966"
     style="stroke:#FF3371; fill:#FFFFFF"
     id="circle3455" />
  <circle
     cx="263.1582987558301"
     cy="75.64267334408545"
     r="16.9894682681188"
     style="stroke:#FF3371; fill:#FFFFFF"
     id="circle3457" />
  <circle
     cx="88.80710302304722"
     cy="145.18526477881397"
     r="25.570455917157233"
     style="stroke:#FF3371; fill:#FFFFFF"
     id="circle3459" />
  <circle
     cx="56.73042486835607"
     cy="72.84707810691324"
     r="8.44312410056591"
     style="stroke:#FF3371; fill:#FFFFFF"
     id="circle3461" />
  <circle
     cx="285.6609905037227"
     cy="104.64200675604236"
     r="17.462651540525258"
     style="stroke:#FF3371; fill:#FFFFFF"
     id="circle3463" />
  <circle
     cx="221.36798114050333"
     cy="76.45296429867936"
     r="19.939009171910584"
     style="stroke:#FF3371; fill:#FFFFFF"
     id="circle3465" />
  <circle
     cx="103.84012472218852"
     cy="98.20943127757943"
     r="24.56992193777114"
     style="stroke:#FF3371; fill:#FFFFFF"
     id="circle3467" />
  <circle
     cx="244.5514261592646"
     cy="112.96646936662918"
     r="24.758446460589767"
     style="stroke:#FF3371; fill:#FFFFFF"
     id="circle3469" />
  <circle
     cx="146.4161611343959"
     cy="136.30304064102353"
     r="32.42203929182142"
     style="stroke:#FF3371; fill:#FFFFFF"
     id="circle3471" />
  <circle
     cx="202.61074438074183"
     cy="91.28935990643244"
     r="5.021603328175843"
     style="stroke:#FF3371; fill:#FFFFFF"
     id="circle3473" />
  <circle
     cx="197.3358371085261"
     cy="117.45643311459096"
     r="22.20381009578705"
     style="stroke:#FF3371; fill:#FFFFFF"
     id="circle3475" />
  <circle
     cx="290.1297883097985"
     cy="170.06663298632475"
     r="7.4736397778615355"
     style="stroke:#FF3371; fill:#FFFFFF"
     id="circle3477" />
  <circle
     cx="256.25341978395966"
     cy="162.65415283779424"
     r="26.069520802237093"
     style="stroke:#FF3371; fill:#FFFFFF"
     id="circle3479" />
  <circle
     cx="221.21655996296332"
     cy="144.01112753717481"
     r="13.726231690496206"
     style="stroke:#FF3371; fill:#FFFFFF"
     id="circle3481" />
  <circle
     cx="202.44226633127585"
     cy="200.72227919335796"
     r="7.915079358033836"
     style="stroke:#FF3371; fill:#FFFFFF"
     id="circle3483" />
  <path
     style="fill:#ececec"
     d="m 58.439672,303.92399 c -4.279423,-2.08452 -5.056836,-2.73286 -7.745904,-6.45986 -2.614739,-3.62398 -2.68114,-4.7279 -0.479526,-7.97216 2.101279,-3.0964 2.694923,-6.11691 2.223655,-11.31414 -0.343772,-3.79117 -0.25599,-4.11025 1.450035,-5.27074 0.998777,-0.67939 4.002896,-2.09559 6.675819,-3.14711 4.592681,-1.80674 5.0795,-1.86625 8.855005,-1.08245 9.412538,1.95403 15.322767,9.07397 15.322767,18.45905 0,5.12225 -1.361067,8.68009 -4.83361,12.63509 -5.065108,5.76884 -14.430721,7.58031 -21.468241,4.15232 z"
     id="path3969"
     inkscape:connector-curvature="0" />
  <path
     style="fill:#008080"
     d="m 84.771564,259.99656 c -3.186307,-1.11241 -6.847779,-3.40836 -9.426319,-5.91083 -3.658082,-3.55016 -6.582994,-11.71887 -5.873887,-16.40462 1.126048,-7.4409 6.55191,-14.45096 13.073937,-16.89116 9.172765,-3.43197 19.193235,-0.2198 24.524695,7.86165 2.64795,4.01378 3.85025,8.56358 2.95607,11.18653 -0.34052,0.99885 -0.71466,3.20108 -0.83143,4.89385 -0.58404,8.46665 -9.715932,15.81182 -19.49012,15.67674 -2.148865,-0.0297 -4.368691,-0.21517 -4.932946,-0.41216 z"
     id="path3971"
     inkscape:connector-curvature="0" />
  <path
     style="fill:#008080"
     d="m 62.463102,304.97398 c -4.541651,-1.1266 -8.442236,-3.59669 -10.841997,-6.86582 -2.802703,-3.81805 -2.984391,-5.61256 -0.903094,-8.91974 1.177296,-1.87073 1.587732,-3.81361 1.878293,-8.89129 l 0.371806,-6.49748 4.787617,-2.31575 c 2.633189,-1.27366 6.061287,-2.46397 7.617995,-2.64513 6.361069,-0.74027 14.693931,4.33565 17.512261,10.6675 1.619381,3.63822 1.773701,11.09272 0.302525,14.61374 -1.450258,3.47096 -5.493597,7.70373 -8.867163,9.28259 -3.40262,1.59247 -8.858634,2.31546 -11.858243,1.57138 l 0,0 z"
     id="path3973"
     inkscape:connector-curvature="0" />
  <path
     style="fill:#008080"
     d="m 109.46516,223.81521 c -9.983171,-2.68463 -18.211227,-10.55356 -21.551828,-20.61117 -1.366418,-4.1139 -1.367843,-14.55521 -0.0026,-19.09155 2.007576,-6.67067 6.741587,-12.66056 11.853997,-14.99872 2.098436,-0.95972 4.584776,-2.44537 5.525196,-3.30145 2.33708,-2.12746 6.38421,-3.15518 12.39037,-3.14637 19.01026,0.0279 33.72902,17.06667 30.74563,35.59188 -2.96944,18.43851 -21.13099,30.35207 -38.96076,25.55738 z"
     id="path3975"
     inkscape:connector-curvature="0" />
  <path
     style="fill:#008080"
     d="m 141.88099,167.41762 c -20.68337,-3.18456 -32.65952,-25.22795 -23.99212,-44.16006 7.41052,-16.18671 27.20294,-22.95266 43.20586,-14.76972 9.64547,4.93211 16.69339,16.57013 16.69339,27.56529 0,19.1706 -17.24882,34.23726 -35.90713,31.36449 z"
     id="path3977"
     inkscape:connector-curvature="0" />
  <path
     style="fill:#008080"
     d="m 155.21828,189.24798 c -8.34057,-3.32584 -9.17063,-15.28262 -1.36548,-19.66935 9.39493,-5.28025 19.83965,4.7179 14.9172,14.2794 -2.58911,5.02917 -8.53042,7.39221 -13.55172,5.38995 z"
     id="path3979"
     inkscape:connector-curvature="0" />
  <path
     style="fill:#008080"
     d="m 164.44226,250.34117 c -7.6573,-2.64783 -12.34578,-6.40832 -13.70775,-10.99459 -0.55803,-1.87909 -2.31669,-5.05245 -3.90814,-7.05192 -2.82551,-3.54992 -2.89857,-3.77209 -3.10745,-9.44893 -0.16472,-4.47655 0.102,-6.71777 1.15976,-9.74535 6.07149,-17.37813 24.44777,-25.37999 41.11145,-17.90178 4.36266,1.95785 8.21267,5.60692 8.21267,7.78404 0,1.59077 3.01672,5.28015 4.77333,5.83767 1.52551,0.48418 3.21363,5.1567 3.8317,10.60569 1.52752,13.4669 -7.82573,27.01584 -21.51893,31.17189 -4.35945,1.32314 -12.64286,1.19692 -16.84664,-0.25672 z"
     id="path3981"
     inkscape:connector-curvature="0" />
  <path
     style="fill:#008080"
     d="m 187.19187,300.05924 c -0.65858,-0.3741 -3.12078,-1.01244 -5.47157,-1.41854 -2.35078,-0.40611 -5.04359,-1.13442 -5.98402,-1.61848 -3.21569,-1.6552 -7.71572,-6.80521 -9.83323,-11.25353 -1.90824,-4.00872 -2.10504,-5.0304 -2.00239,-10.39546 0.14516,-7.58664 2.3117,-12.62253 7.79293,-18.11382 3.09512,-3.10081 3.82589,-3.45238 11.65215,-5.60575 4.49408,-1.23654 5.76768,-1.33303 9.20576,-0.69747 7.88322,1.4573 15.31412,7.14159 18.6863,14.29414 1.52027,3.22459 1.7735,4.68945 1.7735,10.25918 0,5.61237 -0.24878,7.02822 -1.82626,10.39358 -3.20858,6.84509 -10.63753,12.77983 -17.36198,13.8699 -1.48391,0.24055 -3.31356,0.5564 -4.0659,0.70189 -0.75234,0.14549 -1.90672,-0.0415 -2.56529,-0.41564 l 0,0 z"
     id="path3983"
     inkscape:connector-curvature="0" />
  <path
     style="fill:#008080"
     d="m 210.8903,259.19484 c -3.271,-1.52749 -7.29243,-5.34925 -8.90017,-8.45828 -1.76513,-3.41339 -2.05167,-10.17944 -0.59287,-13.99927 2.55313,-6.68526 9.80065,-11.83973 16.64745,-11.83973 9.55482,0 17.89307,8.59266 17.87207,18.41738 -0.0126,5.91819 -4.51327,12.79306 -10.17892,15.54864 -3.69307,1.79619 -11.34495,1.96691 -14.84756,0.33126 l 0,0 z"
     id="path3985"
     inkscape:connector-curvature="0" />
  <path
     style="fill:#008080"
     d="m 227.11059,223.37657 c -7.20646,-1.06873 -14.39306,-6.69432 -16.88392,-13.21655 -1.06977,-2.80114 -1.06989,-3.18426 -0.002,-5.85358 1.14117,-2.85207 0.96723,-6.19758 -0.41137,-7.91222 -1.0321,-1.28366 1.90202,-7.19996 5.11843,-10.32072 3.56635,-3.4603 7.28217,-5.40259 12.0745,-6.31143 5.2669,-0.99885 8.09627,-0.3045 11.31088,2.77579 1.50468,1.4418 4.5401,3.44493 6.74538,4.45138 3.61541,1.65002 4.18651,2.20817 5.80905,5.67726 2.54655,5.44468 2.54375,12.51503 -0.007,17.96941 -4.34722,9.29542 -13.58289,14.24906 -23.75398,12.74066 l 0,0 z"
     id="path3987"
     inkscape:connector-curvature="0" />
  <path
     style="fill:#008080"
     d="m 251.20536,187.29197 c -11.5799,-2.45282 -20.03335,-13.00385 -20.06139,-25.03931 -0.0163,-6.97564 4.50266,-15.7943 10.05966,-19.63138 5.18611,-3.581 9.03277,-4.82685 14.89622,-4.82457 7.04636,0.003 12.02652,1.87551 16.92536,6.36471 16.25116,14.89226 6.88745,41.79871 -15.119,43.44419 -2.12201,0.15866 -5.13739,0.0175 -6.70085,-0.31364 z"
     id="path3989"
     inkscape:connector-curvature="0" />
  <path
     style="fill:#008080"
     d=""
     id="path3993"
     inkscape:connector-curvature="0" />
  <path
     style="fill:#008080"
     d="m 267.48771,136.30817 c -3.46078,-2.91206 -3.46733,-7.3013 -0.0157,-10.51699 3.32657,-3.09917 10.18199,-0.70585 11.05468,3.85934 1.21795,6.37131 -6.11989,10.79679 -11.03898,6.65765 z"
     id="path3995"
     inkscape:connector-curvature="0" />
  <path
     style="fill:#008080"
     d="m 296.11065,163.62181 c -0.56426,-0.20864 -1.64147,-0.64067 -2.39381,-0.96007 -0.75234,-0.3194 -2.13733,-0.7457 -3.07775,-0.94734 -3.71495,-0.79652 -7.12918,-4.24054 -10.10768,-10.19584 -3.4088,-6.81564 -3.89238,-11.80047 -1.52195,-15.68833 0.75093,-1.23165 1.36648,-2.95192 1.36789,-3.82284 0.004,-2.69947 6.4709,-8.47129 11.55467,-10.31331 15.83807,-5.73868 31.98069,7.7686 28.82045,24.1154 -1.92779,9.9717 -9.71074,17.05912 -19.61952,17.86617 -2.19801,0.17902 -4.45805,0.15479 -5.0223,-0.0538 z"
     id="path3997"
     inkscape:connector-curvature="0" />
  <path
     style="fill:#008080"
     d="m 313.32985,221.42996 c -7.56378,-1.48849 -15.87824,-7.53764 -19.4305,-14.13658 -2.59948,-4.82898 -4.01259,-12.63847 -3.25577,-17.99278 2.13433,-15.09972 17.18855,-26.36722 32.03424,-23.97639 12.68098,2.04221 22.06139,11.4787 24.19202,24.33663 0.69756,4.20962 0.6149,4.96934 -1.14062,10.48338 -2.9268,9.193 -2.97716,9.29098 -6.7441,13.12114 -3.95864,4.02509 -9.8059,7.12945 -15.44199,8.19832 -4.19262,0.79511 -6.03243,0.78904 -10.21328,-0.0337 l 0,0 z"
     id="path3999"
     inkscape:connector-curvature="0" />
  <path
     style="fill:#008080"
     d="m 333.72764,250.9311 c -3.82076,-0.77095 -6.60774,-2.558 -9.11946,-5.84749 -3.12451,-4.09205 -4.16398,-8.3205 -3.194,-12.99287 1.17314,-5.65098 3.84282,-8.65774 9.97121,-11.23021 4.96245,-2.08306 5.39408,-2.14984 9.02417,-1.39624 4.14264,0.86001 5.13462,1.6824 10.1593,8.42233 2.3709,3.18027 2.99319,4.58569 2.99319,6.76011 0,4.81475 -1.44334,8.15521 -5.10642,11.81828 -4.60056,4.60057 -8.38069,5.74685 -14.72799,4.46609 z"
     id="path4001"
     inkscape:connector-curvature="0" />
  <path
     style="fill:#008080"
     d="m 331.6758,297.4507 c -5.23095,-0.38115 -6.20141,-0.68182 -9.68413,-3.00034 -4.12776,-2.74794 -5.24705,-4.11611 -8.22157,-10.04956 -2.4338,-4.85485 -2.60928,-11.08957 -0.47573,-16.90199 1.95729,-5.33222 7.70974,-11.05929 13.15449,-13.09644 12.62396,-4.72323 26.61035,2.67614 29.8862,15.81101 0.72127,2.89201 0.65034,3.62744 -0.63886,6.62427 -0.83324,1.93692 -1.45021,4.82242 -1.45021,6.78253 0,2.71403 -0.38451,3.8766 -1.88085,5.68675 -2.67381,3.23457 -4.19376,4.4813 -7.69438,6.31133 -3.96533,2.07296 -5.91698,2.34817 -12.99496,1.83244 z"
     id="path4003"
     inkscape:connector-curvature="0" />
  <path
     style="fill:#008080"
     d="m 353.82659,310.19624 c -4.90297,-4.49323 -3.38686,-11.91948 2.87929,-14.10345 3.55056,-1.2375 6.0356,-0.59751 8.93392,2.30081 1.85661,1.85661 2.2851,2.81729 2.2851,5.12324 0,5.58478 -3.1948,8.92572 -8.5353,8.92572 -2.56398,0 -3.54341,-0.39549 -5.56301,-2.24632 z"
     id="path4005"
     inkscape:connector-curvature="0" />
  <path
     style="fill:#800000"
     d="M 20.12431,246.89276 C 3.9935582,244.69189 -2.6481946,224.01874 9.1074898,212.60177 c 2.0580532,-1.99876 3.1531302,-2.49211 6.2384542,-2.81055 2.058221,-0.21242 4.946476,-1.06306 6.418344,-1.89029 2.450896,-1.37748 2.968107,-1.43402 6.14546,-0.67179 4.866904,1.16756 9.372761,4.38425 12.284693,8.76993 2.236998,3.36916 2.506859,4.27027 2.681982,8.95549 0.290418,7.76982 -0.139163,9.23322 -3.684455,12.55135 -1.714307,1.60447 -3.569746,3.79057 -4.123199,4.858 -1.778068,3.42933 -8.367464,5.42621 -14.944459,4.52885 l 0,0 z"
     id="path4410"
     inkscape:connector-curvature="0" />
  <path
     style="fill:#800000"
     d="m 80.411015,168.30127 c -7.132902,-2.85618 -12.19685,-7.97773 -14.83602,-15.00478 -3.14176,-8.36523 -0.474175,-19.41374 6.193047,-25.65014 4.218409,-3.94583 7.774726,-5.70294 13.481861,-6.66112 4.351036,-0.7305 5.039061,-0.65884 10.659778,1.11026 7.487169,2.35655 11.724259,5.85953 14.906699,12.32397 6.06375,12.31723 0.81273,27.1857 -11.681969,33.07798 -5.094307,2.40239 -13.798048,2.77605 -18.723396,0.80383 z"
     id="path4412"
     inkscape:connector-curvature="0" />
  <path
     style="fill:#800000"
     d="m 117.99002,77.304174 c -2.37311,-1.576665 -5.63718,-3.035817 -7.86537,-3.516096 -3.10296,-0.668836 -4.36568,-1.401595 -6.8137,-3.954015 C 99.490931,65.851126 96.475206,59.478095 95.534437,53.400215 92.45995,33.537333 110.3134,15.61016 130.34407,18.446852 c 13.09771,1.854865 23.83325,12.347385 26.30473,25.709275 1.04143,5.630414 0.50229,8.455575 -2.31894,12.151586 -2.53718,3.323885 -5.26744,9.71279 -5.26744,12.325973 0,2.580086 -5.64346,6.743442 -10.08488,7.439924 -2.04857,0.321247 -4.84394,1.344646 -6.21193,2.274218 -1.9767,1.343205 -3.33211,1.686163 -6.60314,1.670797 -3.63288,-0.01706 -4.59194,-0.335615 -8.17245,-2.714451 l 0,0 z"
     id="path4414"
     inkscape:connector-curvature="0" />
  <path
     style="fill:#800000"
     d="m 213.67439,93.371649 c -9.34757,-4.366357 -13.52592,-15.497661 -9.30522,-24.789515 6.47117,-14.246229 26.61782,-14.525497 33.72815,-0.467532 4.01311,7.934389 1.70278,18.543744 -4.76021,21.859549 -1.77076,0.908476 -4.25759,2.460751 -5.5263,3.449501 -2.97949,2.322026 -9.10227,2.299503 -14.13642,-0.052 z"
     id="path4416"
     inkscape:connector-curvature="0" />
  <path
     style="fill:#800000"
     d="m 185.27326,189.6543 c -8.65452,-3.13193 -14.77943,-11.96968 -14.77943,-21.32553 0,-9.42676 4.47691,-16.3835 13.19598,-20.50544 6.24216,-2.95099 12.13548,-2.95099 18.37765,0 8.63026,4.07996 13.32234,11.28552 13.30024,20.42502 -0.0163,6.74293 -2.61015,12.42333 -7.73129,16.93113 -6.37973,5.61567 -14.64209,7.26895 -22.36315,4.47482 z"
     id="path4418"
     inkscape:connector-curvature="0" />
  <path
     style="fill:#800000"
     d="m 314.47822,102.88127 c -5.36284,-1.27821 -8.73307,-3.260466 -12.13927,-7.139916 -6.2342,-7.100365 -8.24467,-15.0789 -5.91393,-23.469388 1.66499,-5.99381 10.2069,-14.793294 16.02055,-16.503626 9.40054,-2.765569 19.08009,-0.02691 25.64484,7.255757 4.18327,4.640752 6.03426,9.626807 6.06806,16.345684 0.034,6.756194 -2.59398,12.121077 -7.75191,15.825221 -2.33458,1.67657 -4.24469,3.445347 -4.24469,3.930616 0,2.793162 -11.48663,5.232692 -17.68365,3.755652 z"
     id="path4420"
     inkscape:connector-curvature="0" />
  <path
     style="fill:#800000"
     d=""
     id="path4422"
     inkscape:connector-curvature="0" />
  <path
     style="fill:#800000"
     d="m 241.79358,14.387358 c -1.95826,-1.958258 -1.93718,-4.6953551 0.0515,-6.6840084 2.18829,-2.1882859 5.34723,-1.4693221 7.06937,1.6089633 1.32483,2.3681051 1.29356,2.7679171 -0.3594,4.5944121 -2.15901,2.385682 -4.67738,2.564699 -6.76144,0.480633 z"
     id="path4424"
     inkscape:connector-curvature="0" />
  <path
     style="fill:#800000"
     d="m 365.78066,235.44438 c -8.06548,-2.01989 -15.87671,-9.26825 -18.59951,-17.25925 -6.94087,-20.37031 13.17654,-40.38016 33.60062,-33.42098 8.96868,3.05594 16.22733,12.03425 17.65582,21.8387 0.8603,5.9047 -1.4655,13.90271 -5.63101,19.36406 -5.74149,7.5276 -17.85272,11.77477 -27.02592,9.47747 z"
     id="path4426"
     inkscape:connector-curvature="0" />
  <path
     style="fill:#800000"
     d="m 265.42198,220.84641 c -3.08981,-1.22845 -7.52067,-5.42382 -9.27517,-8.78221 -1.75561,-3.3605 -1.75883,-12.68585 -0.006,-16.0556 2.83422,-5.44729 10.23734,-9.88833 16.41137,-9.84498 7.53827,0.0529 15.12258,6.3863 16.84898,14.06994 1.12048,4.98688 -0.61893,12.15894 -3.76684,15.53174 -5.05493,5.41605 -13.82515,7.62072 -20.21279,5.08111 z"
     id="path4428"
     inkscape:connector-curvature="0" />
  <path
     style="fill:#800000"
     d="m 241.13763,267.87754 c -7.68258,-4.1757 -7.56772,-15.38108 0.19884,-19.39732 5.37735,-2.78073 11.60646,-0.90741 14.76559,4.44057 5.49663,9.30505 -5.37356,20.16966 -14.96443,14.95675 z"
     id="path4430"
     inkscape:connector-curvature="0" />
  <path
     style="fill:#800000"
     d="m 278.38974,374.36189 c -25.60956,-6.2171 -31.34318,-40.99179 -9.09878,-55.18452 6.54497,-4.17592 9.74191,-4.67981 14.98282,-2.36151 3.38416,1.49698 6.52895,2.05198 11.36911,2.00643 6.51162,-0.0613 6.80492,0.0421 10.94546,3.85874 6.4825,5.97536 9.48938,12.95073 9.47489,21.97984 -0.0139,8.67708 -2.08813,14.19468 -7.65079,20.35188 -4.6058,5.09807 -10.11589,8.28452 -16.68066,9.64632 -6.11368,1.26822 -6.97263,1.24909 -13.34205,-0.29718 z"
     id="path4432"
     inkscape:connector-curvature="0" />
  <path
     style="fill:#800000"
     d="m 172.08503,333.57426 c -4.39487,-2.29155 -6.16979,-4.21965 -8.3363,-9.05576 -5.40249,-12.05948 4.35451,-25.288 17.70554,-24.00513 13.97016,1.34235 20.3326,18.77286 10.6374,29.14216 -4.96898,5.31446 -13.95441,7.07445 -20.00664,3.91873 z"
     id="path4434"
     inkscape:connector-curvature="0" />
  <path
     style="fill:#800000"
     d="m 153.17339,275.0388 c -1.5558,-2.90704 -0.35372,-6.54289 2.39096,-7.23176 3.43615,-0.86242 6.36245,1.09722 6.36245,4.26069 0,1.47084 -0.52231,3.19657 -1.16069,3.83495 -1.91201,1.91201 -6.37912,1.40376 -7.59272,-0.86388 z"
     id="path4436"
     inkscape:connector-curvature="0" />
  <path
     style="fill:#800000"
     d="m 97.973812,303.37885 c -7.447384,-3.89056 -10.764845,-8.99849 -11.573397,-17.81966 -0.866659,-9.45511 0.27404,-12.87959 6.219733,-18.67219 7.708262,-7.50977 17.990502,-9.5947 23.685482,-4.80269 1.58922,1.33724 4.35182,3.04235 6.13913,3.78913 8.45884,3.53433 11.52125,13.3686 7.65193,24.57255 -2.47288,7.16045 -4.96078,10.16121 -10.86313,13.10247 -7.0959,3.53604 -14.27598,3.47875 -21.259748,-0.16961 l 0,0 z"
     id="path4438"
     inkscape:connector-curvature="0" />
  <path
     style="fill:#800000"
     d="m 48.041809,217.61755 c -4.778012,-1.4927 -14.426683,-9.84983 -16.976376,-14.70396 -1.250394,-2.38051 -1.790083,-5.83105 -1.934489,-12.36828 -0.180106,-8.15331 0.02164,-9.34332 2.002667,-11.81284 1.211622,-1.51039 2.857243,-4.17884 3.656937,-5.92989 1.53519,-3.36153 8.034019,-8.07509 13.721548,-9.95214 5.118832,-1.68937 15.473786,-0.74681 20.559219,1.87141 10.404511,5.35671 15.918429,14.31277 15.867579,25.77313 -0.03732,8.41037 -2.44683,14.19663 -8.384191,20.13399 -7.363628,7.36363 -18.542218,10.10353 -28.512894,6.98858 l 0,0 z"
     id="path4440"
     inkscape:connector-curvature="0" />
  <path
     style="fill:#800000"
     d="m 12.214916,179.69755 c -7.2697764,-3.58313 -10.2732231,-14.1173 -5.858848,-20.54909 6.669103,-9.71695 17.910025,-10.27759 24.805491,-1.23717 3.389983,4.4445 3.664891,12.15055 0.5819,16.31141 -4.966563,6.70296 -12.660501,8.85997 -19.528543,5.47485 z"
     id="path4442"
     inkscape:connector-curvature="0" />
  <path
     style="fill:#800000"
     d="m 71.489427,347.73252 c -4.25599,-1.03242 -8.35611,-3.38904 -11.313814,-6.50283 -11.705666,-12.3234 -3.902464,-32.56435 13.386838,-34.72451 7.136571,-0.89166 12.683606,1.29747 17.684994,6.97935 6.85917,7.79243 7.120666,18.41016 0.661955,26.87797 -4.126152,5.40966 -13.923829,8.94586 -20.419973,7.37002 z"
     id="path4444"
     inkscape:connector-curvature="0" />
  <path
     style="fill:#800000"
     d="m 120.51882,382.15174 c -5.3768,-2.98367 -7.42126,-9.99002 -4.40504,-15.09608 2.77199,-4.69261 5.84224,-5.8535 11.88287,-4.49303 6.00398,1.35221 7.32925,2.89769 8.16394,9.52045 0.54062,4.28944 0.36037,4.79949 -2.81991,7.97977 -2.68996,2.68997 -4.14603,3.3903 -6.99236,3.36317 -1.97721,-0.0189 -4.60048,-0.59228 -5.8295,-1.27428 z"
     id="path4446"
     inkscape:connector-curvature="0" />
  <path
     style="fill:#800000"
     d="m 201.45116,375.04007 c -3.90628,-0.60094 -12.72597,-6.27647 -13.97063,-8.99018 -0.60999,-1.32997 -2.0401,-4.37679 -3.17802,-6.77072 -4.33471,-9.11928 -2.06806,-18.56152 6.1389,-25.57295 6.2741,-5.36013 8.73696,-6.34612 15.8517,-6.34612 11.0879,0 20.97569,7.97074 23.32922,18.80613 2.75156,12.66784 -5.58127,25.60657 -18.36605,28.51771 -4.44147,1.01134 -5.33512,1.0438 -9.80512,0.35613 z"
     id="path4448"
     inkscape:connector-curvature="0" />
  <path
     style="fill:#800000"
     d="m 290.57035,316.75789 c -13.33633,-2.59566 -21.03658,-16.70479 -15.59311,-28.5712 6.14983,-13.40625 21.87292,-17.04094 32.89698,-7.60475 6.43014,5.50397 8.88284,15.92461 5.59836,23.78548 -3.55983,8.51987 -13.93876,14.13503 -22.90223,12.39047 z"
     id="path4450"
     inkscape:connector-curvature="0" />
  <path
     style="fill:#ff2a2a"
     d="m 189.62372,395.96427 c -3.19339,-2.51192 -3.49419,-7.68937 -0.61407,-10.56949 2.88013,-2.88013 8.05757,-2.57933 10.56949,0.61406 2.65932,3.38077 2.53199,6.68454 -0.36945,9.58597 -2.90144,2.90144 -6.2052,3.02877 -9.58597,0.36946 l 0,0 z"
     id="path4452"
     inkscape:connector-curvature="0" />
  <path
     style="fill:#ff2a2a"
     d="m 122.7451,263.65255 c -6.97247,-3.16753 -12.08001,-11.00115 -12.06742,-18.50825 0.002,-1.32996 1.05495,-4.67521 2.33937,-7.43388 3.12519,-6.71225 8.33049,-10.20003 16.05704,-10.75892 17.23537,-1.2467 27.1412,17.92545 16.15074,31.25879 -5.58501,6.77558 -14.69171,8.98028 -22.47973,5.44226 l 0,0 z"
     id="path4454"
     inkscape:connector-curvature="0" />
  <path
     style="fill:#ff2a2a"
     d="m 141.63387,312.60962 c -2.34282,-1.19697 -5.59068,-3.84893 -7.21747,-5.89325 -2.63821,-3.31533 -2.9578,-4.42085 -2.9578,-10.23136 0,-5.65372 0.35994,-6.98632 2.72432,-10.08619 7.16679,-9.39614 18.27635,-10.61279 26.7775,-2.9325 4.49305,4.05919 6.1868,8.60334 5.57602,14.95983 -0.60051,6.24964 -3.94981,10.98258 -9.87758,13.95817 -5.92144,2.9724 -9.54183,3.02669 -15.02499,0.2253 z"
     id="path4456"
     inkscape:connector-curvature="0" />
  <path
     style="fill:#ff2a2a"
     d="m 280.26314,273.06149 c -16.82633,-2.94034 -26.15459,-21.24504 -18.46105,-36.22584 5.07,-9.87225 13.49011,-14.52979 24.80413,-13.72027 14.00157,1.0018 23.77068,12.08869 22.94599,26.04123 -0.93661,15.84613 -14.06914,26.5645 -29.28907,23.90488 z"
     id="path4458"
     inkscape:connector-curvature="0" />
  <path
     style="fill:#ff2a2a"
     d="m 242.69136,243.80378 c -3.83135,-1.66978 -4.9868,-3.19136 -6.38053,-8.40238 -1.64179,-6.13844 0.45407,-10.24698 6.80382,-13.33764 4.08246,-1.98709 5.12987,-2.14097 8.03863,-1.18099 10.97643,3.62255 11.88942,17.53868 1.50303,22.90969 -3.21461,1.66234 -6.16895,1.6657 -9.96495,0.0113 l 0,-1e-5 z"
     id="path4460"
     inkscape:connector-curvature="0" />
  <path
     style="fill:#ff2a2a"
     d=""
     id="path4462"
     inkscape:connector-curvature="0" />
  <path
     style="fill:#ff2a2a"
     d="m 217.38176,156.06368 c -6.32219,-1.83036 -10.52683,-10.39351 -8.04518,-16.38475 1.58488,-3.82624 6.03102,-7.4786 10.01339,-8.2257 7.13737,-1.33898 14.14184,4.80952 14.14932,12.42023 0.005,5.38993 -2.39403,9.24751 -7.07305,11.37185 -4.50982,2.04753 -4.73007,2.06746 -9.04448,0.81837 l 0,0 z"
     id="path4464"
     inkscape:connector-curvature="0" />
  <path
     style="fill:#ff2a2a"
     d="m 165.25837,95.827162 c -8.33547,-3.881448 -14.9385,-13.982533 -14.9385,-22.852412 0,-4.702179 2.95645,-12.569194 6.04588,-16.087854 12.86805,-14.655896 34.68925,-11.688372 42.87086,5.830125 1.88575,4.037756 2.13009,5.746 1.66027,11.606936 -0.62574,7.805912 -2.55179,12.276824 -7.20805,16.731906 -7.52358,7.198513 -19.06015,9.134617 -28.43046,4.771299 l 0,0 z"
     id="path4466"
     inkscape:connector-curvature="0" />
  <path
     style="fill:#ff2a2a"
     d="m 188.21245,136.23286 c -3.39968,-1.69414 -6.06514,-3.98206 -8.16968,-7.01253 -2.84259,-4.09323 -3.12367,-5.15078 -3.12367,-11.75233 0,-6.60154 0.28108,-7.65909 3.12367,-11.75232 3.73322,-5.37572 11.21643,-9.531876 17.13657,-9.517609 4.56746,0.01101 12.66141,3.556875 15.72346,6.888269 6.95464,7.5664 6.95464,21.19693 0,28.76333 -3.06205,3.33139 -11.156,6.87726 -15.72346,6.88827 -2.30011,0.006 -6.00674,-1.02998 -8.96689,-2.50508 z"
     id="path4468"
     inkscape:connector-curvature="0" />
  <path
     style="fill:#ff2a2a"
     d="m 46.79507,130.54781 c -2.410221,-0.77421 -6.233759,-2.99251 -8.496753,-4.92955 -10.961061,-9.38226 -11.812239,-25.08261 -1.94044,-35.792249 9.972975,-10.819399 26.821261,-10.653236 36.773471,0.362672 4.218533,4.669412 5.9203,9.514067 6.014829,17.123257 0.158135,12.72924 -9.727755,23.19585 -22.895978,24.24093 -2.92154,0.23186 -6.931365,-0.19437 -9.455129,-1.00506 z"
     id="path4470"
     inkscape:connector-curvature="0" />
  <path
     style="fill:#ff2a2a"
     d="m 144.18269,18.007453 c -3.35006,-3.701774 -0.83204,-9.8380961 4.03704,-9.8380961 2.76844,0 5.96912,3.2907911 5.96912,6.1371791 0,4.806286 -6.74733,7.301881 -10.00616,3.700917 z"
     id="path4472"
     inkscape:connector-curvature="0" />
  <path
     style="fill:#ff2a2a"
     d=""
     id="path4474"
     inkscape:connector-curvature="0" />
  <path
     style="fill:#ff2a2a"
     d=""
     id="path4476"
     inkscape:connector-curvature="0" />
  <path
     style="fill:#ff2a2a"
     d="m 192.2325,48.869008 c -9.07344,-2.267757 -16.02353,-9.598378 -17.99038,-18.97539 -2.85367,-13.604941 8.7658,-27.5088313 22.98911,-27.5088313 5.71831,0 13.27957,3.2524062 17.09886,7.3549131 3.14611,3.3793992 6.59864,11.8488432 6.59864,16.1871872 0,8.122664 -6.09761,17.606896 -13.58299,21.12702 -4.2138,1.981609 -11.12568,2.811725 -15.11324,1.815101 l 0,0 z"
     id="path4478"
     inkscape:connector-curvature="0" />
  <path
     style="fill:#ff2a2a"
     d="m 171.81447,10.532622 c -2.81749,-1.9734459 -2.73123,-4.8393783 0.20354,-6.7623123 4.76443,-3.12177582 8.84326,2.8118676 4.58311,6.6672483 -2.16002,1.954792 -2.1323,1.954242 -4.78665,0.09506 z"
     id="path4480"
     inkscape:connector-curvature="0" />
  <path
     style="fill:#ff2a2a"
     d="m 280.05375,65.222473 c -4.42002,-1.884356 -10.07072,-7.159272 -11.83844,-11.051148 -5.01427,-11.039592 1.31306,-24.641949 13.08931,-28.139117 7.92477,-2.353405 16.2151,0.283833 21.66092,6.890554 10.54273,12.790165 1.9848,31.904549 -14.73944,32.920941 -3.23253,0.196452 -6.91009,-0.0831 -8.17235,-0.62123 z"
     id="path4482"
     inkscape:connector-curvature="0" />
  <path
     style="fill:#ff2a2a"
     d="m 259.68872,24.965697 c -2.54344,-3.233458 -2.54344,-6.178105 0,-9.411564 1.54629,-1.96579 2.85728,-2.548553 5.73326,-2.548553 6.63992,0 9.85894,6.715172 5.73327,11.960117 -1.54629,1.96579 -2.85728,2.548553 -5.73327,2.548553 -2.87598,0 -4.18697,-0.582763 -5.73326,-2.548553 z"
     id="path4484"
     inkscape:connector-curvature="0" />
  <path
     style="fill:#ff2a2a"
     d="m 255.95124,89.794113 c -3.97767,-2.028936 -6.65393,-5.375848 -8.06522,-10.086313 -1.73613,-5.794683 -0.34136,-10.472647 4.51089,-15.129198 5.56305,-5.338681 10.92536,-6.334298 17.35422,-3.222143 11.17556,5.409995 12.32395,19.861688 2.1801,27.435159 -3.50787,2.619004 -11.79201,3.138705 -15.97999,1.002495 z"
     id="path4486"
     inkscape:connector-curvature="0" />
  <path
     style="fill:#ff2a2a"
     d="m 346.48633,141.28588 c -2.49524,-0.68362 -6.05751,-2.28495 -7.91615,-3.55851 -2.88113,-1.97418 -3.3719,-2.85474 -3.32886,-5.97284 0.0565,-4.0931 -1.17526,-6.01437 -5.18531,-8.08805 -2.48303,-1.28402 -2.73037,-1.88394 -2.73037,-6.62243 0,-11.25435 9.03186,-22.21486 20.29662,-24.630718 9.80014,-2.101753 21.01712,2.871312 26.47258,11.736658 3.83362,6.22978 4.63747,15.84967 1.85082,22.14934 -5.19831,11.75166 -17.82359,18.17439 -29.45933,14.98655 z"
     id="path4488"
     inkscape:connector-curvature="0" />
  <path
     style="fill:#ff2a2a"
     d="m 388.07681,186.32249 c -3.8676,-2.3436 -3.99877,-4.62254 -0.45712,-7.94221 3.58936,-3.36437 5.71935,-3.60408 8.38032,-0.94311 2.31898,2.31898 2.48255,5.55782 0.42878,8.48999 -1.74706,2.49428 -4.66052,2.63218 -8.35198,0.39533 l 0,0 z"
     id="path4490"
     inkscape:connector-curvature="0" />
  <path
     style="fill:#ff2a2a"
     d=""
     id="path4492"
     inkscape:connector-curvature="0" />
  <path
     style="fill:#ff2a2a"
     d="m 363.18245,293.75968 c -1.82413,-0.93721 -4.15277,-2.84545 -5.17476,-4.24054 -3.68152,-5.02555 -1.36515,-14.39025 3.55946,-14.39025 1.25281,0 2.89217,-0.92524 3.64302,-2.05608 1.82147,-2.74328 6.50275,-1.77007 10.44408,2.17125 9.02399,9.024 -1.25222,24.28004 -12.4718,18.51562 z"
     id="path4494"
     inkscape:connector-curvature="0" />
  <path
     style="fill:#ff2a2a"
     d="m 234.81358,332.1787 c -17.46126,-3.54549 -28.86892,-21.33616 -24.58644,-38.34345 2.52113,-10.0123 11.89271,-19.51348 22.16054,-22.46701 5.75567,-1.65561 15.80243,-0.55513 22.06628,2.41705 13.39091,6.35395 20.28416,23.30922 15.38336,37.8383 -2.24481,6.65506 -12.36627,16.96521 -18.60509,18.95193 -6.44238,2.05156 -11.68794,2.56375 -16.41865,1.60318 z"
     id="path4496"
     inkscape:connector-curvature="0" />
  <path
     style="fill:#ff2a2a"
     d="m 140.84731,346.05823 c -1.79637,-0.88534 -4.27342,-3.4264 -5.68034,-5.82712 -2.05645,-3.50907 -2.41275,-5.11161 -2.02762,-9.11975 0.57397,-5.97346 2.92489,-9.35575 8.53194,-12.27501 7.49181,-3.90055 16.43887,-0.89198 20.39217,6.85712 6.64692,13.02905 -7.85555,26.94953 -21.21615,20.36476 z"
     id="path4498"
     inkscape:connector-curvature="0" />
  <path
     style="fill:#ff2a2a"
     d="m 95.670544,368.95637 c -4.020572,-2.00377 -7.930948,-6.81622 -8.256214,-10.16082 -0.656948,-6.75518 0.123331,-10.18978 3.07995,-13.55718 5.773602,-6.57577 10.71465,-7.69956 18.83052,-4.28279 5.56367,2.34229 7.87192,5.1341 8.92884,10.79936 0.95559,5.12204 0.0782,8.58197 -3.29888,13.0096 -4.6424,6.0865 -12.19042,7.72722 -19.284216,4.19183 z"
     id="path4500"
     inkscape:connector-curvature="0" />
  <path
     style="fill:#ff2a2a"
     d="m 127.38082,360.44366 c -2.79606,-0.42155 -7.04554,-5.51663 -7.04554,-8.44752 0,-3.83494 2.0272,-7.04921 5.47887,-8.68714 3.85663,-1.83009 6.51768,-1.24928 10.23886,2.23475 6.54754,6.13028 0.62731,16.30197 -8.67219,14.89991 z"
     id="path4502"
     inkscape:connector-curvature="0" />
  <path
     style="fill:#ff2a2a"
     d=""
     id="path4504"
     inkscape:connector-curvature="0" />
  <path
     style="fill:#ff2a2a"
     d=""
     id="path4506"
     inkscape:connector-curvature="0" />
  <path
     style="fill:#ff2a2a"
     d="m 179.9084,396.39751 c -0.82042,-2.13799 1.66362,-4.69491 3.77425,-3.88499 0.98185,0.37678 1.47482,1.44875 1.28405,2.79219 -0.38568,2.71611 -4.12535,3.52402 -5.0583,1.0928 z"
     id="path4508"
     inkscape:connector-curvature="0" />
  <path
     style="fill:#ff2a2a"
     d="m 244.57827,387.90324 c -6.63796,-2.89132 -10.38521,-10.79958 -8.22245,-17.3528 3.27416,-9.92082 14.95332,-13.17639 22.7407,-6.33899 6.07548,5.33434 6.79455,13.34219 1.73773,19.35189 -4.41338,5.24499 -10.46739,6.86125 -16.25598,4.3399 z"
     id="path4510"
     inkscape:connector-curvature="0" />
  <path
     style="fill:#ff8080"
     d="m 368.29001,269.23599 c -6.8228,-1.97653 -12.00719,-11.84791 -10.04654,-19.12919 2.07181,-7.69412 7.1682,-11.55672 15.72031,-11.91459 14.24188,-0.59596 21.93532,15.32023 12.70676,26.28775 -4.6004,5.46725 -10.58239,7.01512 -18.38053,4.75603 l 0,0 z"
     id="path4512"
     inkscape:connector-curvature="0" />
  <path
     style="fill:#ff8080"
     d="m 327.26644,339.54325 c -6.2378,-1.62835 -9.96141,-4.61622 -13.00357,-10.43423 -4.98386,-9.53145 -2.45323,-20.33263 6.18642,-26.40481 3.7314,-2.62252 4.87491,-2.91058 11.55409,-2.91058 6.44513,0 7.89818,0.33537 11.13083,2.56908 2.04491,1.41299 4.8741,4.24218 6.28709,6.28709 2.23283,3.23138 2.56908,4.68667 2.56908,11.11897 0,6.76004 -0.26314,7.76519 -3.03868,11.60693 -5.06532,7.01113 -13.68238,10.25666 -21.68526,8.16755 l 0,0 z"
     id="path4514"
     inkscape:connector-curvature="0" />
  <path
     style="fill:#ff8080"
     d="m 313.43305,254.3274 c -4.22458,-4.22458 -1.68098,-10.63397 4.22015,-10.63397 5.90113,0 8.44473,6.40939 4.22015,10.63397 -1.87446,1.87445 -6.56585,1.87445 -8.4403,0 l 0,0 z"
     id="path4516"
     inkscape:connector-curvature="0" />
  <path
     style="fill:#ff8080"
     d="m 236.0116,134.86924 c -12.70997,-4.96324 -18.49857,-19.21419 -12.78692,-31.48007 5.6292,-12.088818 19.31295,-17.226075 31.07399,-11.666035 15.24186,7.205595 18.62184,26.035205 6.79617,37.860885 -6.88493,6.88493 -16.04439,8.81489 -25.08324,5.28522 z"
     id="path4518"
     inkscape:connector-curvature="0" />
  <path
     style="fill:#ff8080"
     d="m 279.40702,119.51889 c -12.57596,-5.71247 -13.42812,-23.002984 -1.43524,-29.121294 8.36843,-4.269254 18.2675,-1.028264 22.29961,7.300969 4.01338,8.290545 0.42432,17.899705 -8.13789,21.787965 -4.99715,2.2693 -7.78626,2.27639 -12.72648,0.0324 l 0,0 z"
     id="path4520"
     inkscape:connector-curvature="0" />
  <path
     style="fill:#ff8080"
     d="m 322.3467,52.851942 c -4.07299,-0.339744 -5.31802,-2.73625 -3.08087,-5.930225 2.53244,-3.615574 8.07736,-2.025382 8.045,2.307176 -0.0232,3.109308 -1.16171,3.940225 -4.96413,3.623049 z"
     id="path4522"
     inkscape:connector-curvature="0" />
  <path
     style="fill:#ff8080"
     d="m 132.4159,99.757488 c -4.07808,-4.078087 -5.32249,-10.475353 -2.93555,-15.091176 3.04783,-5.893856 11.11425,-8.559533 16.97054,-5.608182 3.30232,1.664246 7.81473,10.120792 7.07634,13.261513 -1.62829,6.925853 -6.29431,10.639687 -13.36758,10.639687 -3.8515,0 -5.0286,-0.4867 -7.74375,-3.201842 z"
     id="path4524"
     inkscape:connector-curvature="0" />
  <path
     style="fill:#ff8080"
     d="m 96.637789,120.71606 c -3.541804,-0.82975 -9.616208,-5.69285 -12.563866,-10.05848 -2.641335,-3.91195 -2.912049,-5.03888 -2.912049,-12.122332 0,-7.00354 0.302086,-8.298507 2.927303,-12.548611 7.930428,-12.838992 25.452863,-14.872343 36.132313,-4.192891 10.66052,10.660519 8.64543,28.197684 -4.14893,36.107834 -3.83822,2.37298 -5.86385,2.93612 -11.09775,3.08526 -3.52139,0.10033 -7.273052,-0.0215 -8.337021,-0.27078 z"
     id="path4526"
     inkscape:connector-curvature="0" />
  <path
     style="fill:#ff8080"
     d="m 70.907033,76.565128 c -1.893247,-1.274856 -4.251554,-4.242836 -5.56274,-7.000827 -3.744027,-7.875304 -1.96504,-14.977276 5.066772,-20.227281 3.783073,-2.824472 13.849566,-2.824472 17.63264,0 4.724788,3.527564 6.509303,6.811697 6.924347,12.74323 0.326168,4.661378 0.01575,6.125494 -1.894846,8.936993 -5.302576,7.802927 -15.155163,10.268893 -22.166173,5.547885 l 0,0 z"
     id="path4528"
     inkscape:connector-curvature="0" />
  <path
     style="fill:#ff8080"
     d="m 23.127194,150.20724 c -5.644779,-1.87063 -7.256077,-3.11473 -9.179158,-7.08728 -2.456712,-5.07489 -2.445193,-7.56303 0.05896,-12.73592 2.517194,-5.19983 7.2469,-8.2336 12.971257,-8.32013 3.777666,-0.0571 4.874544,0.45426 8.932902,4.16456 5.304502,4.84958 5.916374,5.92756 6.007823,10.58443 0.196168,9.98945 -9.09097,16.6091 -18.791785,13.39434 z"
     id="path4530"
     inkscape:connector-curvature="0" />
  <path
     style="fill:#ff8080"
     d="m 47.242138,267.33834 c -2.06578,-1.64167 -5.016723,-3.23701 -6.557649,-3.5452 -2.169351,-0.43387 -3.236654,-1.54366 -4.728911,-4.91715 -6.534843,-14.7731 9.386179,-29.47594 24.168975,-22.31971 15.451324,7.47986 11.607512,30.01886 -5.651501,33.13876 -2.945855,0.53252 -4.046828,0.1737 -7.230914,-2.3567 z"
     id="path4532"
     inkscape:connector-curvature="0" />
  <path
     style="fill:#ff8080"
     d="m 28.35736,294.1594 c -2.657564,-1.40197 -5.076495,-3.67854 -6.423311,-6.04528 -7.516575,-13.20874 6.657852,-28.45431 19.99779,-21.50899 6.404975,3.3347 8.278205,6.46729 8.278205,13.8436 0,7.37805 -1.889038,10.53737 -8.241342,13.78324 -5.394008,2.7562 -8.278313,2.74082 -13.611342,-0.0726 l 0,-10e-6 z"
     id="path4534"
     inkscape:connector-curvature="0" />
  <path
     style="fill:#ff0000"
     d="m 109.13683,338.56233 c -4.39477,-1.91364 -8.94115,-7.9404 -9.673374,-12.8232 -0.493615,-3.29166 -0.147078,-5.11033 1.660634,-8.71524 2.69039,-5.36514 5.9861,-8.01057 11.1268,-8.93136 7.84547,-1.40526 13.87078,1.57166 17.57748,8.6845 6.78931,13.02812 -7.13487,27.68834 -20.69154,21.7853 z"
     id="path4536"
     inkscape:connector-curvature="0" />
  <path
     style="fill:#ff0000"
     d="m 156.81734,394.03225 c -13.71475,-3.30758 -21.49555,-16.24766 -17.67402,-29.39328 1.97494,-6.79354 6.39269,-11.83236 12.8952,-14.70808 20.17549,-8.92256 40.09563,11.21609 30.81281,31.15081 -4.6055,9.89025 -15.74549,15.43182 -26.03399,12.95055 z"
     id="path4538"
     inkscape:connector-curvature="0" />
  <path
     style="fill:#ff0000"
     d="m 41.825022,319.10996 c -1.479606,-0.80353 -3.06206,-2.85791 -3.707243,-4.81284 -2.87208,-8.70248 8.158077,-14.81197 14.483607,-8.02231 2.948609,3.16496 2.58105,8.04012 -0.866071,11.48725 -3.103496,3.10349 -5.961754,3.49224 -9.910293,1.3479 l 0,0 z"
     id="path4540"
     inkscape:connector-curvature="0" />
  <path
     style="fill:#ff0000"
     d="m 16.810718,267.02475 c -4.663393,-1.50726 -7.3604358,-6.91768 -5.802129,-11.6394 2.228524,-6.75249 10.490629,-8.63247 15.578364,-3.54474 7.031465,7.03147 -0.208602,18.27651 -9.776235,15.18414 z"
     id="path4542"
     inkscape:connector-curvature="0" />
  <path
     style="fill:#ff0000"
     d="m 8.5870104,206.45672 c -4.705633,-2.32931 -7.2240783,-6.26255 -7.2192064,-11.27476 0.0076,-7.81735 6.2309245,-13.40952 13.759816,-12.36433 6.153957,0.85431 8.248731,2.22964 10.509698,6.90018 3.365659,6.95252 0.578161,14.37573 -6.510438,17.33754 -4.261185,1.78044 -5.924572,1.68596 -10.5398696,-0.59863 l 0,0 z"
     id="path4544"
     inkscape:connector-curvature="0" />
  <path
     style="fill:#ff0000"
     d="m 64.235092,236.4391 -2.418112,-1.89147 3.143546,-0.0215 c 2.505884,-0.0171 3.143545,0.3709 3.143545,1.91298 0,2.40646 -0.792494,2.40646 -3.868979,0 z"
     id="path4546"
     inkscape:connector-curvature="0" />
  <path
     style="fill:#ff0000"
     d="m 59.830188,230.20793 c -2.06144,-3.14615 -1.47486,-6.21613 1.628745,-8.52434 4.107982,-3.05519 9.546872,-0.20539 9.546872,5.00224 0,5.67685 -8.092638,8.22732 -11.175617,3.5221 z"
     id="path4548"
     inkscape:connector-curvature="0" />
  <path
     style="fill:#ff0000"
     d=""
     id="path4550"
     inkscape:connector-curvature="0" />
  <path
     style="fill:#ff0000"
     d="m 47.039906,231.06441 c -1.372888,-0.96161 -2.149707,-2.5095 -2.149707,-4.28351 0,-5.57817 5.658285,-7.93505 9.914258,-4.12964 2.452647,2.19299 2.084019,5.60165 -0.855876,7.91417 -3.052512,2.40111 -4.086397,2.47578 -6.908675,0.49898 z"
     id="path4552"
     inkscape:connector-curvature="0" />
  <path
     style="fill:#ff0000"
     d=""
     id="path4554"
     inkscape:connector-curvature="0" />
  <path
     style="fill:#ff0000"
     d="m 46.464385,129.58935 c -9.280794,-3.30821 -16.09947,-12.91524 -16.061614,-22.62968 0.07071,-18.145423 18.817512,-29.789172 34.861291,-21.65255 19.11475,9.694067 17.31209,37.09781 -2.909678,44.23247 -5.106859,1.8018 -10.923747,1.82002 -15.889999,0.0498 z"
     id="path4556"
     inkscape:connector-curvature="0" />
  <path
     style="fill:#ff0000"
     d="m 53.877311,79.242981 c -3.15224,-1.325417 -4.150889,-3.049144 -4.150889,-7.164673 0,-6.949381 10.50092,-8.775832 13.434765,-2.336743 1.499176,3.290333 1.355567,4.548717 -0.837249,7.336431 -2.430821,3.090288 -4.801088,3.697819 -8.446627,2.164985 z"
     id="path4558"
     inkscape:connector-curvature="0" />
  <path
     style="fill:#ff0000"
     d=""
     id="path4560"
     inkscape:connector-curvature="0" />
  <path
     style="fill:#ff0000"
     d="m 159.32773,35.082284 c -10.93603,-2.912882 -8.40807,-19.440368 2.90578,-18.997636 5.57585,0.218193 9.36574,3.977545 9.36574,9.290268 0,6.830165 -5.81215,11.427862 -12.27152,9.707368 z"
     id="path4562"
     inkscape:connector-curvature="0" />
  <path
     style="fill:#ff0000"
     d="m 239.30638,62.459656 c -1.32996,-0.33452 -3.64562,-1.439996 -5.14591,-2.456611 -1.50028,-1.016615 -4.10528,-2.540025 -5.78889,-3.385356 -6.11108,-3.068351 -9.50001,-12.974143 -7.33229,-21.432166 1.38699,-5.411743 6.7804,-12.507496 9.50682,-12.507496 0.95077,0 2.9737,-0.979335 4.49539,-2.176301 5.02901,-3.955822 19.64632,-1.725382 21.2217,3.238198 0.30634,0.965181 1.83962,2.834151 3.40731,4.153268 3.64007,3.062923 4.96329,6.554691 4.90403,12.941048 -0.0829,8.93197 -5.09452,16.779135 -12.69398,19.87606 -4.40829,1.796461 -9.54546,2.511159 -12.57418,1.749356 z"
     id="path4564"
     inkscape:connector-curvature="0" />
  <path
     style="fill:#ff0000"
     d="m 364.56456,179.52993 c -7.25787,-3.4827 -13.0578,-12.04225 -13.0578,-19.27074 0,-4.14259 2.08651,-9.64853 4.99225,-13.1737 3.3216,-4.02968 12.20798,-8.3381 17.19782,-8.3381 5.35253,0 13.54745,4.56642 16.91527,9.42562 4.81297,6.94431 4.54142,18.3901 -0.59111,24.91505 -5.6733,7.21244 -17.57441,10.22407 -25.45643,6.44187 z"
     id="path4566"
     inkscape:connector-curvature="0" />
  <path
     style="fill:#ff0000"
     d="m 329.34907,164.70738 c -4.73697,-3.25122 -7.01002,-6.75771 -7.50835,-11.58264 -0.53368,-5.16724 1.84613,-10.0246 6.45168,-13.1683 4.0663,-2.77561 5.85806,-2.73767 10.21089,0.21624 1.93907,1.31589 5.01702,2.67232 6.83987,3.01429 1.82286,0.34197 3.76535,1.46459 4.31665,2.4947 1.59092,2.97266 1.26375,9.05118 -0.69992,13.00372 -2.43156,4.89435 -6.04193,7.32744 -11.64794,7.84973 -3.76505,0.35078 -5.30322,-0.002 -7.96288,-1.82774 l 0,0 z"
     id="path4568"
     inkscape:connector-curvature="0" />
  <path
     style="fill:#ff0000"
     d=""
     id="path4570"
     inkscape:connector-curvature="0" />
  <path
     style="fill:#ff0000"
     d="m 285.73412,174.53544 c -3.83103,-3.83104 -1.04568,-10.63969 4.3526,-10.63969 3.10416,0 6.28709,3.18294 6.28709,6.28709 0,3.10415 -3.18293,6.28709 -6.28709,6.28709 -1.32996,0 -3.28863,-0.87052 -4.3526,-1.93449 z"
     id="path4572"
     inkscape:connector-curvature="0" />
  <path
     style="fill:#ff0000"
     d=""
     id="path4574"
     inkscape:connector-curvature="0" />
  <path
     style="fill:#c83737"
     d="m 200.55264,207.43862 c -0.83354,-0.15172 -2.29547,-1.20277 -3.24874,-2.33566 -2.40182,-2.8544 -2.3123,-6.07277 0.24864,-8.93896 2.71361,-3.03706 6.58667,-3.1276 9.61654,-0.2248 4.96663,4.75834 0.35762,12.76885 -6.61644,11.49942 z"
     id="path4576"
     inkscape:connector-curvature="0" />
  <path
     style="fill:#c83737"
     d=""
     id="path4578"
     inkscape:connector-curvature="0" />
  <path
     style="fill:#c83737"
     d="m 317.65492,123.84783 c -7.13124,-2.91876 -3.53939,-13.42319 3.72409,-10.89112 4.87895,1.70081 5.09161,8.58704 0.32667,10.57796 -1.26333,0.52785 -2.38379,0.94022 -2.48991,0.91638 -0.10613,-0.0238 -0.80851,-0.29529 -1.56085,-0.60322 z"
     id="path4580"
     inkscape:connector-curvature="0" />
  <path
     style="fill:#c83737"
     d="m 325.16174,136.53461 c -2.12301,-0.92499 -3.74512,-3.51054 -3.74512,-5.96949 0,-0.76358 0.89965,-2.28797 1.99923,-3.38755 2.80434,-2.80434 6.1274,-2.76346 8.54113,0.10509 2.84754,3.38412 2.16587,7.208 -1.63538,9.17371 -2.3797,1.23059 -2.51049,1.23257 -5.15986,0.0782 l 0,0 z"
     id="path4582"
     inkscape:connector-curvature="0" />
  <path
     style="fill:#c83737"
     d="m 288.60919,81.446841 c -1.12572,-2.103429 0.24528,-4.287711 2.51987,-4.014666 2.2903,0.27493 3.54061,2.165181 2.5153,3.802689 -1.12439,1.795733 -4.12008,1.921849 -5.03517,0.211977 z"
     id="path4584"
     inkscape:connector-curvature="0" />
  <path
     style="fill:#c83737"
     d="m 310.59923,52.964814 c -3.80534,-2.665364 0.65636,-8.990046 4.58633,-6.501344 1.04182,0.659749 1.82854,5.915684 0.95889,6.406171 -1.75858,0.991847 -4.20509,1.033836 -5.54522,0.09517 l 0,0 z"
     id="path4586"
     inkscape:connector-curvature="0" />
  <path
     style="fill:#c83737"
     d=""
     id="path4588"
     inkscape:connector-curvature="0" />
  <path
     style="fill:#c83737"
     d=""
     id="path4590"
     inkscape:connector-curvature="0" />
  <path
     style="fill:#c83737"
     d="m 349.59562,86.858483 c -2.77801,-2.588112 -2.75925,-6.282789 0.0452,-8.895496 3.35014,-3.121137 9.39283,-0.246238 9.39283,4.468782 0,4.752905 -6.04469,7.588054 -9.43799,4.426714 z"
     id="path4592"
     inkscape:connector-curvature="0" />
  <path
     style="fill:#c83737"
     d="m 156.58581,265.58235 c -2.95836,-0.36269 -5.94698,-3.09797 -6.90789,-6.32233 -0.59652,-2.00163 -0.48261,-2.97865 0.65601,-5.62688 0.75783,-1.76257 2.17961,-3.72998 3.15951,-4.37204 1.71508,-1.12376 1.91468,-1.10108 5.34377,0.6073 1.95917,0.97607 4.41664,1.97862 5.46103,2.22789 3.27794,0.78237 4.19184,4.56118 2.14586,8.87276 -1.7705,3.73105 -4.94341,5.21584 -9.85829,4.6133 z"
     id="path4594"
     inkscape:connector-curvature="0" />
  <path
     style="fill:#c83737"
     d="m 142.58544,274.30108 c -2.59219,-2.86435 -0.62966,-7.54606 3.16325,-7.54606 2.35028,0 4.68162,2.1496 4.68162,4.31668 0,3.83627 -5.31542,6.02439 -7.84487,3.22938 z"
     id="path4596"
     inkscape:connector-curvature="0" />
  <path
     style="fill:#c83737"
     d="m 215.97955,395.4143 c -5.52957,-3.50675 -7.46769,-10.21665 -4.70734,-16.29714 0.9428,-2.0768 1.84553,-3.01738 3.22928,-3.36468 1.05636,-0.26513 3.39813,-1.35321 5.20393,-2.41795 3.77809,-2.22763 5.18709,-2.3663 8.42622,-0.82923 3.26169,1.54778 5.02258,3.57365 6.50965,7.48924 2.0541,5.40862 1.42276,9.57864 -2.04904,13.53412 -3.72939,4.24894 -11.49608,5.13051 -16.6127,1.88564 l 0,0 z"
     id="path4598"
     inkscape:connector-curvature="0" />
  <path
     style="fill:#c83737"
     d="m 239.7913,357.42187 c -5.1009,-1.84941 -7.94866,-5.80272 -8.07034,-11.20337 -0.15715,-6.97542 4.16603,-11.58293 11.04196,-11.76818 5.7983,-0.15621 5.95677,-0.11742 8.44452,2.06685 l 2.33662,2.05158 -0.09,7.66204 -0.09,7.66205 -2.73578,1.86457 c -3.40027,2.31745 -7.35896,2.92547 -10.83699,1.66446 z"
     id="path4600"
     inkscape:connector-curvature="0" />
  <path
     style="fill:#c83737"
     d="m 202.25635,324.53582 c -5.60536,-3.12507 -3.62153,-11.95647 2.68583,-11.95647 3.08806,0 4.74193,0.95346 6.05358,3.48992 2.79139,5.39796 -3.43099,11.42606 -8.73941,8.46655 z"
     id="path4602"
     inkscape:connector-curvature="0" />
  <path
     style="fill:#c83737"
     d="m 201.9102,310.05355 c 0.66546,-0.17341 1.58879,-0.16201 2.05184,0.0253 0.46305,0.18735 -0.0814,0.32923 -1.20992,0.31529 -1.12851,-0.0139 -1.50737,-0.16722 -0.84192,-0.34063 z"
     id="path4604"
     inkscape:connector-curvature="0" />
  <path
     style="fill:#c83737"
     d=""
     id="path4606"
     inkscape:connector-curvature="0" />
  <path
     style="fill:#c83737"
     d="m 262.21653,229.29854 c -0.39753,-0.27637 -1.13646,-1.52471 -1.64207,-2.7741 -0.82959,-2.04997 -0.78936,-2.40156 0.41229,-3.60321 1.21944,-1.21943 1.55935,-1.25304 4.03588,-0.399 3.46745,1.19575 3.80423,2.97855 1.02968,5.45069 -2.20004,1.96024 -2.68291,2.12712 -3.83578,1.32562 z"
     id="path4608"
     inkscape:connector-curvature="0" />
  <path
     style="fill:#c83737"
     d="m 200.66919,308.1648 c -2.04291,-2.04292 -1.45614,-4.47841 1.31761,-5.46889 2.63861,-0.94223 5.09351,1.51266 4.15128,4.15128 -0.99048,2.77375 -3.42597,3.36052 -5.46889,1.31761 z"
     id="path4610"
     inkscape:connector-curvature="0" />
  <path
     style="fill:#c83737"
     d=""
     id="path4612"
     inkscape:connector-curvature="0" />
  <path
     style="fill:#c83737"
     d="m 279.13124,184.46652 c -3.06356,-3.26101 -1.07238,-8.22026 3.3005,-8.22026 4.60208,0 6.58075,5.55768 2.98552,8.38569 -2.35174,1.84988 -4.44448,1.7948 -6.28602,-0.16543 l 0,0 z"
     id="path4614"
     inkscape:connector-curvature="0" />
  <path
     style="fill:#c83737"
     d="m 77.932107,357.03579 c -1.908781,-1.90878 -1.731455,-4.40235 0.434209,-6.10586 0.991154,-0.77965 2.18075,-1.41753 2.643545,-1.41753 1.647895,0 4.445644,2.82898 4.445644,4.49528 0,2.15137 -2.269986,4.396 -4.445644,4.396 -0.940425,0 -2.325414,-0.61555 -3.077754,-1.36789 z"
     id="path4616"
     inkscape:connector-curvature="0" />
  <path
     style="fill:#c83737"
     d=""
     id="path4618"
     inkscape:connector-curvature="0" />
  <path
     style="fill:#c83737"
     d=""
     id="path4620"
     inkscape:connector-curvature="0" />
  <path
     style="fill:#c83737"
     d="m 189.60663,380.91362 c -2.97729,-1.1068 -2.60676,-6.1375 0.52526,-7.13157 1.92869,-0.61214 4.75486,1.35832 4.75486,3.31517 0,2.97585 -2.56128,4.82711 -5.28012,3.8164 z"
     id="path4622"
     inkscape:connector-curvature="0" />
  <path
     style="fill:#c83737"
     d="m 232.26777,363.99238 c -2.9944,-3.30878 0.52835,-7.90156 4.4895,-5.85317 1.39768,0.72277 1.90198,1.49481 1.90198,2.91182 0,3.62033 -4.07845,5.49723 -6.39148,2.94135 z"
     id="path4624"
     inkscape:connector-curvature="0" />
  <path
     style="fill:#c83737"
     d="m 244.13804,392.95163 c -1.10804,-1.33511 -0.332,-3.35744 1.08039,-2.81545 0.59185,0.22711 1.35869,0.41293 1.7041,0.41293 1.075,0 0.6873,2.56668 -0.45385,3.00458 -1.42867,0.54823 -1.36161,0.56555 -2.33064,-0.60206 z"
     id="path4626"
     inkscape:connector-curvature="0" />
  <path
     style="fill:#c83737"
     d=""
     id="path4628"
     inkscape:connector-curvature="0" />
  <path
     style="fill:#c83737"
     d="m 238.11209,394.51599 c -2.02602,-2.02601 0.0889,-5.02233 2.48026,-3.5139 1.55495,0.98083 1.69181,1.9799 0.44238,3.22933 -1.32087,1.32087 -1.83617,1.37105 -2.92264,0.28457 z"
     id="path4630"
     inkscape:connector-curvature="0" />
  <path
     style="fill:#c83737"
     d="m 364.50517,270.51672 c 0,-0.42763 1.11114,-0.61413 2.73579,-0.4592 1.50467,0.1435 2.73578,0.35013 2.73578,0.4592 0,0.10906 -1.23111,0.3157 -2.73578,0.45919 -1.62465,0.15494 -2.73579,-0.0316 -2.73579,-0.45919 z"
     id="path4632"
     inkscape:connector-curvature="0" />
  <path
     style="fill:#c83737"
     d="m 359.04098,272.57743 c -0.49306,-0.5941 -0.66034,-1.74905 -0.40225,-2.77736 0.37629,-1.49924 0.76803,-1.7288 2.64117,-1.54776 1.69737,0.16405 2.25037,0.5724 2.42284,1.78909 0.42676,3.01039 -2.80774,4.76998 -4.66176,2.53603 z"
     id="path4634"
     inkscape:connector-curvature="0" />
  <path
     style="fill:#c83737"
     d=""
     id="path4636"
     inkscape:connector-curvature="0" />
  <path
     style="fill:#c83737"
     d=""
     id="path4638"
     inkscape:connector-curvature="0" />
  <path
     style="fill:#c83737"
     d="m 199.37117,93.564684 c -1.37165,-1.958308 -1.34115,-2.774595 0.17354,-4.645158 2.42617,-2.996201 6.96911,-1.37605 6.96911,2.4854 0,3.547147 -5.09236,5.086949 -7.14265,2.159758 z"
     id="path4640"
     inkscape:connector-curvature="0" />
  <path
     style="fill:#c83737"
     d="m 163.47491,44.038597 c -1.80694,-2.29715 -1.78238,-2.682851 0.30372,-4.768944 1.25544,-1.255449 2.13461,-1.598522 3.24874,-1.267741 3.26434,0.969179 4.18487,4.155481 1.86946,6.470894 -1.86599,1.865985 -3.73001,1.716706 -5.42192,-0.434209 z"
     id="path4642"
     inkscape:connector-curvature="0" />
  <path
     style="fill:#c83737"
     d="m 159.37123,12.577115 c -1.82213,-2.316471 -1.79083,-3.8616201 0.12135,-5.989992 3.18563,-3.5458032 8.7203,-1.6327158 8.7203,3.014219 0,4.340258 -6.14224,6.407511 -8.84165,2.975773 z"
     id="path4644"
     inkscape:connector-curvature="0" />
  <path
     style="fill:#c83737"
     d="m 224.58258,20.556025 c -2.03342,-0.822605 -4.88005,-4.421628 -5.41166,-6.842004 -0.99929,-4.5497381 2.66628,-9.7546006 7.50967,-10.6632261 4.89958,-0.9191661 10.61357,4.039941 10.60821,9.2067411 -0.007,6.302122 -6.75163,10.707371 -12.70622,8.298489 z"
     id="path4646"
     inkscape:connector-curvature="0" />
  <path
     style="fill:#c83737"
     d="m 275.72908,24.501604 c -1.22648,-1.226478 -0.99036,-4.285316 0.43002,-5.570742 2.68315,-2.428212 7.3432,-0.374597 6.84056,3.014528 -0.16923,1.141093 -0.99843,1.753469 -3.3037,2.439827 -1.69276,0.503996 -3.09314,0.921028 -3.11195,0.926739 -0.0188,0.0057 -0.40353,-0.358948 -0.85493,-0.810352 z"
     id="path4648"
     inkscape:connector-curvature="0" />
  <path
     style="fill:#c83737"
     d="m 315.89748,43.389558 c -1.13269,-1.364811 -0.0443,-3.362396 1.83198,-3.362396 2.37458,0 1.87743,4.377069 -0.50375,4.435171 -0.23607,0.0058 -0.83377,-0.476988 -1.32823,-1.072775 z"
     id="path4650"
     inkscape:connector-curvature="0" />
  <path
     style="fill:#c83737"
     d=""
     id="path4652"
     inkscape:connector-curvature="0" />
  <path
     style="fill:#c83737"
     d="m 84.821201,44.038597 c -0.779642,-0.991154 -1.417532,-2.334637 -1.417532,-2.985517 0,-2.07262 2.675539,-4.787617 4.718037,-4.787617 4.109966,0 6.332793,5.411439 3.360341,8.1807 -2.112077,1.9677 -4.927994,1.795399 -6.660846,-0.407566 z"
     id="path4654"
     inkscape:connector-curvature="0" />
  <path
     style="fill:#c83737"
     d="m 43.431598,81.558568 c -0.849738,-0.849738 -0.300578,-4.116892 0.870059,-5.176304 1.848141,-1.672544 3.02306,-1.380397 4.668215,1.160768 l 1.473329,2.275756 -3.315452,1.060239 c -1.823499,0.583132 -3.486767,0.888925 -3.696151,0.679541 z"
     id="path4656"
     inkscape:connector-curvature="0" />
</svg>
