<?xml version="1.0" encoding="UTF-8" standalone="no"?>
<svg
   xmlns:dc="http://purl.org/dc/elements/1.1/"
   xmlns:cc="http://creativecommons.org/ns#"
   xmlns:rdf="http://www.w3.org/1999/02/22-rdf-syntax-ns#"
   xmlns:svg="http://www.w3.org/2000/svg"
   xmlns="http://www.w3.org/2000/svg"
   xmlns:sodipodi="http://sodipodi.sourceforge.net/DTD/sodipodi-0.dtd"
   xmlns:inkscape="http://www.inkscape.org/namespaces/inkscape"
   id="svg3257"
   version="1.1"
   inkscape:version="0.48.2 r9819"
   width="400.25775"
   height="398.94669"
   sodipodi:docname="IshiharaPlate2.svg">
  <metadata
     id="metadata3489">
    <rdf:RDF>
      <cc:Work
         rdf:about="">
        <dc:format>image/svg+xml</dc:format>
        <dc:type
           rdf:resource="http://purl.org/dc/dcmitype/StillImage" />
        <dc:title></dc:title>
      </cc:Work>
    </rdf:RDF>
  </metadata>
  <defs
     id="defs3487" />
  <sodipodi:namedview
     pagecolor="#ffffff"
     bordercolor="#666666"
     borderopacity="1"
     objecttolerance="10"
     gridtolerance="10"
     guidetolerance="10"
     inkscape:pageopacity="0"
     inkscape:pageshadow="2"
     inkscape:window-width="1081"
     inkscape:window-height="756"
     id="namedview3485"
     showgrid="false"
     inkscape:zoom="0.73105265"
     inkscape:cx="174.40183"
     inkscape:cy="165.52338"
     inkscape:window-x="46"
     inkscape:window-y="11"
     inkscape:window-maximized="0"
     inkscape:current-layer="svg3257"
     fit-margin-left="-0.4"
     fit-margin-top="0"
     fit-margin-right="0"
     fit-margin-bottom="0" />
  <circle
     cx="263.97162"
     cy="225.52974"
     r="5.0934353"
     style="fill:#ffffff;stroke:#ff3371"
     id="circle3259"
     sodipodi:cx="263.97162"
     sodipodi:cy="225.52974"
     sodipodi:rx="5.0934353"
     sodipodi:ry="5.0934353"
     transform="translate(0.03343735,-0.77592278)" />
  <circle
     cx="191.15228"
     cy="377.49133"
     r="4.7543249"
     style="fill:#ffffff;stroke:#ff3371"
     id="circle3261"
     sodipodi:cx="191.15228"
     sodipodi:cy="377.49133"
     sodipodi:rx="4.7543249"
     sodipodi:ry="4.7543249"
     transform="translate(0.03343735,-0.77592278)" />
  <circle
     cx="88.307655"
     cy="41.064671"
     r="5.7434192"
     style="fill:#ffffff;stroke:#ff3371"
     id="circle3263"
     sodipodi:cx="88.307655"
     sodipodi:cy="41.064671"
     sodipodi:rx="5.7434192"
     sodipodi:ry="5.7434192"
     transform="translate(0.03343735,-0.77592278)" />
  <circle
     cx="244.96104"
     cy="11.091709"
     r="5.8149376"
     style="fill:#ffffff;stroke:#ff3371"
     id="circle3265"
     sodipodi:cx="244.96104"
     sodipodi:cy="11.091709"
     sodipodi:rx="5.8149376"
     sodipodi:ry="5.8149376"
     transform="translate(0.03343735,-0.77592278)" />
  <circle
     cx="166.30411"
     cy="41.796776"
     r="4.8541913"
     style="fill:#ffffff;stroke:#ff3371"
     id="circle3267"
     sodipodi:cx="166.30411"
     sodipodi:cy="41.796776"
     sodipodi:rx="4.8541913"
     sodipodi:ry="4.8541913"
     transform="translate(0.03343735,-0.77592278)" />
  <circle
     cx="46.757469"
     cy="79.198341"
     r="4.8684721"
     style="fill:#ffffff;stroke:#ff3371"
     id="circle3269"
     sodipodi:cx="46.757469"
     sodipodi:cy="79.198341"
     sodipodi:rx="4.8684721"
     sodipodi:ry="4.8684721"
     transform="translate(0.03343735,-0.77592278)" />
  <circle
     cx="313.11362"
     cy="49.959988"
     r="4.9573665"
     style="fill:#ffffff;stroke:#ff3371"
     id="circle3271"
     sodipodi:cx="313.11362"
     sodipodi:cy="49.959988"
     sodipodi:rx="4.9573665"
     sodipodi:ry="4.9573665"
     transform="translate(0.03343735,-0.77592278)" />
  <circle
     cx="279.02286"
     cy="21.964231"
     r="5.2146144"
     style="fill:#ffffff;stroke:#ff3371"
     id="circle3273"
     sodipodi:cx="279.02286"
     sodipodi:cy="21.964231"
     sodipodi:rx="5.2146144"
     sodipodi:ry="5.2146144"
     transform="translate(0.03343735,-0.77592278)" />
  <circle
     cx="174.3602"
     cy="7.2255654"
     r="5.5279408"
     style="fill:#ffffff;stroke:#ff3371"
     id="circle3275"
     sodipodi:cx="174.3602"
     sodipodi:cy="7.2255654"
     sodipodi:rx="5.5279408"
     sodipodi:ry="5.5279408"
     transform="translate(0.03343735,-0.77592278)" />
  <circle
     cx="245.65399"
     cy="391.62683"
     r="3.0098379"
     style="fill:#ffffff;stroke:#ff3371"
     id="circle3277"
     sodipodi:cx="245.65399"
     sodipodi:cy="391.62683"
     sodipodi:rx="3.0098379"
     sodipodi:ry="3.0098379"
     transform="translate(0.03343735,-0.77592278)" />
  <circle
     cx="282.41077"
     cy="180.99962"
     r="5.9096937"
     style="fill:#ffffff;stroke:#ff3371"
     id="circle3279"
     sodipodi:cx="282.41077"
     sodipodi:cy="180.99962"
     sodipodi:rx="5.9096937"
     sodipodi:ry="5.9096937"
     transform="translate(0.03343735,-0.77592278)" />
  <circle
     cx="234.97517"
     cy="361.36136"
     r="4.8854256"
     style="fill:#ffffff;stroke:#ff3371"
     id="circle3281"
     sodipodi:cx="234.97517"
     sodipodi:cy="361.36136"
     sodipodi:rx="4.8854256"
     sodipodi:ry="4.8854256"
     transform="translate(0.03343735,-0.77592278)" />
  <circle
     cx="239.47366"
     cy="392.69504"
     r="3.3034165"
     style="fill:#ffffff;stroke:#ff3371"
     id="circle3283"
     sodipodi:cx="239.47366"
     sodipodi:cy="392.69504"
     sodipodi:rx="3.3034165"
     sodipodi:ry="3.3034165"
     transform="translate(0.03343735,-0.77592278)" />
  <circle
     cx="299.36917"
     cy="142.02037"
     r="22.784246"
     style="fill:#ffffff;stroke:#ff3371"
     id="circle3285"
     sodipodi:cx="299.36917"
     sodipodi:cy="142.02037"
     sodipodi:rx="22.784246"
     sodipodi:ry="22.784246"
     transform="translate(0.03343735,-0.77592278)" />
  <circle
     cx="194.09109"
     cy="390.50192"
     r="8.5081635"
     style="fill:#ffffff;stroke:#ff3371"
     id="circle3287"
     sodipodi:cx="194.09109"
     sodipodi:cy="390.50192"
     sodipodi:rx="8.5081635"
     sodipodi:ry="8.5081635"
     transform="translate(0.03343735,-0.77592278)" />
  <circle
     cx="284.50455"
     cy="248.10117"
     r="26.620262"
     style="fill:#ffffff;stroke:#ff3371"
     id="circle3289"
     sodipodi:cx="284.50455"
     sodipodi:cy="248.10117"
     sodipodi:rx="26.620262"
     sodipodi:ry="26.620262"
     transform="translate(0.03343735,-0.77592278)" />
  <circle
     cx="102.85767"
     cy="354.89059"
     r="17.1675"
     style="fill:#ffffff;stroke:#ff3371"
     id="circle3291"
     sodipodi:cx="102.85767"
     sodipodi:cy="354.89059"
     sodipodi:rx="17.1675"
     sodipodi:ry="17.1675"
     transform="translate(0.03343735,-0.77592278)" />
  <circle
     cx="223.02202"
     cy="384.54382"
     r="14.025712"
     style="fill:#ffffff;stroke:#ff3371"
     id="circle3293"
     sodipodi:cx="223.02202"
     sodipodi:cy="384.54382"
     sodipodi:rx="14.025712"
     sodipodi:ry="14.025712"
     transform="translate(0.03343735,-0.77592278)" />
  <circle
     cx="337.2359"
     cy="235.2812"
     r="17.167561"
     style="fill:#ffffff;stroke:#ff3371"
     id="circle3295"
     sodipodi:cx="337.2359"
     sodipodi:cy="235.2812"
     sodipodi:rx="17.167561"
     sodipodi:ry="17.167561"
     transform="translate(0.03343735,-0.77592278)" />
  <circle
     cx="334.3573"
     cy="275.57635"
     r="23.636555"
     style="fill:#ffffff;stroke:#ff3371"
     id="circle3297"
     sodipodi:cx="334.3573"
     sodipodi:cy="275.57635"
     sodipodi:rx="23.636555"
     sodipodi:ry="23.636555"
     transform="translate(0.03343735,-0.77592278)" />
  <circle
     cx="243.64938"
     cy="345.91101"
     r="13.123549"
     style="fill:#ffffff;stroke:#ff3371"
     id="circle3299"
     sodipodi:cx="243.64938"
     sodipodi:cy="345.91101"
     sodipodi:rx="13.123549"
     sodipodi:ry="13.123549"
     transform="translate(0.03343735,-0.77592278)" />
  <circle
     cx="374.21176"
     cy="254.07932"
     r="17.587536"
     style="fill:#ffffff;stroke:#ff3371"
     id="circle3301"
     sodipodi:cx="374.21176"
     sodipodi:cy="254.07932"
     sodipodi:rx="17.587536"
     sodipodi:ry="17.587536"
     transform="translate(0.03343735,-0.77592278)" />
  <circle
     cx="240.44293"
     cy="301.49881"
     r="32.331276"
     style="fill:#ffffff;stroke:#ff3371"
     id="circle3303"
     sodipodi:cx="240.44293"
     sodipodi:cy="301.49881"
     sodipodi:rx="32.331276"
     sodipodi:ry="32.331276"
     transform="translate(0.03343735,-0.77592278)" />
  <circle
     cx="125.82495"
     cy="372.42426"
     r="12.297949"
     style="fill:#ffffff;stroke:#ff3371"
     id="circle3305"
     sodipodi:cx="125.82495"
     sodipodi:cy="372.42426"
     sodipodi:rx="12.297949"
     sodipodi:ry="12.297949"
     transform="translate(0.03343735,-0.77592278)" />
  <circle
     cx="249.8699"
     cy="374.69687"
     r="15.351276"
     style="fill:#ffffff;stroke:#ff3371"
     id="circle3307"
     sodipodi:cx="249.8699"
     sodipodi:cy="374.69687"
     sodipodi:rx="15.351276"
     sodipodi:ry="15.351276"
     transform="translate(0.03343735,-0.77592278)" />
  <circle
     cx="115.60125"
     cy="323.72812"
     r="17.300413"
     style="fill:#ffffff;stroke:#ff3371"
     id="circle3309"
     sodipodi:cx="115.60125"
     sodipodi:cy="323.72812"
     sodipodi:rx="17.300413"
     sodipodi:ry="17.300413"
     transform="translate(0.03343735,-0.77592278)" />
  <circle
     cx="108.73363"
     cy="283.03394"
     r="24.446426"
     style="fill:#ffffff;stroke:#ff3371"
     id="circle3311"
     sodipodi:cx="108.73363"
     sodipodi:cy="283.03394"
     sodipodi:rx="24.446426"
     sodipodi:ry="24.446426"
     transform="translate(0.03343735,-0.77592278)" />
  <circle
     cx="206.10922"
     cy="351.19696"
     r="25.24003"
     style="fill:#ffffff;stroke:#ff3371"
     id="circle3313"
     sodipodi:cx="206.10922"
     sodipodi:cy="351.19696"
     sodipodi:rx="25.24003"
     sodipodi:ry="25.24003"
     transform="translate(0.03343735,-0.77592278)" />
  <circle
     cx="161.72226"
     cy="371.0358"
     r="24.733253"
     style="fill:#ffffff;stroke:#ff3371"
     id="circle3315"
     sodipodi:cx="161.72226"
     sodipodi:cy="371.0358"
     sodipodi:rx="24.733253"
     sodipodi:ry="24.733253"
     transform="translate(0.03343735,-0.77592278)" />
  <circle
     cx="188.51411"
     cy="275.5047"
     r="25.917379"
     style="fill:#ffffff;stroke:#ff3371"
     id="circle3317"
     sodipodi:cx="188.51411"
     sodipodi:cy="275.5047"
     sodipodi:rx="25.917379"
     sodipodi:ry="25.917379"
     transform="translate(0.03343735,-0.77592278)" />
  <circle
     cx="332.06808"
     cy="319.69382"
     r="21.762545"
     style="fill:#ffffff;stroke:#ff3371"
     id="circle3319"
     sodipodi:cx="332.06808"
     sodipodi:cy="319.69382"
     sodipodi:rx="21.762545"
     sodipodi:ry="21.762545"
     transform="translate(0.03343735,-0.77592278)" />
  <circle
     cx="318.75293"
     cy="193.46938"
     r="29.438988"
     style="fill:#ffffff;stroke:#ff3371"
     id="circle3321"
     sodipodi:cx="318.75293"
     sodipodi:cy="193.46938"
     sodipodi:rx="29.438988"
     sodipodi:ry="29.438988"
     transform="translate(0.03343735,-0.77592278)" />
  <circle
     cx="117.59726"
     cy="193.70435"
     r="32.197701"
     style="fill:#ffffff;stroke:#ff3371"
     id="circle3323"
     sodipodi:cx="117.59726"
     sodipodi:cy="193.70435"
     sodipodi:rx="32.197701"
     sodipodi:ry="32.197701"
     transform="translate(0.03343735,-0.77592278)" />
  <circle
     cx="205.32507"
     cy="318.86209"
     r="7.4804883"
     style="fill:#ffffff;stroke:#ff3371"
     id="circle3325"
     sodipodi:cx="205.32507"
     sodipodi:cy="318.86209"
     sodipodi:rx="7.4804883"
     sodipodi:ry="7.4804883"
     transform="translate(0.03343735,-0.77592278)" />
  <circle
     cx="182.55893"
     cy="395.25714"
     r="3.9654591"
     style="fill:#ffffff;stroke:#ff3371"
     id="circle3327"
     sodipodi:cx="182.55893"
     sodipodi:cy="395.25714"
     sodipodi:rx="3.9654591"
     sodipodi:ry="3.9654591"
     transform="translate(0.03343735,-0.77592278)" />
  <circle
     cx="353.29349"
     cy="82.411011"
     r="6.8004694"
     style="fill:#ffffff;stroke:#ff3371"
     id="circle3329"
     sodipodi:cx="353.29349"
     sodipodi:cy="82.411011"
     sodipodi:rx="6.8004694"
     sodipodi:ry="6.8004694"
     transform="translate(0.03343735,-0.77592278)" />
  <circle
     cx="285.78787"
     cy="344.78629"
     r="31.706718"
     style="fill:#ffffff;stroke:#ff3371"
     id="circle3331"
     sodipodi:cx="285.78787"
     sodipodi:cy="344.78629"
     sodipodi:rx="31.706718"
     sodipodi:ry="31.706718"
     transform="translate(0.03343735,-0.77592278)" />
  <circle
     cx="367.6405"
     cy="283.27185"
     r="12.816823"
     style="fill:#ffffff;stroke:#ff3371"
     id="circle3333"
     sodipodi:cx="367.6405"
     sodipodi:cy="283.27185"
     sodipodi:rx="12.816823"
     sodipodi:ry="12.816823"
     transform="translate(0.03343735,-0.77592278)" />
  <circle
     cx="179.47137"
     cy="317.76501"
     r="18.615368"
     style="fill:#ffffff;stroke:#ff3371"
     id="circle3335"
     sodipodi:cx="179.47137"
     sodipodi:cy="317.76501"
     sodipodi:rx="18.615368"
     sodipodi:ry="18.615368"
     transform="translate(0.03343735,-0.77592278)" />
  <circle
     cx="56.628571"
     cy="190.35886"
     r="29.763412"
     style="fill:#ffffff;stroke:#ff3371"
     id="circle3337"
     sodipodi:cx="56.628571"
     sodipodi:cy="190.35886"
     sodipodi:rx="29.763412"
     sodipodi:ry="29.763412"
     transform="translate(0.03343735,-0.77592278)" />
  <circle
     cx="202.85741"
     cy="305.94122"
     r="4.4627972"
     style="fill:#ffffff;stroke:#ff3371"
     id="circle3339"
     sodipodi:cx="202.85741"
     sodipodi:cy="305.94122"
     sodipodi:rx="4.4627972"
     sodipodi:ry="4.4627972"
     transform="translate(0.03343735,-0.77592278)" />
  <circle
     cx="317.66141"
     cy="249.62531"
     r="7.5323176"
     style="fill:#ffffff;stroke:#ff3371"
     id="circle3341"
     sodipodi:cx="317.66141"
     sodipodi:cy="249.62531"
     sodipodi:rx="7.5323176"
     sodipodi:ry="7.5323176"
     transform="translate(0.03343735,-0.77592278)" />
  <circle
     cx="247.82722"
     cy="232.69965"
     r="13.376275"
     style="fill:#ffffff;stroke:#ff3371"
     id="circle3343"
     sodipodi:cx="247.82722"
     sodipodi:cy="232.69965"
     sodipodi:rx="13.376275"
     sodipodi:ry="13.376275"
     transform="translate(0.03343735,-0.77592278)" />
  <circle
     cx="361.12222"
     cy="270.64197"
     r="3.7476838"
     style="fill:#ffffff;stroke:#ff3371"
     id="circle3345"
     sodipodi:cx="361.12222"
     sodipodi:cy="270.64197"
     sodipodi:rx="3.7476838"
     sodipodi:ry="3.7476838"
     transform="translate(0.03343735,-0.77592278)" />
  <circle
     cx="322.83908"
     cy="49.594727"
     r="5.8063107"
     style="fill:#ffffff;stroke:#ff3371"
     id="circle3347"
     sodipodi:cx="322.83908"
     sodipodi:cy="49.594727"
     sodipodi:rx="5.8063107"
     sodipodi:ry="5.8063107"
     transform="translate(0.03343735,-0.77592278)" />
  <circle
     cx="359.50153"
     cy="304.0784"
     r="9.5451412"
     style="fill:#ffffff;stroke:#ff3371"
     id="circle3349"
     sodipodi:cx="359.50153"
     sodipodi:cy="304.0784"
     sodipodi:rx="9.5451412"
     sodipodi:ry="9.5451412"
     transform="translate(0.03343735,-0.77592278)" />
  <circle
     cx="46.084431"
     cy="311.79626"
     r="9.7674961"
     style="fill:#ffffff;stroke:#ff3371"
     id="circle3351"
     sodipodi:cx="46.084431"
     sodipodi:cy="311.79626"
     sodipodi:rx="9.7674961"
     sodipodi:ry="9.7674961"
     transform="translate(0.03343735,-0.77592278)" />
  <circle
     cx="145.74599"
     cy="271.1398"
     r="5.5282855"
     style="fill:#ffffff;stroke:#ff3371"
     id="circle3353"
     sodipodi:cx="145.74599"
     sodipodi:cy="271.1398"
     sodipodi:rx="5.5282855"
     sodipodi:ry="5.5282855"
     transform="translate(0.03343735,-0.77592278)" />
  <circle
     cx="336.30411"
     cy="152.06294"
     r="15.780808"
     style="fill:#ffffff;stroke:#ff3371"
     id="circle3355"
     sodipodi:cx="336.30411"
     sodipodi:cy="152.06294"
     sodipodi:rx="15.780808"
     sodipodi:ry="15.780808"
     transform="translate(0.03343735,-0.77592278)" />
  <circle
     cx="162.00726"
     cy="25.69208"
     r="11.135001"
     style="fill:#ffffff;stroke:#ff3371"
     id="circle3357"
     sodipodi:cx="162.00726"
     sodipodi:cy="25.69208"
     sodipodi:rx="11.135001"
     sodipodi:ry="11.135001"
     transform="translate(0.03343735,-0.77592278)" />
  <circle
     cx="129.59033"
     cy="351.49191"
     r="10.410685"
     style="fill:#ffffff;stroke:#ff3371"
     id="circle3359"
     sodipodi:cx="129.59033"
     sodipodi:cy="351.49191"
     sodipodi:rx="10.410685"
     sodipodi:ry="10.410685"
     transform="translate(0.03343735,-0.77592278)" />
  <circle
     cx="75.634186"
     cy="327.10538"
     r="22.172459"
     style="fill:#ffffff;stroke:#ff3371"
     id="circle3361"
     sodipodi:cx="75.634186"
     sodipodi:cy="327.10538"
     sodipodi:rx="22.172459"
     sodipodi:ry="22.172459"
     transform="translate(0.03343735,-0.77592278)" />
  <circle
     cx="317.4212"
     cy="41.978954"
     r="3.1284969"
     style="fill:#ffffff;stroke:#ff3371"
     id="circle3363"
     sodipodi:cx="317.4212"
     sodipodi:cy="41.978954"
     sodipodi:rx="3.1284969"
     sodipodi:ry="3.1284969"
     transform="translate(0.03343735,-0.77592278)" />
  <circle
     cx="23.28381"
     cy="226.97768"
     r="21.236448"
     style="fill:#ffffff;stroke:#ff3371"
     id="circle3365"
     sodipodi:cx="23.28381"
     sodipodi:cy="226.97768"
     sodipodi:rx="21.236448"
     sodipodi:ry="21.236448"
     transform="translate(0.03343735,-0.77592278)" />
  <circle
     cx="14.159306"
     cy="195.02562"
     r="14.092743"
     style="fill:#ffffff;stroke:#ff3371"
     id="circle3367"
     sodipodi:cx="14.159306"
     sodipodi:cy="195.02562"
     sodipodi:rx="14.092743"
     sodipodi:ry="14.092743"
     transform="translate(0.03343735,-0.77592278)" />
  <circle
     cx="89.982262"
     cy="239.89429"
     r="21.535212"
     style="fill:#ffffff;stroke:#ff3371"
     id="circle3369"
     sodipodi:cx="89.982262"
     sodipodi:cy="239.89429"
     sodipodi:rx="21.535212"
     sodipodi:ry="21.535212"
     transform="translate(0.03343735,-0.77592278)" />
  <circle
     cx="79.265701"
     cy="62.878181"
     r="17.300343"
     style="fill:#ffffff;stroke:#ff3371"
     id="circle3371"
     sodipodi:cx="79.265701"
     sodipodi:cy="62.878181"
     sodipodi:rx="17.300343"
     sodipodi:ry="17.300343"
     transform="translate(0.03343735,-0.77592278)" />
  <circle
     cx="158.37471"
     cy="256.98923"
     r="10.000329"
     style="fill:#ffffff;stroke:#ff3371"
     id="circle3373"
     sodipodi:cx="158.37471"
     sodipodi:cy="256.98923"
     sodipodi:rx="10.000329"
     sodipodi:ry="10.000329"
     transform="translate(0.03343735,-0.77592278)" />
  <circle
     cx="294.19623"
     cy="296.23209"
     r="22.058456"
     style="fill:#ffffff;stroke:#ff3371"
     id="circle3375"
     sodipodi:cx="294.19623"
     sodipodi:cy="296.23209"
     sodipodi:rx="22.058456"
     sodipodi:ry="22.058456"
     transform="translate(0.03343735,-0.77592278)" />
  <circle
     cx="391.4599"
     cy="181.87433"
     r="7.6840425"
     style="fill:#ffffff;stroke:#ff3371"
     id="circle3377"
     sodipodi:cx="391.4599"
     sodipodi:cy="181.87433"
     sodipodi:rx="7.6840425"
     sodipodi:ry="7.6840425"
     transform="translate(0.03343735,-0.77592278)" />
  <circle
     cx="373.04926"
     cy="160.06219"
     r="22.40192"
     style="fill:#ffffff;stroke:#ff3371"
     id="circle3379"
     sodipodi:cx="373.04926"
     sodipodi:cy="160.06219"
     sodipodi:rx="22.40192"
     sodipodi:ry="22.40192"
     transform="translate(0.03343735,-0.77592278)" />
  <circle
     cx="50.451874"
     cy="226.38026"
     r="6.9899449"
     style="fill:#ffffff;stroke:#ff3371"
     id="circle3381"
     sodipodi:cx="50.451874"
     sodipodi:cy="226.38026"
     sodipodi:rx="6.9899449"
     sodipodi:ry="6.9899449"
     transform="translate(0.03343735,-0.77592278)" />
  <circle
     cx="242.58055"
     cy="40.465515"
     r="23.482124"
     style="fill:#ffffff;stroke:#ff3371"
     id="circle3383"
     sodipodi:cx="242.58055"
     sodipodi:cy="40.465515"
     sodipodi:rx="23.482124"
     sodipodi:ry="23.482124"
     transform="translate(0.03343735,-0.77592278)" />
  <circle
     cx="148.25359"
     cy="14.065939"
     r="6.9995704"
     style="fill:#ffffff;stroke:#ff3371"
     id="circle3385"
     sodipodi:cx="148.25359"
     sodipodi:cy="14.065939"
     sodipodi:rx="6.9995704"
     sodipodi:ry="6.9995704"
     transform="translate(0.03343735,-0.77592278)" />
  <circle
     cx="319.9162"
     cy="79.075111"
     r="25.534161"
     style="fill:#ffffff;stroke:#ff3371"
     id="circle3387"
     sodipodi:cx="319.9162"
     sodipodi:cy="79.075111"
     sodipodi:rx="25.534161"
     sodipodi:ry="25.534161"
     transform="translate(0.03343735,-0.77592278)" />
  <circle
     cx="148.28365"
     cy="332.52301"
     r="16.607807"
     style="fill:#ffffff;stroke:#ff3371"
     id="circle3389"
     sodipodi:cx="148.28365"
     sodipodi:cy="332.52301"
     sodipodi:rx="16.607807"
     sodipodi:ry="16.607807"
     transform="translate(0.03343735,-0.77592278)" />
  <circle
     cx="148.94524"
     cy="296.47867"
     r="19.122843"
     style="fill:#ffffff;stroke:#ff3371"
     id="circle3391"
     sodipodi:cx="148.94524"
     sodipodi:cy="296.47867"
     sodipodi:rx="19.122843"
     sodipodi:ry="19.122843"
     transform="translate(0.03343735,-0.77592278)" />
  <circle
     cx="27.195223"
     cy="136.74551"
     r="15.982009"
     style="fill:#ffffff;stroke:#ff3371"
     id="circle3393"
     sodipodi:cx="27.195223"
     sodipodi:cy="136.74551"
     sodipodi:rx="15.982009"
     sodipodi:ry="15.982009"
     transform="translate(0.03343735,-0.77592278)" />
  <circle
     cx="246.38477"
     cy="258.19257"
     r="12.262008"
     style="fill:#ffffff;stroke:#ff3371"
     id="circle3395"
     sodipodi:cx="246.38477"
     sodipodi:cy="258.19257"
     sodipodi:rx="12.262008"
     sodipodi:ry="12.262008"
     transform="translate(0.03343735,-0.77592278)" />
  <circle
     cx="19.113119"
     cy="166.49011"
     r="16.035397"
     style="fill:#ffffff;stroke:#ff3371"
     id="circle3397"
     sodipodi:cx="19.113119"
     sodipodi:cy="166.49011"
     sodipodi:rx="16.035397"
     sodipodi:ry="16.035397"
     transform="translate(0.03343735,-0.77592278)" />
  <circle
     cx="66.169617"
     cy="287.04849"
     r="19.737482"
     style="fill:#ffffff;stroke:#ff3371"
     id="circle3399"
     sodipodi:cx="66.169617"
     sodipodi:cy="287.04849"
     sodipodi:rx="19.737482"
     sodipodi:ry="19.737482"
     transform="translate(0.03343735,-0.77592278)" />
  <circle
     cx="197.26611"
     cy="25.887463"
     r="24.61154"
     style="fill:#ffffff;stroke:#ff3371"
     id="circle3401"
     sodipodi:cx="197.26611"
     sodipodi:cy="25.887463"
     sodipodi:rx="24.61154"
     sodipodi:ry="24.61154"
     transform="translate(0.03343735,-0.77592278)" />
  <circle
     cx="157.2791"
     cy="272.42728"
     r="6.1447339"
     style="fill:#ffffff;stroke:#ff3371"
     id="circle3403"
     sodipodi:cx="157.2791"
     sodipodi:cy="272.42728"
     sodipodi:rx="6.1447339"
     sodipodi:ry="6.1447339"
     transform="translate(0.03343735,-0.77592278)" />
  <circle
     cx="173.23935"
     cy="222.00105"
     r="30.697788"
     style="fill:#ffffff;stroke:#ff3371"
     id="circle3405"
     sodipodi:cx="173.23935"
     sodipodi:cy="222.00105"
     sodipodi:rx="30.697788"
     sodipodi:ry="30.697788"
     transform="translate(0.03343735,-0.77592278)" />
  <circle
     cx="218.06085"
     cy="242.81322"
     r="18.771509"
     style="fill:#ffffff;stroke:#ff3371"
     id="circle3407"
     sodipodi:cx="218.06085"
     sodipodi:cy="242.81322"
     sodipodi:rx="18.771509"
     sodipodi:ry="18.771509"
     transform="translate(0.03343735,-0.77592278)" />
  <circle
     cx="81.041351"
     cy="354.08344"
     r="5.3391132"
     style="fill:#ffffff;stroke:#ff3371"
     id="circle3409"
     sodipodi:cx="81.041351"
     sodipodi:cy="354.08344"
     sodipodi:rx="5.3391132"
     sodipodi:ry="5.3391132"
     transform="translate(0.03343735,-0.77592278)" />
  <circle
     cx="287.00281"
     cy="45.650734"
     r="21.702917"
     style="fill:#ffffff;stroke:#ff3371"
     id="circle3411"
     sodipodi:cx="287.00281"
     sodipodi:cy="45.650734"
     sodipodi:rx="21.702917"
     sodipodi:ry="21.702917"
     transform="translate(0.03343735,-0.77592278)" />
  <circle
     cx="19.894476"
     cy="258.25854"
     r="10.706426"
     style="fill:#ffffff;stroke:#ff3371"
     id="circle3413"
     sodipodi:cx="19.894476"
     sodipodi:cy="258.25854"
     sodipodi:rx="10.706426"
     sodipodi:ry="10.706426"
     transform="translate(0.03343735,-0.77592278)" />
  <circle
     cx="291.10892"
     cy="80.114662"
     r="3.8421087"
     style="fill:#ffffff;stroke:#ff3371"
     id="circle3415"
     sodipodi:cx="291.10892"
     sodipodi:cy="80.114662"
     sodipodi:rx="3.8421087"
     sodipodi:ry="3.8421087"
     transform="translate(0.03343735,-0.77592278)" />
  <circle
     cx="52.185268"
     cy="252.14725"
     r="18.828896"
     style="fill:#ffffff;stroke:#ff3371"
     id="circle3417"
     sodipodi:cx="52.185268"
     sodipodi:cy="252.14725"
     sodipodi:rx="18.828896"
     sodipodi:ry="18.828896"
     transform="translate(0.03343735,-0.77592278)" />
  <circle
     cx="272.07193"
     cy="204.08672"
     r="19.030972"
     style="fill:#ffffff;stroke:#ff3371"
     id="circle3419"
     sodipodi:cx="272.07193"
     sodipodi:cy="204.08672"
     sodipodi:rx="19.030972"
     sodipodi:ry="19.030972"
     transform="translate(0.03343735,-0.77592278)" />
  <circle
     cx="352.60687"
     cy="116.99967"
     r="26.282099"
     style="fill:#ffffff;stroke:#ff3371"
     id="circle3421"
     sodipodi:cx="352.60687"
     sodipodi:cy="116.99967"
     sodipodi:rx="26.282099"
     sodipodi:ry="26.282099"
     transform="translate(0.03343735,-0.77592278)" />
  <circle
     cx="372.18567"
     cy="209.74739"
     r="27.538645"
     style="fill:#ffffff;stroke:#ff3371"
     id="circle3423"
     sodipodi:cx="372.18567"
     sodipodi:cy="209.74739"
     sodipodi:rx="27.538645"
     sodipodi:ry="27.538645"
     transform="translate(0.03343735,-0.77592278)" />
  <circle
     cx="35.315563"
     cy="280.45291"
     r="16.714342"
     style="fill:#ffffff;stroke:#ff3371"
     id="circle3425"
     sodipodi:cx="35.315563"
     sodipodi:cy="280.45291"
     sodipodi:rx="16.714342"
     sodipodi:ry="16.714342"
     transform="translate(0.03343735,-0.77592278)" />
  <circle
     cx="163.15195"
     cy="9.5091619"
     r="5.9779959"
     style="fill:#ffffff;stroke:#ff3371"
     id="circle3427"
     sodipodi:cx="163.15195"
     sodipodi:cy="9.5091619"
     sodipodi:rx="5.9779959"
     sodipodi:ry="5.9779959"
     transform="translate(0.03343735,-0.77592278)" />
  <circle
     cx="230.69173"
     cy="201.58292"
     r="23.181072"
     style="fill:#ffffff;stroke:#ff3371"
     id="circle3429"
     sodipodi:cx="230.69173"
     sodipodi:cy="201.58292"
     sodipodi:rx="23.181072"
     sodipodi:ry="23.181072"
     transform="translate(0.03343735,-0.77592278)" />
  <circle
     cx="228.18494"
     cy="12.155559"
     r="10.052837"
     style="fill:#ffffff;stroke:#ff3371"
     id="circle3431"
     sodipodi:cx="228.18494"
     sodipodi:cy="12.155559"
     sodipodi:rx="10.052837"
     sodipodi:ry="10.052837"
     transform="translate(0.03343735,-0.77592278)" />
  <circle
     cx="319.4321"
     cy="118.29149"
     r="6.8182082"
     style="fill:#ffffff;stroke:#ff3371"
     id="circle3433"
     sodipodi:cx="319.4321"
     sodipodi:cy="118.29149"
     sodipodi:rx="6.8182082"
     sodipodi:ry="6.8182082"
     transform="translate(0.03343735,-0.77592278)" />
  <circle
     cx="54.465786"
     cy="106.71483"
     r="26.155321"
     style="fill:#ffffff;stroke:#ff3371"
     id="circle3435"
     sodipodi:cx="54.465786"
     sodipodi:cy="106.71483"
     sodipodi:rx="26.155321"
     sodipodi:ry="26.155321"
     transform="translate(0.03343735,-0.77592278)" />
  <circle
     cx="271.74619"
     cy="131.13188"
     r="7.9336762"
     style="fill:#ffffff;stroke:#ff3371"
     id="circle3437"
     sodipodi:cx="271.74619"
     sodipodi:cy="131.13188"
     sodipodi:rx="7.9336762"
     sodipodi:ry="7.9336762"
     transform="translate(0.03343735,-0.77592278)" />
  <circle
     cx="126.12383"
     cy="49.045307"
     r="31.937487"
     style="fill:#ffffff;stroke:#ff3371"
     id="circle3439"
     sodipodi:cx="126.12383"
     sodipodi:cy="49.045307"
     sodipodi:rx="31.937487"
     sodipodi:ry="31.937487"
     transform="translate(0.03343735,-0.77592278)" />
  <circle
     cx="130.41423"
     cy="245.88297"
     r="20.587563"
     style="fill:#ffffff;stroke:#ff3371"
     id="circle3441"
     sodipodi:cx="130.41423"
     sodipodi:cy="245.88297"
     sodipodi:rx="20.587563"
     sodipodi:ry="20.587563"
     transform="translate(0.03343735,-0.77592278)" />
  <circle
     cx="192.91708"
     cy="168.31822"
     r="23.796553"
     style="fill:#ffffff;stroke:#ff3371"
     id="circle3443"
     sodipodi:cx="192.91708"
     sodipodi:cy="168.31822"
     sodipodi:rx="23.796553"
     sodipodi:ry="23.796553"
     transform="translate(0.03343735,-0.77592278)" />
  <circle
     cx="140.85966"
     cy="90.508476"
     r="13.902927"
     style="fill:#ffffff;stroke:#ff3371"
     id="circle3445"
     sodipodi:cx="140.85966"
     sodipodi:cy="90.508476"
     sodipodi:rx="13.902927"
     sodipodi:ry="13.902927"
     transform="translate(0.03343735,-0.77592278)" />
  <circle
     cx="159.17072"
     cy="178.98032"
     r="11.866612"
     style="fill:#ffffff;stroke:#ff3371"
     id="circle3447"
     sodipodi:cx="159.17072"
     sodipodi:cy="178.98032"
     sodipodi:rx="11.866612"
     sodipodi:ry="11.866612"
     transform="translate(0.03343735,-0.77592278)" />
  <circle
     cx="265.37283"
     cy="20.282375"
     r="8.7618418"
     style="fill:#ffffff;stroke:#ff3371"
     id="circle3449"
     sodipodi:cx="265.37283"
     sodipodi:cy="20.282375"
     sodipodi:rx="8.7618418"
     sodipodi:ry="8.7618418"
     transform="translate(0.03343735,-0.77592278)" />
  <circle
     cx="64.84787"
     cy="226.61815"
     r="7.4370594"
     style="fill:#ffffff;stroke:#ff3371"
     id="circle3451"
     sodipodi:cx="64.84787"
     sodipodi:cy="226.61815"
     sodipodi:rx="7.4370594"
     sodipodi:ry="7.4370594"
     transform="translate(0.03343735,-0.77592278)" />
  <circle
     cx="176.05014"
     cy="72.877632"
     r="26.603188"
     style="fill:#ffffff;stroke:#ff3371"
     id="circle3453"
     sodipodi:cx="176.05014"
     sodipodi:cy="72.877632"
     sodipodi:rx="26.603188"
     sodipodi:ry="26.603188"
     transform="translate(0.03343735,-0.77592278)" />
  <circle
     cx="327.61005"
     cy="131.18304"
     r="7.0334725"
     style="fill:#ffffff;stroke:#ff3371"
     id="circle3455"
     sodipodi:cx="327.61005"
     sodipodi:cy="131.18304"
     sodipodi:rx="7.0334725"
     sodipodi:ry="7.0334725"
     transform="translate(0.03343735,-0.77592278)" />
  <circle
     cx="263.15829"
     cy="75.64267"
     r="16.989468"
     style="fill:#ffffff;stroke:#ff3371"
     id="circle3457"
     sodipodi:cx="263.15829"
     sodipodi:cy="75.64267"
     sodipodi:rx="16.989468"
     sodipodi:ry="16.989468"
     transform="translate(0.03343735,-0.77592278)" />
  <circle
     cx="88.807106"
     cy="145.18527"
     r="25.570456"
     style="fill:#ffffff;stroke:#ff3371"
     id="circle3459"
     sodipodi:cx="88.807106"
     sodipodi:cy="145.18527"
     sodipodi:rx="25.570456"
     sodipodi:ry="25.570456"
     transform="translate(0.03343735,-0.77592278)" />
  <circle
     cx="56.730423"
     cy="72.847076"
     r="8.4431238"
     style="fill:#ffffff;stroke:#ff3371"
     id="circle3461"
     sodipodi:cx="56.730423"
     sodipodi:cy="72.847076"
     sodipodi:rx="8.4431238"
     sodipodi:ry="8.4431238"
     transform="translate(0.03343735,-0.77592278)" />
  <circle
     cx="285.66098"
     cy="104.64201"
     r="17.462652"
     style="fill:#ffffff;stroke:#ff3371"
     id="circle3463"
     sodipodi:cx="285.66098"
     sodipodi:cy="104.64201"
     sodipodi:rx="17.462652"
     sodipodi:ry="17.462652"
     transform="translate(0.03343735,-0.77592278)" />
  <circle
     cx="221.36798"
     cy="76.452965"
     r="19.939009"
     style="fill:#ffffff;stroke:#ff3371"
     id="circle3465"
     sodipodi:cx="221.36798"
     sodipodi:cy="76.452965"
     sodipodi:rx="19.939009"
     sodipodi:ry="19.939009"
     transform="translate(0.03343735,-0.77592278)" />
  <circle
     cx="103.84013"
     cy="98.209435"
     r="24.569921"
     style="fill:#ffffff;stroke:#ff3371"
     id="circle3467"
     sodipodi:cx="103.84013"
     sodipodi:cy="98.209435"
     sodipodi:rx="24.569921"
     sodipodi:ry="24.569921"
     transform="translate(0.03343735,-0.77592278)" />
  <circle
     cx="244.55142"
     cy="112.96647"
     r="24.758446"
     style="fill:#ffffff;stroke:#ff3371"
     id="circle3469"
     sodipodi:cx="244.55142"
     sodipodi:cy="112.96647"
     sodipodi:rx="24.758446"
     sodipodi:ry="24.758446"
     transform="translate(0.03343735,-0.77592278)" />
  <circle
     cx="146.41617"
     cy="136.30304"
     r="32.422039"
     style="fill:#ffffff;stroke:#ff3371"
     id="circle3471"
     sodipodi:cx="146.41617"
     sodipodi:cy="136.30304"
     sodipodi:rx="32.422039"
     sodipodi:ry="32.422039"
     transform="translate(0.03343735,-0.77592278)" />
  <circle
     cx="202.61075"
     cy="91.28936"
     r="5.0216031"
     style="fill:#ffffff;stroke:#ff3371"
     id="circle3473"
     sodipodi:cx="202.61075"
     sodipodi:cy="91.28936"
     sodipodi:rx="5.0216031"
     sodipodi:ry="5.0216031"
     transform="translate(0.03343735,-0.77592278)" />
  <circle
     cx="197.33583"
     cy="117.45644"
     r="22.20381"
     style="fill:#ffffff;stroke:#ff3371"
     id="circle3475"
     sodipodi:cx="197.33583"
     sodipodi:cy="117.45644"
     sodipodi:rx="22.20381"
     sodipodi:ry="22.20381"
     transform="translate(0.03343735,-0.77592278)" />
  <circle
     cx="290.12979"
     cy="170.06664"
     r="7.47364"
     style="fill:#ffffff;stroke:#ff3371"
     id="circle3477"
     sodipodi:cx="290.12979"
     sodipodi:cy="170.06664"
     sodipodi:rx="7.47364"
     sodipodi:ry="7.47364"
     transform="translate(0.03343735,-0.77592278)" />
  <circle
     cx="256.25342"
     cy="162.65416"
     r="26.069521"
     style="fill:#ffffff;stroke:#ff3371"
     id="circle3479"
     sodipodi:cx="256.25342"
     sodipodi:cy="162.65416"
     sodipodi:rx="26.069521"
     sodipodi:ry="26.069521"
     transform="translate(0.03343735,-0.77592278)" />
  <circle
     cx="221.21655"
     cy="144.01112"
     r="13.726232"
     style="fill:#ffffff;stroke:#ff3371"
     id="circle3481"
     sodipodi:cx="221.21655"
     sodipodi:cy="144.01112"
     sodipodi:rx="13.726232"
     sodipodi:ry="13.726232"
     transform="translate(0.03343735,-0.77592278)" />
  <circle
     cx="202.44226"
     cy="200.72227"
     r="7.9150796"
     style="fill:#ffffff;stroke:#ff3371"
     id="circle3483"
     sodipodi:cx="202.44226"
     sodipodi:cy="200.72227"
     sodipodi:rx="7.9150796"
     sodipodi:ry="7.9150796"
     transform="translate(0.03343735,-0.77592278)" />
  <path
     style="fill:#ececec"
     d="m 58.473109,303.14807 c -4.279423,-2.08452 -5.056836,-2.73286 -7.745904,-6.45986 -2.614739,-3.62398 -2.68114,-4.7279 -0.479526,-7.97216 2.101279,-3.0964 2.694923,-6.11691 2.223655,-11.31414 -0.343772,-3.79117 -0.25599,-4.11025 1.450035,-5.27074 0.998777,-0.67939 4.002896,-2.09559 6.675819,-3.14711 4.592681,-1.80674 5.0795,-1.86625 8.855005,-1.08245 9.412538,1.95403 15.322767,9.07397 15.322767,18.45905 0,5.12225 -1.361067,8.68009 -4.83361,12.63509 -5.065108,5.76884 -14.430721,7.58031 -21.468241,4.15232 z"
     id="path3969"
     inkscape:connector-curvature="0" />
  <path
     style="fill:#008080"
     d="m 84.805001,259.22064 c -3.186307,-1.11241 -6.847779,-3.40836 -9.426319,-5.91083 -3.658082,-3.55016 -6.582994,-11.71887 -5.873887,-16.40462 1.126048,-7.4409 6.55191,-14.45096 13.073937,-16.89116 9.172765,-3.43197 19.193238,-0.2198 24.524698,7.86165 2.64795,4.01378 3.85025,8.56358 2.95607,11.18653 -0.34052,0.99885 -0.71466,3.20108 -0.83143,4.89385 -0.58404,8.46665 -9.715935,15.81182 -19.490123,15.67674 -2.148865,-0.0297 -4.368691,-0.21517 -4.932946,-0.41216 z"
     id="path3971"
     inkscape:connector-curvature="0" />
  <path
     style="fill:#008080"
     d="m 62.496539,304.19806 c -4.541651,-1.1266 -8.442236,-3.59669 -10.841997,-6.86582 -2.802703,-3.81805 -2.984391,-5.61256 -0.903094,-8.91974 1.177296,-1.87073 1.587732,-3.81361 1.878293,-8.89129 l 0.371806,-6.49748 4.787617,-2.31575 c 2.633189,-1.27366 6.061287,-2.46397 7.617995,-2.64513 6.361069,-0.74027 14.693931,4.33565 17.512261,10.6675 1.619381,3.63822 1.773701,11.09272 0.302525,14.61374 -1.450258,3.47096 -5.493597,7.70373 -8.867163,9.28259 -3.40262,1.59247 -8.858634,2.31546 -11.858243,1.57138 l 0,0 z"
     id="path3973"
     inkscape:connector-curvature="0" />
  <path
     style="fill:#008080"
     d="m 109.4986,223.03929 c -9.983174,-2.68463 -18.21123,-10.55356 -21.551831,-20.61117 -1.366418,-4.1139 -1.367843,-14.55521 -0.0026,-19.09155 2.007576,-6.67067 6.741587,-12.66056 11.853997,-14.99872 2.098434,-0.95972 4.584774,-2.44537 5.525194,-3.30145 2.33708,-2.12746 6.38421,-3.15518 12.39037,-3.14637 19.01026,0.0279 33.72902,17.06667 30.74563,35.59188 -2.96944,18.43851 -21.13099,30.35207 -38.96076,25.55738 z"
     id="path3975"
     inkscape:connector-curvature="0" />
  <path
     style="fill:#008080"
     d="m 141.91443,166.6417 c -20.68337,-3.18456 -32.65952,-25.22795 -23.99212,-44.16006 7.41052,-16.18671 27.20294,-22.952663 43.20586,-14.76972 9.64547,4.93211 16.69339,16.57013 16.69339,27.56529 0,19.1706 -17.24882,34.23726 -35.90713,31.36449 z"
     id="path3977"
     inkscape:connector-curvature="0" />
  <path
     style="fill:#008080"
     d="m 155.25172,188.47206 c -8.34057,-3.32584 -9.17063,-15.28262 -1.36548,-19.66935 9.39493,-5.28025 19.83965,4.7179 14.9172,14.2794 -2.58911,5.02917 -8.53042,7.39221 -13.55172,5.38995 z"
     id="path3979"
     inkscape:connector-curvature="0" />
  <path
     style="fill:#008080"
     d="m 164.4757,249.56525 c -7.6573,-2.64783 -12.34578,-6.40832 -13.70775,-10.99459 -0.55803,-1.87909 -2.31669,-5.05245 -3.90814,-7.05192 -2.82551,-3.54992 -2.89857,-3.77209 -3.10745,-9.44893 -0.16472,-4.47655 0.102,-6.71777 1.15976,-9.74535 6.07149,-17.37813 24.44777,-25.37999 41.11145,-17.90178 4.36266,1.95785 8.21267,5.60692 8.21267,7.78404 0,1.59077 3.01672,5.28015 4.77333,5.83767 1.52551,0.48418 3.21363,5.1567 3.8317,10.60569 1.52752,13.4669 -7.82573,27.01584 -21.51893,31.17189 -4.35945,1.32314 -12.64286,1.19692 -16.84664,-0.25672 z"
     id="path3981"
     inkscape:connector-curvature="0" />
  <path
     style="fill:#008080"
     d="m 187.22531,299.28332 c -0.65858,-0.3741 -3.12078,-1.01244 -5.47157,-1.41854 -2.35078,-0.40611 -5.04359,-1.13442 -5.98402,-1.61848 -3.21569,-1.6552 -7.71572,-6.80521 -9.83323,-11.25353 -1.90824,-4.00872 -2.10504,-5.0304 -2.00239,-10.39546 0.14516,-7.58664 2.3117,-12.62253 7.79293,-18.11382 3.09512,-3.10081 3.82589,-3.45238 11.65215,-5.60575 4.49408,-1.23654 5.76768,-1.33303 9.20576,-0.69747 7.88322,1.4573 15.31412,7.14159 18.6863,14.29414 1.52027,3.22459 1.7735,4.68945 1.7735,10.25918 0,5.61237 -0.24878,7.02822 -1.82626,10.39358 -3.20858,6.84509 -10.63753,12.77983 -17.36198,13.8699 -1.48391,0.24055 -3.31356,0.5564 -4.0659,0.70189 -0.75234,0.14549 -1.90672,-0.0415 -2.56529,-0.41564 l 0,0 z"
     id="path3983"
     inkscape:connector-curvature="0" />
  <path
     style="fill:#008080"
     d="m 210.92374,258.41892 c -3.271,-1.52749 -7.29243,-5.34925 -8.90017,-8.45828 -1.76513,-3.41339 -2.05167,-10.17944 -0.59287,-13.99927 2.55313,-6.68526 9.80065,-11.83973 16.64745,-11.83973 9.55482,0 17.89307,8.59266 17.87207,18.41738 -0.0126,5.91819 -4.51327,12.79306 -10.17892,15.54864 -3.69307,1.79619 -11.34495,1.96691 -14.84756,0.33126 l 0,0 z"
     id="path3985"
     inkscape:connector-curvature="0" />
  <path
     style="fill:#008080"
     d="m 227.14403,222.60065 c -7.20646,-1.06873 -14.39306,-6.69432 -16.88392,-13.21655 -1.06977,-2.80114 -1.06989,-3.18426 -0.002,-5.85358 1.14117,-2.85207 0.96723,-6.19758 -0.41137,-7.91222 -1.0321,-1.28366 1.90202,-7.19996 5.11843,-10.32072 3.56635,-3.4603 7.28217,-5.40259 12.0745,-6.31143 5.2669,-0.99885 8.09627,-0.3045 11.31088,2.77579 1.50468,1.4418 4.5401,3.44493 6.74538,4.45138 3.61541,1.65002 4.18651,2.20817 5.80905,5.67726 2.54655,5.44468 2.54375,12.51503 -0.007,17.96941 -4.34722,9.29542 -13.58289,14.24906 -23.75398,12.74066 l 0,0 z"
     id="path3987"
     inkscape:connector-curvature="0" />
  <path
     style="fill:#008080"
     d="m 251.2388,186.51605 c -11.5799,-2.45282 -20.03335,-13.00385 -20.06139,-25.03931 -0.0163,-6.97564 4.50266,-15.7943 10.05966,-19.63138 5.18611,-3.581 9.03277,-4.82685 14.89622,-4.82457 7.04636,0.003 12.02652,1.87551 16.92536,6.36471 16.25116,14.89226 6.88745,41.79871 -15.119,43.44419 -2.12201,0.15866 -5.13739,0.0175 -6.70085,-0.31364 z"
     id="path3989"
     inkscape:connector-curvature="0" />
  <path
     style="fill:#008080"
     d=""
     id="path3993"
     inkscape:connector-curvature="0" />
  <path
     style="fill:#008080"
     d="m 267.52115,135.53225 c -3.46078,-2.91206 -3.46733,-7.3013 -0.0157,-10.51699 3.32657,-3.09917 10.18199,-0.70585 11.05468,3.85934 1.21795,6.37131 -6.11989,10.79679 -11.03898,6.65765 z"
     id="path3995"
     inkscape:connector-curvature="0" />
  <path
     style="fill:#008080"
     d="m 296.14409,162.84589 c -0.56426,-0.20864 -1.64147,-0.64067 -2.39381,-0.96007 -0.75234,-0.3194 -2.13733,-0.7457 -3.07775,-0.94734 -3.71495,-0.79652 -7.12918,-4.24054 -10.10768,-10.19584 -3.4088,-6.81564 -3.89238,-11.80047 -1.52195,-15.68833 0.75093,-1.23165 1.36648,-2.95192 1.36789,-3.82284 0.004,-2.69947 6.4709,-8.47129 11.55467,-10.31331 15.83807,-5.73868 31.98069,7.7686 28.82045,24.1154 -1.92779,9.9717 -9.71074,17.05912 -19.61952,17.86617 -2.19801,0.17902 -4.45805,0.15479 -5.0223,-0.0538 z"
     id="path3997"
     inkscape:connector-curvature="0" />
  <path
     style="fill:#008080"
     d="m 313.36329,220.65404 c -7.56378,-1.48849 -15.87824,-7.53764 -19.4305,-14.13658 -2.59948,-4.82898 -4.01259,-12.63847 -3.25577,-17.99278 2.13433,-15.09972 17.18855,-26.36722 32.03424,-23.97639 12.68098,2.04221 22.06139,11.4787 24.19202,24.33663 0.69756,4.20962 0.6149,4.96934 -1.14062,10.48338 -2.9268,9.193 -2.97716,9.29098 -6.7441,13.12114 -3.95864,4.02509 -9.8059,7.12945 -15.44199,8.19832 -4.19262,0.79511 -6.03243,0.78904 -10.21328,-0.0337 l 0,0 z"
     id="path3999"
     inkscape:connector-curvature="0" />
  <path
     style="fill:#008080"
     d="m 333.76108,250.15518 c -3.82076,-0.77095 -6.60774,-2.558 -9.11946,-5.84749 -3.12451,-4.09205 -4.16398,-8.3205 -3.194,-12.99287 1.17314,-5.65098 3.84282,-8.65774 9.97121,-11.23021 4.96245,-2.08306 5.39408,-2.14984 9.02417,-1.39624 4.14264,0.86001 5.13462,1.6824 10.1593,8.42233 2.3709,3.18027 2.99319,4.58569 2.99319,6.76011 0,4.81475 -1.44334,8.15521 -5.10642,11.81828 -4.60056,4.60057 -8.38069,5.74685 -14.72799,4.46609 z"
     id="path4001"
     inkscape:connector-curvature="0" />
  <path
     style="fill:#008080"
     d="m 331.70924,296.67478 c -5.23095,-0.38115 -6.20141,-0.68182 -9.68413,-3.00034 -4.12776,-2.74794 -5.24705,-4.11611 -8.22157,-10.04956 -2.4338,-4.85485 -2.60928,-11.08957 -0.47573,-16.90199 1.95729,-5.33222 7.70974,-11.05929 13.15449,-13.09644 12.62396,-4.72323 26.61035,2.67614 29.8862,15.81101 0.72127,2.89201 0.65034,3.62744 -0.63886,6.62427 -0.83324,1.93692 -1.45021,4.82242 -1.45021,6.78253 0,2.71403 -0.38451,3.8766 -1.88085,5.68675 -2.67381,3.23457 -4.19376,4.4813 -7.69438,6.31133 -3.96533,2.07296 -5.91698,2.34817 -12.99496,1.83244 z"
     id="path4003"
     inkscape:connector-curvature="0" />
  <path
     style="fill:#008080"
     d="m 353.86003,309.42032 c -4.90297,-4.49323 -3.38686,-11.91948 2.87929,-14.10345 3.55056,-1.2375 6.0356,-0.59751 8.93392,2.30081 1.85661,1.85661 2.2851,2.81729 2.2851,5.12324 0,5.58478 -3.1948,8.92572 -8.5353,8.92572 -2.56398,0 -3.54341,-0.39549 -5.56301,-2.24632 z"
     id="path4005"
     inkscape:connector-curvature="0" />
  <path
     style="fill:#800000"
     d="M 20.157747,246.11684 C 4.0269955,243.91597 -2.6147573,223.24282 9.1409271,211.82585 c 2.0580529,-1.99876 3.1531299,-2.49211 6.2384539,-2.81055 2.058221,-0.21242 4.946476,-1.06306 6.418344,-1.89029 2.450896,-1.37748 2.968107,-1.43402 6.14546,-0.67179 4.866904,1.16756 9.372761,4.38425 12.284693,8.76993 2.236998,3.36916 2.506859,4.27027 2.681982,8.95549 0.290418,7.76982 -0.139163,9.23322 -3.684455,12.55135 -1.714307,1.60447 -3.569746,3.79057 -4.123199,4.858 -1.778068,3.42933 -8.367464,5.42621 -14.944459,4.52885 l 0,0 z"
     id="path4410"
     inkscape:connector-curvature="0" />
  <path
     style="fill:#800000"
     d="m 80.444452,167.52535 c -7.132902,-2.85618 -12.19685,-7.97773 -14.83602,-15.00478 -3.14176,-8.36523 -0.474175,-19.41374 6.193047,-25.65014 4.218409,-3.94583 7.774726,-5.70294 13.481861,-6.66112 4.351036,-0.7305 5.039061,-0.65884 10.659778,1.11026 7.487172,2.35655 11.724262,5.85953 14.906702,12.32397 6.06375,12.31723 0.81273,27.1857 -11.681972,33.07798 -5.094307,2.40239 -13.798048,2.77605 -18.723396,0.80383 z"
     id="path4412"
     inkscape:connector-curvature="0" />
  <path
     style="fill:#800000"
     d="m 118.02346,76.528247 c -2.37311,-1.57666 -5.63718,-3.03582 -7.86537,-3.51609 -3.10296,-0.66884 -4.36568,-1.4016 -6.8137,-3.95402 -3.820022,-3.98294 -6.835747,-10.35597 -7.776516,-16.43385 -3.074487,-19.86288 14.778966,-37.79005 34.809636,-34.95336 13.09771,1.85486 23.83325,12.34738 26.30473,25.70927 1.04143,5.63042 0.50229,8.45558 -2.31894,12.15159 -2.53718,3.32389 -5.26744,9.71279 -5.26744,12.32597 0,2.58009 -5.64346,6.74345 -10.08488,7.43993 -2.04857,0.32124 -4.84394,1.34464 -6.21193,2.27422 -1.9767,1.3432 -3.33211,1.68616 -6.60314,1.67079 -3.63288,-0.0171 -4.59194,-0.33561 -8.17245,-2.71445 l 0,0 z"
     id="path4414"
     inkscape:connector-curvature="0" />
  <path
     style="fill:#800000"
     d="m 213.70783,92.595727 c -9.34757,-4.36636 -13.52592,-15.49766 -9.30522,-24.78952 6.47117,-14.24623 26.61782,-14.5255 33.72815,-0.46753 4.01311,7.93439 1.70278,18.54374 -4.76021,21.85955 -1.77076,0.90847 -4.25759,2.46075 -5.5263,3.4495 -2.97949,2.32203 -9.10227,2.2995 -14.13642,-0.052 z"
     id="path4416"
     inkscape:connector-curvature="0" />
  <path
     style="fill:#800000"
     d="m 185.3067,188.87838 c -8.65452,-3.13193 -14.77943,-11.96968 -14.77943,-21.32553 0,-9.42676 4.47691,-16.3835 13.19598,-20.50544 6.24216,-2.95099 12.13548,-2.95099 18.37765,0 8.63026,4.07996 13.32234,11.28552 13.30024,20.42502 -0.0163,6.74293 -2.61015,12.42333 -7.73129,16.93113 -6.37973,5.61567 -14.64209,7.26895 -22.36315,4.47482 z"
     id="path4418"
     inkscape:connector-curvature="0" />
  <path
     style="fill:#800000"
     d="m 314.51166,102.10535 c -5.36284,-1.27821 -8.73307,-3.260473 -12.13927,-7.139923 -6.2342,-7.10036 -8.24467,-15.0789 -5.91393,-23.46939 1.66499,-5.99381 10.2069,-14.79329 16.02055,-16.50362 9.40054,-2.76557 19.08009,-0.0269 25.64484,7.25575 4.18327,4.64076 6.03426,9.62681 6.06806,16.34569 0.034,6.75619 -2.59398,12.12108 -7.75191,15.82522 -2.33458,1.67657 -4.24469,3.44535 -4.24469,3.93062 0,2.793163 -11.48663,5.232693 -17.68365,3.755653 z"
     id="path4420"
     inkscape:connector-curvature="0" />
  <path
     style="fill:#800000"
     d=""
     id="path4422"
     inkscape:connector-curvature="0" />
  <path
     style="fill:#800000"
     d="m 241.82702,13.611437 c -1.95826,-1.95826 -1.93718,-4.6953598 0.0515,-6.6840098 2.18829,-2.18829 5.34723,-1.46933 7.06937,1.60896 1.32483,2.3681098 1.29356,2.7679198 -0.3594,4.5944098 -2.15901,2.38568 -4.67738,2.5647 -6.76144,0.48064 z"
     id="path4424"
     inkscape:connector-curvature="0" />
  <path
     style="fill:#800000"
     d="m 365.8141,234.66846 c -8.06548,-2.01989 -15.87671,-9.26825 -18.59951,-17.25925 -6.94087,-20.37031 13.17654,-40.38016 33.60062,-33.42098 8.96868,3.05594 16.22733,12.03425 17.65582,21.8387 0.8603,5.9047 -1.4655,13.90271 -5.63101,19.36406 -5.74149,7.5276 -17.85272,11.77477 -27.02592,9.47747 z"
     id="path4426"
     inkscape:connector-curvature="0" />
  <path
     style="fill:#800000"
     d="m 265.45542,220.07049 c -3.08981,-1.22845 -7.52067,-5.42382 -9.27517,-8.78221 -1.75561,-3.3605 -1.75883,-12.68585 -0.006,-16.0556 2.83422,-5.44729 10.23734,-9.88833 16.41137,-9.84498 7.53827,0.0529 15.12258,6.3863 16.84898,14.06994 1.12048,4.98688 -0.61893,12.15894 -3.76684,15.53174 -5.05493,5.41605 -13.82515,7.62072 -20.21279,5.08111 z"
     id="path4428"
     inkscape:connector-curvature="0" />
  <path
     style="fill:#800000"
     d="m 241.17107,267.10162 c -7.68258,-4.1757 -7.56772,-15.38108 0.19884,-19.39732 5.37735,-2.78073 11.60646,-0.90741 14.76559,4.44057 5.49663,9.30505 -5.37356,20.16966 -14.96443,14.95675 z"
     id="path4430"
     inkscape:connector-curvature="0" />
  <path
     style="fill:#800000"
     d="m 278.42318,373.58597 c -25.60956,-6.2171 -31.34318,-40.99179 -9.09878,-55.18452 6.54497,-4.17592 9.74191,-4.67981 14.98282,-2.36151 3.38416,1.49698 6.52895,2.05198 11.36911,2.00643 6.51162,-0.0613 6.80492,0.0421 10.94546,3.85874 6.4825,5.97536 9.48938,12.95073 9.47489,21.97984 -0.0139,8.67708 -2.08813,14.19468 -7.65079,20.35188 -4.6058,5.09807 -10.11589,8.28452 -16.68066,9.64632 -6.11368,1.26822 -6.97263,1.24909 -13.34205,-0.29718 z"
     id="path4432"
     inkscape:connector-curvature="0" />
  <path
     style="fill:#800000"
     d="m 172.11847,332.79834 c -4.39487,-2.29155 -6.16979,-4.21965 -8.3363,-9.05576 -5.40249,-12.05948 4.35451,-25.288 17.70554,-24.00513 13.97016,1.34235 20.3326,18.77286 10.6374,29.14216 -4.96898,5.31446 -13.95441,7.07445 -20.00664,3.91873 z"
     id="path4434"
     inkscape:connector-curvature="0" />
  <path
     style="fill:#800000"
     d="m 153.20683,274.26288 c -1.5558,-2.90704 -0.35372,-6.54289 2.39096,-7.23176 3.43615,-0.86242 6.36245,1.09722 6.36245,4.26069 0,1.47084 -0.52231,3.19657 -1.16069,3.83495 -1.91201,1.91201 -6.37912,1.40376 -7.59272,-0.86388 z"
     id="path4436"
     inkscape:connector-curvature="0" />
  <path
     style="fill:#800000"
     d="m 98.007249,302.60293 c -7.447384,-3.89056 -10.764845,-8.99849 -11.573397,-17.81966 -0.866659,-9.45511 0.27404,-12.87959 6.219733,-18.67219 7.708265,-7.50977 17.990505,-9.5947 23.685485,-4.80269 1.58922,1.33724 4.35182,3.04235 6.13913,3.78913 8.45884,3.53433 11.52125,13.3686 7.65193,24.57255 -2.47288,7.16045 -4.96078,10.16121 -10.86313,13.10247 -7.0959,3.53604 -14.27598,3.47875 -21.259751,-0.16961 l 0,0 z"
     id="path4438"
     inkscape:connector-curvature="0" />
  <path
     style="fill:#800000"
     d="m 48.075246,216.84163 c -4.778012,-1.4927 -14.426683,-9.84983 -16.976376,-14.70396 -1.250394,-2.38051 -1.790083,-5.83105 -1.934489,-12.36828 -0.180106,-8.15331 0.02164,-9.34332 2.002667,-11.81284 1.211622,-1.51039 2.857243,-4.17884 3.656937,-5.92989 1.53519,-3.36153 8.034019,-8.07509 13.721548,-9.95214 5.118832,-1.68937 15.473786,-0.74681 20.559219,1.87141 10.404511,5.35671 15.918429,14.31277 15.867579,25.77313 -0.03732,8.41037 -2.44683,14.19663 -8.384191,20.13399 -7.363628,7.36363 -18.542218,10.10353 -28.512894,6.98858 l 0,0 z"
     id="path4440"
     inkscape:connector-curvature="0" />
  <path
     style="fill:#800000"
     d="M 12.248353,178.92163 C 4.9785769,175.3385 1.9751302,164.80433 6.3895053,158.37254 13.058608,148.65559 24.29953,148.09495 31.194996,157.13537 c 3.389983,4.4445 3.664891,12.15055 0.5819,16.31141 -4.966563,6.70296 -12.660501,8.85997 -19.528543,5.47485 z"
     id="path4442"
     inkscape:connector-curvature="0" />
  <path
     style="fill:#800000"
     d="m 71.522864,346.9566 c -4.25599,-1.03242 -8.35611,-3.38904 -11.313814,-6.50283 -11.705666,-12.3234 -3.902464,-32.56435 13.386838,-34.72451 7.136571,-0.89166 12.683606,1.29747 17.684994,6.97935 6.85917,7.79243 7.120666,18.41016 0.661955,26.87797 -4.126152,5.40966 -13.923829,8.94586 -20.419973,7.37002 z"
     id="path4444"
     inkscape:connector-curvature="0" />
  <path
     style="fill:#800000"
     d="m 120.55226,381.37582 c -5.3768,-2.98367 -7.42126,-9.99002 -4.40504,-15.09608 2.77199,-4.69261 5.84224,-5.8535 11.88287,-4.49303 6.00398,1.35221 7.32925,2.89769 8.16394,9.52045 0.54062,4.28944 0.36037,4.79949 -2.81991,7.97977 -2.68996,2.68997 -4.14603,3.3903 -6.99236,3.36317 -1.97721,-0.0189 -4.60048,-0.59228 -5.8295,-1.27428 z"
     id="path4446"
     inkscape:connector-curvature="0" />
  <path
     style="fill:#800000"
     d="m 201.4846,374.26415 c -3.90628,-0.60094 -12.72597,-6.27647 -13.97063,-8.99018 -0.60999,-1.32997 -2.0401,-4.37679 -3.17802,-6.77072 -4.33471,-9.11928 -2.06806,-18.56152 6.1389,-25.57295 6.2741,-5.36013 8.73696,-6.34612 15.8517,-6.34612 11.0879,0 20.97569,7.97074 23.32922,18.80613 2.75156,12.66784 -5.58127,25.60657 -18.36605,28.51771 -4.44147,1.01134 -5.33512,1.0438 -9.80512,0.35613 z"
     id="path4448"
     inkscape:connector-curvature="0" />
  <path
     style="fill:#800000"
     d="m 290.60379,315.98197 c -13.33633,-2.59566 -21.03658,-16.70479 -15.59311,-28.5712 6.14983,-13.40625 21.87292,-17.04094 32.89698,-7.60475 6.43014,5.50397 8.88284,15.92461 5.59836,23.78548 -3.55983,8.51987 -13.93876,14.13503 -22.90223,12.39047 z"
     id="path4450"
     inkscape:connector-curvature="0" />
  <path
     style="fill:#ff2a2a"
     d="m 189.65716,395.18835 c -3.19339,-2.51192 -3.49419,-7.68937 -0.61407,-10.56949 2.88013,-2.88013 8.05757,-2.57933 10.56949,0.61406 2.65932,3.38077 2.53199,6.68454 -0.36945,9.58597 -2.90144,2.90144 -6.2052,3.02877 -9.58597,0.36946 l 0,0 z"
     id="path4452"
     inkscape:connector-curvature="0" />
  <path
     style="fill:#ff2a2a"
     d="m 122.77854,262.87663 c -6.97247,-3.16753 -12.08001,-11.00115 -12.06742,-18.50825 0.002,-1.32996 1.05495,-4.67521 2.33937,-7.43388 3.12519,-6.71225 8.33049,-10.20003 16.05704,-10.75892 17.23537,-1.2467 27.1412,17.92545 16.15074,31.25879 -5.58501,6.77558 -14.69171,8.98028 -22.47973,5.44226 l 0,0 z"
     id="path4454"
     inkscape:connector-curvature="0" />
  <path
     style="fill:#ff2a2a"
     d="m 141.66731,311.8337 c -2.34282,-1.19697 -5.59068,-3.84893 -7.21747,-5.89325 -2.63821,-3.31533 -2.9578,-4.42085 -2.9578,-10.23136 0,-5.65372 0.35994,-6.98632 2.72432,-10.08619 7.16679,-9.39614 18.27635,-10.61279 26.7775,-2.9325 4.49305,4.05919 6.1868,8.60334 5.57602,14.95983 -0.60051,6.24964 -3.94981,10.98258 -9.87758,13.95817 -5.92144,2.9724 -9.54183,3.02669 -15.02499,0.2253 z"
     id="path4456"
     inkscape:connector-curvature="0" />
  <path
     style="fill:#ff2a2a"
     d="m 280.29658,272.28557 c -16.82633,-2.94034 -26.15459,-21.24504 -18.46105,-36.22584 5.07,-9.87225 13.49011,-14.52979 24.80413,-13.72027 14.00157,1.0018 23.77068,12.08869 22.94599,26.04123 -0.93661,15.84613 -14.06914,26.5645 -29.28907,23.90488 z"
     id="path4458"
     inkscape:connector-curvature="0" />
  <path
     style="fill:#ff2a2a"
     d="m 242.7248,243.02786 c -3.83135,-1.66978 -4.9868,-3.19136 -6.38053,-8.40238 -1.64179,-6.13844 0.45407,-10.24698 6.80382,-13.33764 4.08246,-1.98709 5.12987,-2.14097 8.03863,-1.18099 10.97643,3.62255 11.88942,17.53868 1.50303,22.90969 -3.21461,1.66234 -6.16895,1.6657 -9.96495,0.0113 l 0,-1e-5 z"
     id="path4460"
     inkscape:connector-curvature="0" />
  <path
     style="fill:#ff2a2a"
     d=""
     id="path4462"
     inkscape:connector-curvature="0" />
  <path
     style="fill:#ff2a2a"
     d="m 217.4152,155.28776 c -6.32219,-1.83036 -10.52683,-10.39351 -8.04518,-16.38475 1.58488,-3.82624 6.03102,-7.4786 10.01339,-8.2257 7.13737,-1.33898 14.14184,4.80952 14.14932,12.42023 0.005,5.38993 -2.39403,9.24751 -7.07305,11.37185 -4.50982,2.04753 -4.73007,2.06746 -9.04448,0.81837 l 0,0 z"
     id="path4464"
     inkscape:connector-curvature="0" />
  <path
     style="fill:#ff2a2a"
     d="m 165.29181,95.051237 c -8.33547,-3.88145 -14.9385,-13.98253 -14.9385,-22.85241 0,-4.70218 2.95645,-12.5692 6.04588,-16.08786 12.86805,-14.65589 34.68925,-11.68837 42.87086,5.83013 1.88575,4.03775 2.13009,5.746 1.66027,11.60693 -0.62574,7.80592 -2.55179,12.27683 -7.20805,16.73191 -7.52358,7.19851 -19.06015,9.13462 -28.43046,4.7713 l 0,0 z"
     id="path4466"
     inkscape:connector-curvature="0" />
  <path
     style="fill:#ff2a2a"
     d="m 188.24589,135.45694 c -3.39968,-1.69414 -6.06514,-3.98206 -8.16968,-7.01253 -2.84259,-4.09323 -3.12367,-5.15078 -3.12367,-11.75233 0,-6.60154 0.28108,-7.65909 3.12367,-11.75232 3.73322,-5.375723 11.21643,-9.531883 17.13657,-9.517613 4.56746,0.011 12.66141,3.55687 15.72346,6.888273 6.95464,7.5664 6.95464,21.19693 0,28.76333 -3.06205,3.33139 -11.156,6.87726 -15.72346,6.88827 -2.30011,0.006 -6.00674,-1.02998 -8.96689,-2.50508 z"
     id="path4468"
     inkscape:connector-curvature="0" />
  <path
     style="fill:#ff2a2a"
     d="m 46.828507,129.77189 c -2.410221,-0.77421 -6.233759,-2.99251 -8.496753,-4.92955 -10.961061,-9.38226 -11.812239,-25.082613 -1.94044,-35.792253 9.972975,-10.8194 26.821261,-10.65324 36.773471,0.36267 4.218533,4.66941 5.9203,9.51407 6.014829,17.123263 0.158135,12.72924 -9.727755,23.19585 -22.895978,24.24093 -2.92154,0.23186 -6.931365,-0.19437 -9.455129,-1.00506 z"
     id="path4470"
     inkscape:connector-curvature="0" />
  <path
     style="fill:#ff2a2a"
     d="m 144.21613,17.231527 c -3.35006,-3.70177 -0.83204,-9.8380998 4.03704,-9.8380998 2.76844,0 5.96912,3.2907998 5.96912,6.1371798 0,4.80629 -6.74733,7.30188 -10.00616,3.70092 z"
     id="path4472"
     inkscape:connector-curvature="0" />
  <path
     style="fill:#ff2a2a"
     d=""
     id="path4474"
     inkscape:connector-curvature="0" />
  <path
     style="fill:#ff2a2a"
     d=""
     id="path4476"
     inkscape:connector-curvature="0" />
  <path
     style="fill:#ff2a2a"
     d="m 192.26594,48.093087 c -9.07344,-2.26776 -16.02353,-9.59838 -17.99038,-18.97539 -2.85367,-13.60495 8.7658,-27.5088398 22.98911,-27.5088398 5.71831,0 13.27957,3.25241 17.09886,7.35492 3.14611,3.3793998 6.59864,11.8488398 6.59864,16.1871798 0,8.12267 -6.09761,17.6069 -13.58299,21.12702 -4.2138,1.98161 -11.12568,2.81173 -15.11324,1.81511 l 0,0 z"
     id="path4478"
     inkscape:connector-curvature="0" />
  <path
     style="fill:#ff2a2a"
     d="m 171.84791,9.7566972 c -2.81749,-1.97345 -2.73123,-4.83938 0.20354,-6.76231 4.76443,-3.12177998 8.84326,2.81186 4.58311,6.66725 -2.16002,1.9547898 -2.1323,1.9542398 -4.78665,0.0951 z"
     id="path4480"
     inkscape:connector-curvature="0" />
  <path
     style="fill:#ff2a2a"
     d="m 280.08719,64.446547 c -4.42002,-1.88436 -10.07072,-7.15927 -11.83844,-11.05115 -5.01427,-11.03959 1.31306,-24.64195 13.08931,-28.13911 7.92477,-2.35341 16.2151,0.28383 21.66092,6.89055 10.54273,12.79016 1.9848,31.90455 -14.73944,32.92094 -3.23253,0.19645 -6.91009,-0.0831 -8.17235,-0.62123 z"
     id="path4482"
     inkscape:connector-curvature="0" />
  <path
     style="fill:#ff2a2a"
     d="m 259.72216,24.189767 c -2.54344,-3.23345 -2.54344,-6.1781 0,-9.41156 1.54629,-1.96579 2.85728,-2.54855 5.73326,-2.54855 6.63992,0 9.85894,6.71517 5.73327,11.96011 -1.54629,1.96579 -2.85728,2.54856 -5.73327,2.54856 -2.87598,0 -4.18697,-0.58277 -5.73326,-2.54856 z"
     id="path4484"
     inkscape:connector-curvature="0" />
  <path
     style="fill:#ff2a2a"
     d="m 255.98468,89.018187 c -3.97767,-2.02894 -6.65393,-5.37585 -8.06522,-10.08631 -1.73613,-5.79469 -0.34136,-10.47265 4.51089,-15.1292 5.56305,-5.33868 10.92536,-6.3343 17.35422,-3.22214 11.17556,5.40999 12.32395,19.86168 2.1801,27.43516 -3.50787,2.619 -11.79201,3.1387 -15.97999,1.00249 z"
     id="path4486"
     inkscape:connector-curvature="0" />
  <path
     style="fill:#ff2a2a"
     d="m 346.51977,140.50996 c -2.49524,-0.68362 -6.05751,-2.28495 -7.91615,-3.55851 -2.88113,-1.97418 -3.3719,-2.85474 -3.32886,-5.97284 0.0565,-4.0931 -1.17526,-6.01437 -5.18531,-8.08805 -2.48303,-1.28402 -2.73037,-1.88394 -2.73037,-6.62243 0,-11.25435 9.03186,-22.214863 20.29662,-24.630723 9.80014,-2.10175 21.01712,2.87131 26.47258,11.736663 3.83362,6.22978 4.63747,15.84967 1.85082,22.14934 -5.19831,11.75166 -17.82359,18.17439 -29.45933,14.98655 z"
     id="path4488"
     inkscape:connector-curvature="0" />
  <path
     style="fill:#ff2a2a"
     d="m 388.11025,185.54657 c -3.8676,-2.3436 -3.99877,-4.62254 -0.45712,-7.94221 3.58936,-3.36437 5.71935,-3.60408 8.38032,-0.94311 2.31898,2.31898 2.48255,5.55782 0.42878,8.48999 -1.74706,2.49428 -4.66052,2.63218 -8.35198,0.39533 l 0,0 z"
     id="path4490"
     inkscape:connector-curvature="0" />
  <path
     style="fill:#ff2a2a"
     d=""
     id="path4492"
     inkscape:connector-curvature="0" />
  <path
     style="fill:#ff2a2a"
     d="m 363.21589,292.98376 c -1.82413,-0.93721 -4.15277,-2.84545 -5.17476,-4.24054 -3.68152,-5.02555 -1.36515,-14.39025 3.55946,-14.39025 1.25281,0 2.89217,-0.92524 3.64302,-2.05608 1.82147,-2.74328 6.50275,-1.77007 10.44408,2.17125 9.02399,9.024 -1.25222,24.28004 -12.4718,18.51562 z"
     id="path4494"
     inkscape:connector-curvature="0" />
  <path
     style="fill:#ff2a2a"
     d="m 234.84702,331.40278 c -17.46126,-3.54549 -28.86892,-21.33616 -24.58644,-38.34345 2.52113,-10.0123 11.89271,-19.51348 22.16054,-22.46701 5.75567,-1.65561 15.80243,-0.55513 22.06628,2.41705 13.39091,6.35395 20.28416,23.30922 15.38336,37.8383 -2.24481,6.65506 -12.36627,16.96521 -18.60509,18.95193 -6.44238,2.05156 -11.68794,2.56375 -16.41865,1.60318 z"
     id="path4496"
     inkscape:connector-curvature="0" />
  <path
     style="fill:#ff2a2a"
     d="m 140.88075,345.28231 c -1.79637,-0.88534 -4.27342,-3.4264 -5.68034,-5.82712 -2.05645,-3.50907 -2.41275,-5.11161 -2.02762,-9.11975 0.57397,-5.97346 2.92489,-9.35575 8.53194,-12.27501 7.49181,-3.90055 16.43887,-0.89198 20.39217,6.85712 6.64692,13.02905 -7.85555,26.94953 -21.21615,20.36476 z"
     id="path4498"
     inkscape:connector-curvature="0" />
  <path
     style="fill:#ff2a2a"
     d="m 95.703981,368.18045 c -4.020572,-2.00377 -7.930948,-6.81622 -8.256214,-10.16082 -0.656948,-6.75518 0.123331,-10.18978 3.07995,-13.55718 5.773602,-6.57577 10.714653,-7.69956 18.830523,-4.28279 5.56367,2.34229 7.87192,5.1341 8.92884,10.79936 0.95559,5.12204 0.0782,8.58197 -3.29888,13.0096 -4.6424,6.0865 -12.19042,7.72722 -19.284219,4.19183 z"
     id="path4500"
     inkscape:connector-curvature="0" />
  <path
     style="fill:#ff2a2a"
     d="m 127.41426,359.66774 c -2.79606,-0.42155 -7.04554,-5.51663 -7.04554,-8.44752 0,-3.83494 2.0272,-7.04921 5.47887,-8.68714 3.85663,-1.83009 6.51768,-1.24928 10.23886,2.23475 6.54754,6.13028 0.62731,16.30197 -8.67219,14.89991 z"
     id="path4502"
     inkscape:connector-curvature="0" />
  <path
     style="fill:#ff2a2a"
     d=""
     id="path4504"
     inkscape:connector-curvature="0" />
  <path
     style="fill:#ff2a2a"
     d=""
     id="path4506"
     inkscape:connector-curvature="0" />
  <path
     style="fill:#ff2a2a"
     d="m 179.94184,395.62159 c -0.82042,-2.13799 1.66362,-4.69491 3.77425,-3.88499 0.98185,0.37678 1.47482,1.44875 1.28405,2.79219 -0.38568,2.71611 -4.12535,3.52402 -5.0583,1.0928 z"
     id="path4508"
     inkscape:connector-curvature="0" />
  <path
     style="fill:#ff2a2a"
     d="m 244.61171,387.12732 c -6.63796,-2.89132 -10.38521,-10.79958 -8.22245,-17.3528 3.27416,-9.92082 14.95332,-13.17639 22.7407,-6.33899 6.07548,5.33434 6.79455,13.34219 1.73773,19.35189 -4.41338,5.24499 -10.46739,6.86125 -16.25598,4.3399 z"
     id="path4510"
     inkscape:connector-curvature="0" />
  <path
     style="fill:#ff8080"
     d="m 368.32345,268.46007 c -6.8228,-1.97653 -12.00719,-11.84791 -10.04654,-19.12919 2.07181,-7.69412 7.1682,-11.55672 15.72031,-11.91459 14.24188,-0.59596 21.93532,15.32023 12.70676,26.28775 -4.6004,5.46725 -10.58239,7.01512 -18.38053,4.75603 l 0,0 z"
     id="path4512"
     inkscape:connector-curvature="0" />
  <path
     style="fill:#ff8080"
     d="m 327.29988,338.76733 c -6.2378,-1.62835 -9.96141,-4.61622 -13.00357,-10.43423 -4.98386,-9.53145 -2.45323,-20.33263 6.18642,-26.40481 3.7314,-2.62252 4.87491,-2.91058 11.55409,-2.91058 6.44513,0 7.89818,0.33537 11.13083,2.56908 2.04491,1.41299 4.8741,4.24218 6.28709,6.28709 2.23283,3.23138 2.56908,4.68667 2.56908,11.11897 0,6.76004 -0.26314,7.76519 -3.03868,11.60693 -5.06532,7.01113 -13.68238,10.25666 -21.68526,8.16755 l 0,0 z"
     id="path4514"
     inkscape:connector-curvature="0" />
  <path
     style="fill:#ff8080"
     d="m 313.46649,253.55148 c -4.22458,-4.22458 -1.68098,-10.63397 4.22015,-10.63397 5.90113,0 8.44473,6.40939 4.22015,10.63397 -1.87446,1.87445 -6.56585,1.87445 -8.4403,0 l 0,0 z"
     id="path4516"
     inkscape:connector-curvature="0" />
  <path
     style="fill:#ff8080"
     d="m 236.04504,134.09332 c -12.70997,-4.96324 -18.49857,-19.21419 -12.78692,-31.48007 5.6292,-12.088823 19.31295,-17.226083 31.07399,-11.666043 15.24186,7.2056 18.62184,26.035213 6.79617,37.860893 -6.88493,6.88493 -16.04439,8.81489 -25.08324,5.28522 z"
     id="path4518"
     inkscape:connector-curvature="0" />
  <path
     style="fill:#ff8080"
     d="m 279.44046,118.74297 c -12.57596,-5.71247 -13.42812,-23.002993 -1.43524,-29.121303 8.36843,-4.26925 18.2675,-1.02826 22.29961,7.30097 4.01338,8.290553 0.42432,17.899713 -8.13789,21.787973 -4.99715,2.2693 -7.78626,2.27639 -12.72648,0.0324 l 0,0 z"
     id="path4520"
     inkscape:connector-curvature="0" />
  <path
     style="fill:#ff8080"
     d="m 322.38014,52.076017 c -4.07299,-0.33974 -5.31802,-2.73625 -3.08087,-5.93023 2.53244,-3.61557 8.07736,-2.02538 8.045,2.30718 -0.0232,3.10931 -1.16171,3.94023 -4.96413,3.62305 z"
     id="path4522"
     inkscape:connector-curvature="0" />
  <path
     style="fill:#ff8080"
     d="m 132.44934,98.981567 c -4.07808,-4.07809 -5.32249,-10.47536 -2.93555,-15.09118 3.04783,-5.89386 11.11425,-8.55953 16.97054,-5.60818 3.30232,1.66424 7.81473,10.12079 7.07634,13.26151 -1.62829,6.92585 -6.29431,10.639693 -13.36758,10.639693 -3.8515,0 -5.0286,-0.4867 -7.74375,-3.201843 z"
     id="path4524"
     inkscape:connector-curvature="0" />
  <path
     style="fill:#ff8080"
     d="m 96.671226,119.94014 c -3.541804,-0.82975 -9.616208,-5.69285 -12.563866,-10.05848 -2.641335,-3.91195 -2.912049,-5.03888 -2.912049,-12.122333 0,-7.00354 0.302086,-8.29851 2.927303,-12.54862 7.930428,-12.83899 25.452866,-14.87234 36.132316,-4.19289 10.66052,10.66052 8.64543,28.197693 -4.14893,36.107843 -3.83822,2.37298 -5.86385,2.93612 -11.09775,3.08526 -3.52139,0.10033 -7.273055,-0.0215 -8.337024,-0.27078 z"
     id="path4526"
     inkscape:connector-curvature="0" />
  <path
     style="fill:#ff8080"
     d="m 70.94047,75.789207 c -1.893247,-1.27486 -4.251554,-4.24284 -5.56274,-7.00083 -3.744027,-7.87531 -1.96504,-14.97728 5.066772,-20.22728 3.783073,-2.82447 13.849566,-2.82447 17.63264,0 4.724788,3.52756 6.509303,6.81169 6.924347,12.74323 0.326168,4.66138 0.01575,6.12549 -1.894846,8.93699 -5.302576,7.80293 -15.155163,10.26889 -22.166173,5.54789 l 0,0 z"
     id="path4528"
     inkscape:connector-curvature="0" />
  <path
     style="fill:#ff8080"
     d="m 23.160631,149.43132 c -5.644779,-1.87063 -7.256077,-3.11473 -9.179158,-7.08728 -2.456712,-5.07489 -2.445193,-7.56303 0.05896,-12.73592 2.517194,-5.19983 7.2469,-8.2336 12.971257,-8.32013 3.777666,-0.0571 4.874544,0.45426 8.932902,4.16456 5.304502,4.84958 5.916374,5.92756 6.007823,10.58443 0.196168,9.98945 -9.09097,16.6091 -18.791785,13.39434 z"
     id="path4530"
     inkscape:connector-curvature="0" />
  <path
     style="fill:#ff8080"
     d="m 47.275575,266.56242 c -2.06578,-1.64167 -5.016723,-3.23701 -6.557649,-3.5452 -2.169351,-0.43387 -3.236654,-1.54366 -4.728911,-4.91715 -6.534843,-14.7731 9.386179,-29.47594 24.168975,-22.31971 15.451324,7.47986 11.607512,30.01886 -5.651501,33.13876 -2.945855,0.53252 -4.046828,0.1737 -7.230914,-2.3567 z"
     id="path4532"
     inkscape:connector-curvature="0" />
  <path
     style="fill:#ff8080"
     d="m 28.390797,293.38348 c -2.657564,-1.40197 -5.076495,-3.67854 -6.423311,-6.04528 -7.516575,-13.20874 6.657852,-28.45431 19.99779,-21.50899 6.404975,3.3347 8.278205,6.46729 8.278205,13.8436 0,7.37805 -1.889038,10.53737 -8.241342,13.78324 -5.394008,2.7562 -8.278313,2.74082 -13.611342,-0.0726 l 0,-10e-6 z"
     id="path4534"
     inkscape:connector-curvature="0" />
  <path
     style="fill:#ff0000"
     d="m 109.17027,337.78641 c -4.39477,-1.91364 -8.94115,-7.9404 -9.673377,-12.8232 -0.493615,-3.29166 -0.147078,-5.11033 1.660637,-8.71524 2.69039,-5.36514 5.9861,-8.01057 11.1268,-8.93136 7.84547,-1.40526 13.87078,1.57166 17.57748,8.6845 6.78931,13.02812 -7.13487,27.68834 -20.69154,21.7853 z"
     id="path4536"
     inkscape:connector-curvature="0" />
  <path
     style="fill:#ff0000"
     d="m 156.85078,393.25633 c -13.71475,-3.30758 -21.49555,-16.24766 -17.67402,-29.39328 1.97494,-6.79354 6.39269,-11.83236 12.8952,-14.70808 20.17549,-8.92256 40.09563,11.21609 30.81281,31.15081 -4.6055,9.89025 -15.74549,15.43182 -26.03399,12.95055 z"
     id="path4538"
     inkscape:connector-curvature="0" />
  <path
     style="fill:#ff0000"
     d="m 41.858459,318.33404 c -1.479606,-0.80353 -3.06206,-2.85791 -3.707243,-4.81284 -2.87208,-8.70248 8.158077,-14.81197 14.483607,-8.02231 2.948609,3.16496 2.58105,8.04012 -0.866071,11.48725 -3.103496,3.10349 -5.961754,3.49224 -9.910293,1.3479 l 0,0 z"
     id="path4540"
     inkscape:connector-curvature="0" />
  <path
     style="fill:#ff0000"
     d="m 16.844155,266.24883 c -4.663393,-1.50726 -7.3604355,-6.91768 -5.802129,-11.6394 2.228524,-6.75249 10.490629,-8.63247 15.578364,-3.54474 7.031465,7.03147 -0.208602,18.27651 -9.776235,15.18414 z"
     id="path4542"
     inkscape:connector-curvature="0" />
  <path
     style="fill:#ff0000"
     d="m 8.6204477,205.6808 c -4.705633,-2.32931 -7.2240783,-6.26255 -7.2192064,-11.27476 0.0076,-7.81735 6.2309245,-13.40952 13.7598157,-12.36433 6.153957,0.85431 8.248731,2.22964 10.509698,6.90018 3.365659,6.95252 0.578161,14.37573 -6.510438,17.33754 -4.261185,1.78044 -5.924572,1.68596 -10.5398693,-0.59863 l 0,0 z"
     id="path4544"
     inkscape:connector-curvature="0" />
  <path
     style="fill:#ff0000"
     d="m 64.268529,235.66318 -2.418112,-1.89147 3.143546,-0.0215 c 2.505884,-0.0171 3.143545,0.3709 3.143545,1.91298 0,2.40646 -0.792494,2.40646 -3.868979,0 z"
     id="path4546"
     inkscape:connector-curvature="0" />
  <path
     style="fill:#ff0000"
     d="m 59.863625,229.43201 c -2.06144,-3.14615 -1.47486,-6.21613 1.628745,-8.52434 4.107982,-3.05519 9.546872,-0.20539 9.546872,5.00224 0,5.67685 -8.092638,8.22732 -11.175617,3.5221 z"
     id="path4548"
     inkscape:connector-curvature="0" />
  <path
     style="fill:#ff0000"
     d=""
     id="path4550"
     inkscape:connector-curvature="0" />
  <path
     style="fill:#ff0000"
     d="m 47.073343,230.28849 c -1.372888,-0.96161 -2.149707,-2.5095 -2.149707,-4.28351 0,-5.57817 5.658285,-7.93505 9.914258,-4.12964 2.452647,2.19299 2.084019,5.60165 -0.855876,7.91417 -3.052512,2.40111 -4.086397,2.47578 -6.908675,0.49898 z"
     id="path4552"
     inkscape:connector-curvature="0" />
  <path
     style="fill:#ff0000"
     d=""
     id="path4554"
     inkscape:connector-curvature="0" />
  <path
     style="fill:#ff0000"
     d="m 46.497822,128.81343 c -9.280794,-3.30821 -16.09947,-12.91524 -16.061614,-22.62968 0.07071,-18.145433 18.817512,-29.789173 34.861291,-21.652553 19.11475,9.69406 17.31209,37.097813 -2.909678,44.232473 -5.106859,1.8018 -10.923747,1.82002 -15.889999,0.0498 z"
     id="path4556"
     inkscape:connector-curvature="0" />
  <path
     style="fill:#ff0000"
     d="m 53.910748,78.467057 c -3.15224,-1.32542 -4.150889,-3.04915 -4.150889,-7.16467 0,-6.94939 10.50092,-8.77584 13.434765,-2.33675 1.499176,3.29034 1.355567,4.54872 -0.837249,7.33643 -2.430821,3.09029 -4.801088,3.69782 -8.446627,2.16499 z"
     id="path4558"
     inkscape:connector-curvature="0" />
  <path
     style="fill:#ff0000"
     d=""
     id="path4560"
     inkscape:connector-curvature="0" />
  <path
     style="fill:#ff0000"
     d="m 159.36117,34.306357 c -10.93603,-2.91288 -8.40807,-19.44037 2.90578,-18.99763 5.57585,0.21819 9.36574,3.97754 9.36574,9.29026 0,6.83017 -5.81215,11.42787 -12.27152,9.70737 z"
     id="path4562"
     inkscape:connector-curvature="0" />
  <path
     style="fill:#ff0000"
     d="m 239.33982,61.683727 c -1.32996,-0.33452 -3.64562,-1.43999 -5.14591,-2.45661 -1.50028,-1.01661 -4.10528,-2.54002 -5.78889,-3.38535 -6.11108,-3.06835 -9.50001,-12.97415 -7.33229,-21.43217 1.38699,-5.41174 6.7804,-12.5075 9.50682,-12.5075 0.95077,0 2.9737,-0.97933 4.49539,-2.1763 5.02901,-3.95582 19.64632,-1.72538 21.2217,3.2382 0.30634,0.96518 1.83962,2.83415 3.40731,4.15327 3.64007,3.06292 4.96329,6.55469 4.90403,12.94105 -0.0829,8.93197 -5.09452,16.77913 -12.69398,19.87606 -4.40829,1.79646 -9.54546,2.51116 -12.57418,1.74935 z"
     id="path4564"
     inkscape:connector-curvature="0" />
  <path
     style="fill:#ff0000"
     d="m 364.598,178.75401 c -7.25787,-3.4827 -13.0578,-12.04225 -13.0578,-19.27074 0,-4.14259 2.08651,-9.64853 4.99225,-13.1737 3.3216,-4.02968 12.20798,-8.3381 17.19782,-8.3381 5.35253,0 13.54745,4.56642 16.91527,9.42562 4.81297,6.94431 4.54142,18.3901 -0.59111,24.91505 -5.6733,7.21244 -17.57441,10.22407 -25.45643,6.44187 z"
     id="path4566"
     inkscape:connector-curvature="0" />
  <path
     style="fill:#ff0000"
     d="m 329.38251,163.93146 c -4.73697,-3.25122 -7.01002,-6.75771 -7.50835,-11.58264 -0.53368,-5.16724 1.84613,-10.0246 6.45168,-13.1683 4.0663,-2.77561 5.85806,-2.73767 10.21089,0.21624 1.93907,1.31589 5.01702,2.67232 6.83987,3.01429 1.82286,0.34197 3.76535,1.46459 4.31665,2.4947 1.59092,2.97266 1.26375,9.05118 -0.69992,13.00372 -2.43156,4.89435 -6.04193,7.32744 -11.64794,7.84973 -3.76505,0.35078 -5.30322,-0.002 -7.96288,-1.82774 l 0,0 z"
     id="path4568"
     inkscape:connector-curvature="0" />
  <path
     style="fill:#ff0000"
     d=""
     id="path4570"
     inkscape:connector-curvature="0" />
  <path
     style="fill:#ff0000"
     d="m 285.76756,173.75952 c -3.83103,-3.83104 -1.04568,-10.63969 4.3526,-10.63969 3.10416,0 6.28709,3.18294 6.28709,6.28709 0,3.10415 -3.18293,6.28709 -6.28709,6.28709 -1.32996,0 -3.28863,-0.87052 -4.3526,-1.93449 z"
     id="path4572"
     inkscape:connector-curvature="0" />
  <path
     style="fill:#ff0000"
     d=""
     id="path4574"
     inkscape:connector-curvature="0" />
  <path
     style="fill:#c83737"
     d="m 200.58608,206.6627 c -0.83354,-0.15172 -2.29547,-1.20277 -3.24874,-2.33566 -2.40182,-2.8544 -2.3123,-6.07277 0.24864,-8.93896 2.71361,-3.03706 6.58667,-3.1276 9.61654,-0.2248 4.96663,4.75834 0.35762,12.76885 -6.61644,11.49942 z"
     id="path4576"
     inkscape:connector-curvature="0" />
  <path
     style="fill:#c83737"
     d=""
     id="path4578"
     inkscape:connector-curvature="0" />
  <path
     style="fill:#c83737"
     d="m 317.68836,123.07191 c -7.13124,-2.91876 -3.53939,-13.42319 3.72409,-10.89112 4.87895,1.70081 5.09161,8.58704 0.32667,10.57796 -1.26333,0.52785 -2.38379,0.94022 -2.48991,0.91638 -0.10613,-0.0238 -0.80851,-0.29529 -1.56085,-0.60322 z"
     id="path4580"
     inkscape:connector-curvature="0" />
  <path
     style="fill:#c83737"
     d="m 325.19518,135.75869 c -2.12301,-0.92499 -3.74512,-3.51054 -3.74512,-5.96949 0,-0.76358 0.89965,-2.28797 1.99923,-3.38755 2.80434,-2.80434 6.1274,-2.76346 8.54113,0.10509 2.84754,3.38412 2.16587,7.208 -1.63538,9.17371 -2.3797,1.23059 -2.51049,1.23257 -5.15986,0.0782 l 0,0 z"
     id="path4582"
     inkscape:connector-curvature="0" />
  <path
     style="fill:#c83737"
     d="m 288.64263,80.670917 c -1.12572,-2.10343 0.24528,-4.28771 2.51987,-4.01467 2.2903,0.27493 3.54061,2.16518 2.5153,3.80269 -1.12439,1.79573 -4.12008,1.92185 -5.03517,0.21198 z"
     id="path4584"
     inkscape:connector-curvature="0" />
  <path
     style="fill:#c83737"
     d="m 310.63267,52.188887 c -3.80534,-2.66536 0.65636,-8.99004 4.58633,-6.50134 1.04182,0.65975 1.82854,5.91568 0.95889,6.40617 -1.75858,0.99185 -4.20509,1.03383 -5.54522,0.0952 l 0,0 z"
     id="path4586"
     inkscape:connector-curvature="0" />
  <path
     style="fill:#c83737"
     d=""
     id="path4588"
     inkscape:connector-curvature="0" />
  <path
     style="fill:#c83737"
     d=""
     id="path4590"
     inkscape:connector-curvature="0" />
  <path
     style="fill:#c83737"
     d="m 349.62906,86.082557 c -2.77801,-2.58811 -2.75925,-6.28279 0.0452,-8.8955 3.35014,-3.12113 9.39283,-0.24623 9.39283,4.46879 0,4.7529 -6.04469,7.58805 -9.43799,4.42671 z"
     id="path4592"
     inkscape:connector-curvature="0" />
  <path
     style="fill:#c83737"
     d="m 156.61925,264.80643 c -2.95836,-0.36269 -5.94698,-3.09797 -6.90789,-6.32233 -0.59652,-2.00163 -0.48261,-2.97865 0.65601,-5.62688 0.75783,-1.76257 2.17961,-3.72998 3.15951,-4.37204 1.71508,-1.12376 1.91468,-1.10108 5.34377,0.6073 1.95917,0.97607 4.41664,1.97862 5.46103,2.22789 3.27794,0.78237 4.19184,4.56118 2.14586,8.87276 -1.7705,3.73105 -4.94341,5.21584 -9.85829,4.6133 z"
     id="path4594"
     inkscape:connector-curvature="0" />
  <path
     style="fill:#c83737"
     d="m 142.61888,273.52516 c -2.59219,-2.86435 -0.62966,-7.54606 3.16325,-7.54606 2.35028,0 4.68162,2.1496 4.68162,4.31668 0,3.83627 -5.31542,6.02439 -7.84487,3.22938 z"
     id="path4596"
     inkscape:connector-curvature="0" />
  <path
     style="fill:#c83737"
     d="m 216.01299,394.63838 c -5.52957,-3.50675 -7.46769,-10.21665 -4.70734,-16.29714 0.9428,-2.0768 1.84553,-3.01738 3.22928,-3.36468 1.05636,-0.26513 3.39813,-1.35321 5.20393,-2.41795 3.77809,-2.22763 5.18709,-2.3663 8.42622,-0.82923 3.26169,1.54778 5.02258,3.57365 6.50965,7.48924 2.0541,5.40862 1.42276,9.57864 -2.04904,13.53412 -3.72939,4.24894 -11.49608,5.13051 -16.6127,1.88564 l 0,0 z"
     id="path4598"
     inkscape:connector-curvature="0" />
  <path
     style="fill:#c83737"
     d="m 239.82474,356.64595 c -5.1009,-1.84941 -7.94866,-5.80272 -8.07034,-11.20337 -0.15715,-6.97542 4.16603,-11.58293 11.04196,-11.76818 5.7983,-0.15621 5.95677,-0.11742 8.44452,2.06685 l 2.33662,2.05158 -0.09,7.66204 -0.09,7.66205 -2.73578,1.86457 c -3.40027,2.31745 -7.35896,2.92547 -10.83699,1.66446 z"
     id="path4600"
     inkscape:connector-curvature="0" />
  <path
     style="fill:#c83737"
     d="m 202.28979,323.7599 c -5.60536,-3.12507 -3.62153,-11.95647 2.68583,-11.95647 3.08806,0 4.74193,0.95346 6.05358,3.48992 2.79139,5.39796 -3.43099,11.42606 -8.73941,8.46655 z"
     id="path4602"
     inkscape:connector-curvature="0" />
  <path
     style="fill:#c83737"
     d="m 201.94364,309.27763 c 0.66546,-0.17341 1.58879,-0.16201 2.05184,0.0253 0.46305,0.18735 -0.0814,0.32923 -1.20992,0.31529 -1.12851,-0.0139 -1.50737,-0.16722 -0.84192,-0.34063 z"
     id="path4604"
     inkscape:connector-curvature="0" />
  <path
     style="fill:#c83737"
     d=""
     id="path4606"
     inkscape:connector-curvature="0" />
  <path
     style="fill:#c83737"
     d="m 262.24997,228.52262 c -0.39753,-0.27637 -1.13646,-1.52471 -1.64207,-2.7741 -0.82959,-2.04997 -0.78936,-2.40156 0.41229,-3.60321 1.21944,-1.21943 1.55935,-1.25304 4.03588,-0.399 3.46745,1.19575 3.80423,2.97855 1.02968,5.45069 -2.20004,1.96024 -2.68291,2.12712 -3.83578,1.32562 z"
     id="path4608"
     inkscape:connector-curvature="0" />
  <path
     style="fill:#c83737"
     d="m 200.70263,307.38888 c -2.04291,-2.04292 -1.45614,-4.47841 1.31761,-5.46889 2.63861,-0.94223 5.09351,1.51266 4.15128,4.15128 -0.99048,2.77375 -3.42597,3.36052 -5.46889,1.31761 z"
     id="path4610"
     inkscape:connector-curvature="0" />
  <path
     style="fill:#c83737"
     d=""
     id="path4612"
     inkscape:connector-curvature="0" />
  <path
     style="fill:#c83737"
     d="m 279.16468,183.6906 c -3.06356,-3.26101 -1.07238,-8.22026 3.3005,-8.22026 4.60208,0 6.58075,5.55768 2.98552,8.38569 -2.35174,1.84988 -4.44448,1.7948 -6.28602,-0.16543 l 0,0 z"
     id="path4614"
     inkscape:connector-curvature="0" />
  <path
     style="fill:#c83737"
     d="m 77.965544,356.25987 c -1.908781,-1.90878 -1.731455,-4.40235 0.434209,-6.10586 0.991154,-0.77965 2.18075,-1.41753 2.643545,-1.41753 1.647895,0 4.445644,2.82898 4.445644,4.49528 0,2.15137 -2.269986,4.396 -4.445644,4.396 -0.940425,0 -2.325414,-0.61555 -3.077754,-1.36789 z"
     id="path4616"
     inkscape:connector-curvature="0" />
  <path
     style="fill:#c83737"
     d=""
     id="path4618"
     inkscape:connector-curvature="0" />
  <path
     style="fill:#c83737"
     d=""
     id="path4620"
     inkscape:connector-curvature="0" />
  <path
     style="fill:#c83737"
     d="m 189.64007,380.1377 c -2.97729,-1.1068 -2.60676,-6.1375 0.52526,-7.13157 1.92869,-0.61214 4.75486,1.35832 4.75486,3.31517 0,2.97585 -2.56128,4.82711 -5.28012,3.8164 z"
     id="path4622"
     inkscape:connector-curvature="0" />
  <path
     style="fill:#c83737"
     d="m 232.30121,363.21646 c -2.9944,-3.30878 0.52835,-7.90156 4.4895,-5.85317 1.39768,0.72277 1.90198,1.49481 1.90198,2.91182 0,3.62033 -4.07845,5.49723 -6.39148,2.94135 z"
     id="path4624"
     inkscape:connector-curvature="0" />
  <path
     style="fill:#c83737"
     d="m 244.17148,392.17571 c -1.10804,-1.33511 -0.332,-3.35744 1.08039,-2.81545 0.59185,0.22711 1.35869,0.41293 1.7041,0.41293 1.075,0 0.6873,2.56668 -0.45385,3.00458 -1.42867,0.54823 -1.36161,0.56555 -2.33064,-0.60206 z"
     id="path4626"
     inkscape:connector-curvature="0" />
  <path
     style="fill:#c83737"
     d=""
     id="path4628"
     inkscape:connector-curvature="0" />
  <path
     style="fill:#c83737"
     d="m 238.14553,393.74007 c -2.02602,-2.02601 0.0889,-5.02233 2.48026,-3.5139 1.55495,0.98083 1.69181,1.9799 0.44238,3.22933 -1.32087,1.32087 -1.83617,1.37105 -2.92264,0.28457 z"
     id="path4630"
     inkscape:connector-curvature="0" />
  <path
     style="fill:#c83737"
     d="m 364.53861,269.7408 c 0,-0.42763 1.11114,-0.61413 2.73579,-0.4592 1.50467,0.1435 2.73578,0.35013 2.73578,0.4592 0,0.10906 -1.23111,0.3157 -2.73578,0.45919 -1.62465,0.15494 -2.73579,-0.0316 -2.73579,-0.45919 z"
     id="path4632"
     inkscape:connector-curvature="0" />
  <path
     style="fill:#c83737"
     d="m 359.07442,271.80151 c -0.49306,-0.5941 -0.66034,-1.74905 -0.40225,-2.77736 0.37629,-1.49924 0.76803,-1.7288 2.64117,-1.54776 1.69737,0.16405 2.25037,0.5724 2.42284,1.78909 0.42676,3.01039 -2.80774,4.76998 -4.66176,2.53603 z"
     id="path4634"
     inkscape:connector-curvature="0" />
  <path
     style="fill:#c83737"
     d=""
     id="path4636"
     inkscape:connector-curvature="0" />
  <path
     style="fill:#c83737"
     d=""
     id="path4638"
     inkscape:connector-curvature="0" />
  <path
     style="fill:#c83737"
     d="m 199.40461,92.788757 c -1.37165,-1.95831 -1.34115,-2.77459 0.17354,-4.64516 2.42617,-2.9962 6.96911,-1.37605 6.96911,2.4854 0,3.54715 -5.09236,5.08695 -7.14265,2.15976 z"
     id="path4640"
     inkscape:connector-curvature="0" />
  <path
     style="fill:#c83737"
     d="m 163.50835,43.262667 c -1.80694,-2.29715 -1.78238,-2.68285 0.30372,-4.76894 1.25544,-1.25545 2.13461,-1.59852 3.24874,-1.26774 3.26434,0.96918 4.18487,4.15548 1.86946,6.47089 -1.86599,1.86599 -3.73001,1.71671 -5.42192,-0.43421 z"
     id="path4642"
     inkscape:connector-curvature="0" />
  <path
     style="fill:#c83737"
     d="m 159.40467,11.801187 c -1.82213,-2.3164698 -1.79083,-3.8616198 0.12135,-5.9899898 3.18563,-3.5458 8.7203,-1.63272 8.7203,3.01422 0,4.3402598 -6.14224,6.4075098 -8.84165,2.9757698 z"
     id="path4644"
     inkscape:connector-curvature="0" />
  <path
     style="fill:#c83737"
     d="m 224.61602,19.780097 c -2.03342,-0.8226 -4.88005,-4.42163 -5.41166,-6.842 -0.99929,-4.5497398 2.66628,-9.7545998 7.50967,-10.6632298 4.89958,-0.91916 10.61357,4.03994 10.60821,9.2067398 -0.007,6.30213 -6.75163,10.70737 -12.70622,8.29849 z"
     id="path4646"
     inkscape:connector-curvature="0" />
  <path
     style="fill:#c83737"
     d="m 275.76252,23.725677 c -1.22648,-1.22648 -0.99036,-4.28531 0.43002,-5.57074 2.68315,-2.42821 7.3432,-0.3746 6.84056,3.01453 -0.16923,1.14109 -0.99843,1.75347 -3.3037,2.43982 -1.69276,0.504 -3.09314,0.92103 -3.11195,0.92674 -0.0188,0.006 -0.40353,-0.35894 -0.85493,-0.81035 z"
     id="path4648"
     inkscape:connector-curvature="0" />
  <path
     style="fill:#c83737"
     d="m 315.93092,42.613637 c -1.13269,-1.36482 -0.0443,-3.3624 1.83198,-3.3624 2.37458,0 1.87743,4.37707 -0.50375,4.43517 -0.23607,0.006 -0.83377,-0.47699 -1.32823,-1.07277 z"
     id="path4650"
     inkscape:connector-curvature="0" />
  <path
     style="fill:#c83737"
     d=""
     id="path4652"
     inkscape:connector-curvature="0" />
  <path
     style="fill:#c83737"
     d="m 84.854638,43.262667 c -0.779642,-0.99115 -1.417532,-2.33463 -1.417532,-2.98551 0,-2.07262 2.675539,-4.78762 4.718037,-4.78762 4.109966,0 6.332793,5.41144 3.360341,8.1807 -2.112077,1.9677 -4.927994,1.7954 -6.660846,-0.40757 z"
     id="path4654"
     inkscape:connector-curvature="0" />
  <path
     style="fill:#c83737"
     d="m 43.465035,80.782647 c -0.849738,-0.84974 -0.300578,-4.1169 0.870059,-5.17631 1.848141,-1.67254 3.02306,-1.3804 4.668215,1.16077 l 1.473329,2.27576 -3.315452,1.06023 c -1.823499,0.58314 -3.486767,0.88893 -3.696151,0.67955 z"
     id="path4656"
     inkscape:connector-curvature="0" />
</svg>
